<svg width="100" height="100" viewBox="0 0 100 100" fill="none" xmlns="http://www.w3.org/2000/svg">
<path d="M97 18.2914V81.7085C97 90.1517 90.1518 97 81.7086 97H18.2914C9.84824 97 3 90.1517 3 81.7085V18.2914C3 9.84824 9.84824 3 18.2914 3H81.7086C90.1518 3.09381 96.9062 9.84824 97 18.2914Z" fill="#00A6C5" stroke="#5F3B28" stroke-width="4" stroke-miterlimit="10" stroke-linecap="round" stroke-linejoin="round"/>
<path d="M76.2019 35.4375V80.2496C76.2019 81.9255 74.8452 83.2823 73.1692 83.2823H32.6667C30.9908 83.2823 29.634 81.9255 29.634 80.2496V22.5884C29.634 20.9124 30.9908 19.5557 32.6667 19.5557H60.3202L76.2019 35.4375Z" fill="#5F3B28" stroke="#5F3B28" stroke-width="1.10235"/>
<path d="M73.1692 84.0804H32.6667C30.5518 84.0804 28.8359 82.3645 28.8359 80.2496V22.5884C28.8359 20.4735 30.5518 18.7576 32.6667 18.7576H60.3201C60.5197 18.7576 60.7591 18.8374 60.8788 18.997L76.7606 34.8788C76.9202 35.0384 77 35.238 77 35.4375V80.2496C77 82.3645 75.2841 84.0804 73.1692 84.0804ZM32.6667 20.3538C31.4297 20.3538 30.472 21.3514 30.472 22.5485V80.2097C30.472 81.4467 31.4696 82.4044 32.6667 82.4044H73.1692C74.4062 82.4044 75.3639 81.4068 75.3639 80.2097V35.7966L59.961 20.3937H32.6667V20.3538Z" fill="#5F3B28" stroke="#5F3B28" stroke-width="1.10235"/>
<path d="M70.366 31.7197V76.5318C70.366 78.2078 69.0093 79.5646 67.3333 79.5646H26.8308C25.1548 79.5646 23.7981 78.2078 23.7981 76.5318V18.8308C23.7981 17.1548 25.1548 15.7981 26.8308 15.7981H54.4842L70.366 31.7197Z" fill="#F5ECDC" stroke="#5F3B28" stroke-width="1.10235"/>
<path d="M67.3333 80.3627H26.8308C24.7159 80.3627 23 78.6468 23 76.5319V18.8308C23 16.7159 24.7159 15 26.8308 15H54.4842C54.6837 15 54.9232 15.0798 55.0429 15.2394L70.9246 31.1212C71.0842 31.2808 71.1641 31.4803 71.1641 31.6799V76.492C71.204 78.6468 69.4482 80.3627 67.3333 80.3627ZM26.8308 16.6361C25.5938 16.6361 24.6361 17.6337 24.6361 18.8308V76.492C24.6361 77.729 25.6337 78.6867 26.8308 78.6867H67.3333C68.5703 78.6867 69.528 77.6891 69.528 76.492V32.039L54.1251 16.6361H26.8308Z" fill="#5F3B28" stroke="#5F3B28" stroke-width="1.10235"/>
<path d="M70.4458 31.6399L57.5967 31.7996C55.9208 31.7996 54.564 30.4827 54.5241 28.8068L54.3645 15.9577L70.4458 31.6399Z" fill="#F5ECDC" stroke="#5F3B28" stroke-width="1.10235"/>
<path d="M57.5568 32.5976C56.5592 32.5976 55.6015 32.1986 54.8832 31.5202C54.165 30.802 53.726 29.8443 53.726 28.8068L53.5664 15.9577C53.5664 15.6385 53.7659 15.3192 54.0453 15.1995C54.3645 15.0798 54.6837 15.1197 54.9231 15.3591L70.9645 31.0813C71.2039 31.3207 71.2838 31.6798 71.164 31.9592C71.0443 32.2784 70.765 32.4779 70.4059 32.4779L57.5568 32.6375C57.5967 32.5976 57.5967 32.5976 57.5568 32.5976ZM55.2424 17.8731L55.3621 28.7669C55.3621 29.3654 55.6015 29.9241 56.0404 30.3231C56.4794 30.7222 56.9981 30.9616 57.5967 30.9616L68.4905 30.8419L55.2424 17.8731Z" fill="#5F3B28" stroke="#5F3B28" stroke-width="1.10235"/>
<path d="M62.4251 70.6261H31.739" stroke="#5F3B28" stroke-width="1.10235"/>
<path d="M62.4251 71.464H31.739C31.3001 71.464 30.9409 71.1049 30.9409 70.666C30.9409 70.227 31.3001 69.8679 31.739 69.8679H62.4251C62.8641 69.8679 63.2232 70.227 63.2232 70.666C63.2631 71.1049 62.8641 71.464 62.4251 71.464Z" fill="#5F3B28" stroke="#5F3B28" stroke-width="1.10235"/>
<path d="M62.4251 62.8448H31.739" stroke="#5F3B28" stroke-width="1.10235"/>
<path d="M62.4251 63.6429H31.739C31.3001 63.6429 30.9409 63.2837 30.9409 62.8448C30.9409 62.4059 31.3001 62.0467 31.739 62.0467H62.4251C62.8641 62.0467 63.2232 62.4059 63.2232 62.8448C63.2631 63.2837 62.8641 63.6429 62.4251 63.6429Z" fill="#5F3B28" stroke="#5F3B28" stroke-width="1.10235"/>
<path d="M62.4251 55.0236H31.739" stroke="#5F3B28" stroke-width="1.10235"/>
<path d="M62.4251 55.8217H31.739C31.3001 55.8217 30.9409 55.4626 30.9409 55.0236C30.9409 54.5847 31.3001 54.2256 31.739 54.2256H62.4251C62.8641 54.2256 63.2232 54.5847 63.2232 55.0236C63.2631 55.4626 62.8641 55.8217 62.4251 55.8217Z" fill="#5F3B28" stroke="#5F3B28" stroke-width="1.10235"/>
<path d="M62.4251 47.2025H31.739" stroke="#5F3B28" stroke-width="1.10235"/>
<path d="M62.4251 48.0405H31.739C31.3001 48.0405 30.9409 47.6813 30.9409 47.2424C30.9409 46.8034 31.3001 46.4443 31.739 46.4443H62.4251C62.8641 46.4443 63.2232 46.8034 63.2232 47.2424C63.2631 47.6813 62.8641 48.0405 62.4251 48.0405Z" fill="#5F3B28" stroke="#5F3B28" stroke-width="1.10235"/>
<path d="M62.4251 39.4212H31.739" stroke="#5F3B28" stroke-width="1.10235"/>
<path d="M62.4251 40.2193H31.739C31.3001 40.2193 30.9409 39.8601 30.9409 39.4212C30.9409 38.9822 31.3001 38.6231 31.739 38.6231H62.4251C62.8641 38.6231 63.2232 38.9822 63.2232 39.4212C63.2631 39.8601 62.8641 40.2193 62.4251 40.2193Z" fill="#5F3B28" stroke="#5F3B28" stroke-width="1.10235"/>
</svg>
