<svg width="100" height="100" viewBox="0 0 100 100" fill="none" xmlns="http://www.w3.org/2000/svg">
<path d="M97 18.2914V81.7085C97 90.1517 90.1518 97 81.7086 97H18.2914C9.84824 97 3 90.1517 3 81.7085V18.2914C3 9.84824 9.84824 3 18.2914 3H81.7086C90.1518 3.09381 96.9062 9.84824 97 18.2914Z" fill="#00A6C5" stroke="#5F3B28" stroke-width="4" stroke-miterlimit="10" stroke-linecap="round" stroke-linejoin="round"/>
<path d="M50.3138 85.3726C69.4705 85.3726 85.0001 69.8431 85.0001 50.6864C85.0001 31.5297 69.4705 16 50.3138 16C31.1571 16 15.6274 31.5297 15.6274 50.6864C15.6274 69.8431 31.1571 85.3726 50.3138 85.3726Z" stroke="#F5ECDC" stroke-width="3.82161" stroke-miterlimit="10"/>
<path d="M78.6363 29.3547H21.3635V31.8644H78.6363V29.3547Z" fill="#F5ECDC"/>
<path d="M78.6363 69.0603H21.3635V71.5698H78.6363V69.0603Z" fill="#F5ECDC"/>
<path d="M85 49.4316H15V51.9412H85V49.4316Z" fill="#F5ECDC"/>
<path d="M51.5684 16H49.0588V85.4622H51.5684V16Z" fill="#F5ECDC"/>
<path d="M50.3138 85.3726C59.9169 85.3726 67.7017 69.9634 67.7017 50.9552C67.7017 31.947 59.9169 16.5379 50.3138 16.5379C40.7107 16.5379 32.9258 31.947 32.9258 50.9552C32.9258 69.9634 40.7107 85.3726 50.3138 85.3726Z" stroke="#F5ECDC" stroke-width="3.82161" stroke-miterlimit="10"/>
</svg>
