<svg width="100" height="100" viewBox="0 0 100 100" fill="none" xmlns="http://www.w3.org/2000/svg">
<path d="M97 18.2914V81.7085C97 90.1517 90.1518 97 81.7086 97H18.2914C9.84824 97 3 90.1517 3 81.7085V18.2914C3 9.84824 9.84824 3 18.2914 3H81.7086C90.1518 3.09381 96.9062 9.84824 97 18.2914Z" fill="#00A6C5" stroke="#5F3B28" stroke-width="4" stroke-miterlimit="10" stroke-linecap="round" stroke-linejoin="round"/>
<path d="M71.7791 35.5609V81.71C71.7791 83.436 70.3819 84.8332 68.6559 84.8332H26.945C25.219 84.8332 23.8218 83.436 23.8218 81.71V22.3284C23.8218 20.6025 25.219 19.2053 26.945 19.2053H55.4235L71.7791 35.5609Z" fill="#5F3B28"/>
<path d="M68.656 85.6551H26.9451C24.7671 85.6551 23 83.888 23 81.71V22.3285C23 20.1504 24.7671 18.3834 26.9451 18.3834H55.4236C55.629 18.3834 55.8756 18.4656 55.9989 18.6299L72.3545 34.9856C72.5189 35.1499 72.6011 35.3554 72.6011 35.5609V81.71C72.6011 83.888 70.834 85.6551 68.656 85.6551ZM26.9451 20.0272C25.6711 20.0272 24.6849 21.0545 24.6849 22.2874V81.6689C24.6849 82.9429 25.7122 83.9291 26.9451 83.9291H68.656C69.9299 83.9291 70.9162 82.9018 70.9162 81.6689V35.9308L55.0537 20.0683H26.9451V20.0272Z" fill="#5F3B28"/>
<path d="M76.1214 32.2186V78.3677C76.1214 80.0937 74.7241 81.4909 72.9982 81.4909H31.2872C29.5613 81.4909 28.1641 80.0937 28.1641 78.3677V18.9451C28.1641 17.2191 29.5613 15.8219 31.2872 15.8219H59.7657L76.1214 32.2186Z" fill="#F5ECDC" stroke="#5F3B28" stroke-width="1.5"/>
<path d="M72.9983 82.3128H31.2874C29.1093 82.3128 27.3423 80.5457 27.3423 78.3677V18.9451C27.3423 16.7671 29.1093 15 31.2874 15H59.7659C59.9713 15 60.2179 15.0822 60.3412 15.2466L76.6968 31.6022C76.8612 31.7666 76.9434 31.972 76.9434 32.1775V78.3266C76.9845 80.5457 75.1763 82.3128 72.9983 82.3128ZM31.2874 16.6849C30.0134 16.6849 29.0272 17.7122 29.0272 18.9451V78.3266C29.0272 79.6006 30.0545 80.5868 31.2874 80.5868H72.9983C74.2722 80.5868 75.2585 79.5595 75.2585 78.3266V32.5473L59.396 16.6849H31.2874Z" fill="#5F3B28" stroke="#5F3B28" stroke-width="1.5"/>
<path d="M76.2037 32.1364L62.9712 32.3008C61.2453 32.3008 59.8481 30.9447 59.807 29.2187L59.6426 15.9863L76.2037 32.1364Z" fill="#F5ECDC" stroke="#5F3B28" stroke-width="1.5"/>
<path d="M62.9303 33.1227C61.9029 33.1227 60.9166 32.7117 60.1769 32.0131C59.4372 31.2734 58.9852 30.2872 58.9852 29.2187L58.8208 15.9863C58.8208 15.6575 59.0263 15.3288 59.3139 15.2055C59.6427 15.0822 59.9715 15.1233 60.218 15.3698L76.738 31.5611C76.9846 31.8077 77.0668 32.1775 76.9435 32.4652C76.8202 32.7939 76.5325 32.9994 76.1627 32.9994L62.9303 33.1638C62.9713 33.1227 62.9713 33.1227 62.9303 33.1227ZM60.5468 17.9588L60.6701 29.1776C60.6701 29.794 60.9166 30.3693 61.3687 30.7803C61.8207 31.1912 62.3549 31.4378 62.9713 31.4378L74.1902 31.3145L60.5468 17.9588Z" fill="#5F3B28" stroke="#5F3B28" stroke-width="1.5"/>
<path d="M67.9435 72.2858H36.3418" stroke="#5F3B28" stroke-width="1.5"/>
<path d="M67.9436 73.1487H36.3419C35.8899 73.1487 35.52 72.7789 35.52 72.3268C35.52 71.8748 35.8899 71.5049 36.3419 71.5049H67.9436C68.3956 71.5049 68.7655 71.8748 68.7655 72.3268C68.8066 72.7789 68.3956 73.1487 67.9436 73.1487Z" fill="#5F3B28" stroke="#5F3B28" stroke-width="1.5"/>
<path d="M67.9435 64.2723H36.3418" stroke="#5F3B28" stroke-width="1.5"/>
<path d="M67.9436 65.0942H36.3419C35.8899 65.0942 35.52 64.7244 35.52 64.2723C35.52 63.8203 35.8899 63.4504 36.3419 63.4504H67.9436C68.3956 63.4504 68.7655 63.8203 68.7655 64.2723C68.8066 64.7244 68.3956 65.0942 67.9436 65.0942Z" fill="#5F3B28" stroke="#5F3B28" stroke-width="1.5"/>
<path d="M67.9435 56.2178H36.3418" stroke="#5F3B28" stroke-width="1.5"/>
<path d="M67.9436 57.0397H36.3419C35.8899 57.0397 35.52 56.6698 35.52 56.2178C35.52 55.7658 35.8899 55.3959 36.3419 55.3959H67.9436C68.3956 55.3959 68.7655 55.7658 68.7655 56.2178C68.8066 56.6698 68.3956 57.0397 67.9436 57.0397Z" fill="#5F3B28" stroke="#5F3B28" stroke-width="1.5"/>
<path d="M67.9435 48.1633H36.3418" stroke="#5F3B28" stroke-width="1.5"/>
<path d="M67.9436 49.0263H36.3419C35.8899 49.0263 35.52 48.6564 35.52 48.2044C35.52 47.7523 35.8899 47.3825 36.3419 47.3825H67.9436C68.3956 47.3825 68.7655 47.7523 68.7655 48.2044C68.8066 48.6564 68.3956 49.0263 67.9436 49.0263Z" fill="#5F3B28" stroke="#5F3B28" stroke-width="1.5"/>
<path d="M67.9435 40.1498H36.3418" stroke="#5F3B28" stroke-width="1.5"/>
<path d="M67.9436 40.9717H36.3419C35.8899 40.9717 35.52 40.6019 35.52 40.1498C35.52 39.6978 35.8899 39.3279 36.3419 39.3279H67.9436C68.3956 39.3279 68.7655 39.6978 68.7655 40.1498C68.8066 40.6019 68.3956 40.9717 67.9436 40.9717Z" fill="#5F3B28" stroke="#5F3B28" stroke-width="1.5"/>
</svg>
