<svg width="60" height="60" viewBox="0 0 60 60" fill="none" xmlns="http://www.w3.org/2000/svg">
<path d="M30.025 57.55C45.2266 57.55 57.5499 45.2266 57.5499 30.025C57.5499 14.8234 45.2266 2.5 30.025 2.5C14.8233 2.5 2.5 14.8234 2.5 30.025C2.5 45.2266 14.8233 57.55 30.025 57.55Z" fill="#00B88B"/>
<path d="M30.025 59.05C14.05 59.05 1 46 1 30.025C1 14.05 14.05 1 30.025 1C46 1 59.0499 14.05 59.0499 30.025C59.0499 46 46 59.05 30.025 59.05ZM30.025 4.075C15.7 4.075 4.07489 15.7 4.07489 30.025C4.07489 44.35 15.7 55.975 30.025 55.975C44.35 55.975 55.975 44.35 55.975 30.025C55.975 15.7 44.35 4.075 30.025 4.075Z" fill="#5F3B28"/>
<path d="M29.8251 36.9001C26.0001 36.9001 22.8501 33.75 22.8501 29.925C22.8501 29.1 23.5251 28.425 24.3501 28.425C25.1751 28.425 25.8501 29.1 25.8501 29.925C25.8501 32.1 27.5751 33.8251 29.7501 33.8251C31.9251 33.8251 33.6502 32.1 33.6502 29.925C33.6502 29.1 34.3252 28.425 35.1502 28.425C35.9752 28.425 36.6502 29.1 36.6502 29.925C36.8002 33.825 33.6501 36.9001 29.8251 36.9001Z" fill="#5F3B28"/>
<path d="M44.1501 27C44.1501 27.825 43.4751 28.5 42.6501 28.5C41.8251 28.5 41.1501 27.825 41.1501 27C41.1501 26.175 41.8251 25.5 42.6501 25.5C43.4751 25.5 44.1501 26.175 44.1501 27Z" fill="#5F3B28"/>
<path d="M42.6501 30C41.0001 30 39.6501 28.65 39.6501 27C39.6501 25.35 41.0001 24 42.6501 24C44.3001 24 45.6501 25.35 45.6501 27C45.6501 28.65 44.3001 30 42.6501 30Z" fill="#5F3B28"/>
<path d="M15.5 27C15.5 27.825 16.175 28.5 17 28.5C17.825 28.5 18.5 27.825 18.5 27C18.5 26.175 17.825 25.5 17 25.5C16.175 25.5 15.5 26.175 15.5 27Z" fill="#5F3B28"/>
<path d="M17 30C15.35 30 14 28.65 14 27C14 25.35 15.35 24 17 24C18.65 24 20 25.35 20 27C20.075 28.65 18.725 30 17 30ZM17 26.925C17.075 26.925 17.075 26.925 17 26.925Z" fill="#5F3B28"/>
</svg>
