<svg width="100" height="100" viewBox="0 0 100 100" fill="none" xmlns="http://www.w3.org/2000/svg">
<path d="M97 18.2914V81.7085C97 90.1517 90.1517 97 81.7085 97H18.2914C9.84824 97 3 90.1517 3 81.7085V18.2914C3 9.84824 9.84824 3 18.2914 3H81.7085C90.1517 3.09381 97 9.84824 97 18.2914Z" fill="#00B88B" stroke="#5F3B28" stroke-width="4" stroke-miterlimit="10" stroke-linecap="round" stroke-linejoin="round"/>
<path d="M52.0639 76.2675C50.9381 76.2675 49.7186 76.2675 48.5928 76.2675C48.499 76.2675 48.3114 76.1737 48.2176 76.1737C44.8403 75.8922 41.6506 75.1417 38.5548 73.6407C30.0179 69.4191 24.7644 62.6647 22.982 53.2834C22.7944 52.2515 22.7006 51.2195 22.5129 50.1876C22.5129 49.0618 22.5129 47.8423 22.5129 46.7165C22.5129 46.5289 22.6067 46.4351 22.6067 46.2475C22.7944 44.8403 22.982 43.3393 23.2635 41.9321C27.2036 25.7964 43.996 16.6966 59.6626 22.3253C70.3572 26.1716 77.4871 35.9281 78.05 47.1856C78.3314 52.7205 77.018 57.974 74.1098 62.6647C73.3593 63.8842 73.2655 64.8223 73.9222 66.0419C75.1418 68.2934 76.2675 70.5448 77.3932 72.7963C77.8623 73.6406 77.7685 74.485 77.1118 75.1416C76.549 75.7983 75.6108 75.8922 74.7665 75.4231C74.4851 75.2355 74.2037 75.0479 73.8284 74.9541C71.3893 73.8283 69.0439 72.7026 66.6048 71.6706C66.0419 71.3892 65.6667 71.483 65.1976 71.8582C62.1018 73.8283 58.7246 75.1417 55.0659 75.7984C54.034 75.986 53.0958 76.1736 52.0639 76.2675Z" fill="#F5ECDC" stroke="#5F3B28" stroke-width="4" stroke-miterlimit="10" stroke-linecap="round" stroke-linejoin="round"/>
</svg>
