<svg width="100" height="100" viewBox="0 0 100 100" fill="none" xmlns="http://www.w3.org/2000/svg">
<path d="M83.9144 65.4857H16.3144C13.6858 65.4857 11.5144 63.3143 11.5144 60.6857V8.8C11.5144 6.17143 13.6858 4 16.3144 4H83.8573C86.4858 4 88.6573 6.17143 88.6573 8.8V60.6857C88.7144 63.3143 86.543 65.4857 83.9144 65.4857Z" fill="#F5ECDC" stroke="#5F3B28" stroke-width="4" stroke-miterlimit="10"/>
<path d="M77.9228 57.4316H22.0771C20.2864 57.4316 18.8315 56.0344 18.8315 54.3148V15.0326C18.8315 13.313 20.2864 11.9158 22.0771 11.9158H77.9228C79.7135 11.9158 81.1684 13.313 81.1684 15.0326V54.3148C81.1684 56.0344 79.7135 57.4316 77.9228 57.4316Z" fill="#00A6C5" stroke="#5F3B28" stroke-width="4" stroke-miterlimit="10"/>
<path d="M92.9429 96.4H7.11429C4.82858 96.4 3 94.5714 3 92.2857V69.3714C3 67.0857 4.82858 65.2572 7.11429 65.2572H92.8857C95.1714 65.2572 97 67.0857 97 69.3714V92.2857C97 94.5714 95.1714 96.4 92.9429 96.4Z" fill="#F5ECDC" stroke="#5F3B28" stroke-width="4" stroke-miterlimit="10"/>
<path d="M87.1142 83.4639H51.4C50.7142 83.4639 50.2 82.6333 50.2 81.5258C50.2 80.4183 50.7142 79.5876 51.4 79.5876H87.1142C87.8 79.5876 88.3142 80.4183 88.3142 81.5258C88.3142 82.6333 87.7428 83.4639 87.1142 83.4639Z" fill="#5F3B28"/>
<path d="M21.6857 78.7429H14.9429V85.4857H21.6857V78.7429Z" fill="#CFD300" stroke="#5F3B28" stroke-width="3" stroke-miterlimit="10"/>
<path d="M52.3143 24.5143H30.0857V36.9143H52.3143V24.5143Z" fill="#F5ECDC" stroke="#5F3B28" stroke-width="3" stroke-miterlimit="10"/>
<path d="M70.1429 32.6286H47.9143V45.0286H70.1429V32.6286Z" fill="#F5ECDC" stroke="#5F3B28" stroke-width="3" stroke-miterlimit="10"/>
</svg>
