<svg width="100" height="100" viewBox="0 0 100 100" fill="none" xmlns="http://www.w3.org/2000/svg">
<path d="M83.3035 66.8887H16.6442C15.186 66.8887 14.0403 65.743 14.0403 64.2848V5.64544C14.0403 4.18727 15.186 3.04156 16.6442 3.04156H83.3035C84.7616 3.04156 85.9073 4.18727 85.9073 5.64544V64.2848C85.9073 65.743 84.7616 66.8887 83.3035 66.8887Z" fill="#F5ECDC" stroke="#5F3B28" stroke-width="2"/>
<path d="M80.5955 67.9302H19.3522C15.8631 67.9302 12.9988 65.0659 12.9988 61.5767V8.35346C12.9988 4.86426 15.8631 2 19.3522 2H80.5955C84.0847 2 86.9489 4.86426 86.9489 8.35346V61.5767C87.001 65.0659 84.1367 67.9302 80.5955 67.9302ZM19.3522 4.13518C17.0088 4.13518 15.0819 6.06205 15.0819 8.40554V61.6288C15.0819 63.9723 17.0088 65.8992 19.3522 65.8992H80.5955C82.939 65.8992 84.8658 63.9723 84.8658 61.6288V8.35346C84.8658 6.00997 82.939 4.0831 80.5955 4.0831H19.3522V4.13518Z" fill="#5F3B28" stroke="#5F3B28" stroke-width="2"/>
<path d="M77.5751 11.3739H22.3208V58.6083H77.5751V11.3739Z" fill="#00A6C5" stroke="#5F3B28" stroke-width="2"/>
<path d="M77.6272 59.6499H22.3208C21.748 59.6499 21.2793 59.1812 21.2793 58.6083V11.3739C21.2793 10.8011 21.748 10.3324 22.3208 10.3324H77.5751C78.148 10.3324 78.6167 10.8011 78.6167 11.3739V58.6083C78.6688 59.1812 78.2001 59.6499 77.6272 59.6499ZM23.4145 57.5147H76.5857V12.4155H23.4145V57.5147Z" fill="#5F3B28" stroke="#5F3B28" stroke-width="2"/>
<path d="M93.3545 97.1457H6.64538C5.18721 97.1457 4.0415 96 4.0415 94.5418V69.4925C4.0415 68.0343 5.18721 66.8886 6.64538 66.8886H93.3545C94.8127 66.8886 95.9584 68.0343 95.9584 69.4925V94.5418C95.9584 96 94.7606 97.1457 93.3545 97.1457Z" fill="#F5ECDC" stroke="#5F3B28" stroke-width="2"/>
<path d="M90.6466 98.1873H9.35345C5.86426 98.1873 3 95.323 3 91.8338V72.2006C3 68.7114 5.86426 65.8471 9.35345 65.8471H90.6466C94.1358 65.8471 97 68.7114 97 72.2006V91.8338C97 95.3751 94.1358 98.1873 90.6466 98.1873ZM9.35345 67.9302C7.00996 67.9302 5.0831 69.8571 5.0831 72.2006V91.8338C5.0831 94.1773 7.00996 96.1042 9.35345 96.1042H90.6466C92.9901 96.1042 94.9169 94.1773 94.9169 91.8338V72.2006C94.9169 69.8571 92.9901 67.9302 90.6466 67.9302H9.35345Z" fill="#5F3B28" stroke="#5F3B28" stroke-width="2"/>
<path d="M48.1513 90.2194H14.3529C12.374 90.2194 10.7075 88.605 10.7075 86.574V86.3657C10.7075 84.3867 12.3219 82.7202 14.3529 82.7202H48.1513C50.1302 82.7202 51.7967 84.3346 51.7967 86.3657V86.574C51.7446 88.605 50.1302 90.2194 48.1513 90.2194ZM14.3009 84.8554C13.4676 84.8554 12.7906 85.5324 12.7906 86.3657V86.574C12.7906 87.4072 13.4676 88.0842 14.3009 88.0842H48.0992C48.9325 88.0842 49.6095 87.4072 49.6095 86.574V86.3657C49.6095 85.5324 48.9325 84.8554 48.0992 84.8554H14.3009Z" fill="#5F3B28" stroke="#5F3B28"/>
<path d="M85.3804 89.723C87.1131 89.723 88.5178 88.28 88.5178 86.5C88.5178 84.72 87.1131 83.277 85.3804 83.277C83.6476 83.277 82.2429 84.72 82.2429 86.5C82.2429 88.28 83.6476 89.723 85.3804 89.723Z" fill="#EB6134"/>
<path d="M85.3806 91C82.9535 91 81 88.9932 81 86.5C81 84.0068 82.9535 82 85.3806 82C87.8077 82 89.7612 84.0068 89.7612 86.5C89.7612 88.9932 87.8077 91 85.3806 91ZM85.3806 84.4932C84.315 84.4932 83.4271 85.4054 83.4271 86.5C83.4271 87.5946 84.315 88.5068 85.3806 88.5068C86.4461 88.5068 87.3341 87.5946 87.3341 86.5C87.3341 85.4054 86.4461 84.4932 85.3806 84.4932Z" fill="#5F3B28"/>
<path d="M76.4926 86.5C76.4926 88.2635 75.0767 89.723 73.3658 89.723C71.6549 89.723 70.239 88.2635 70.239 86.5C70.239 84.7365 71.6549 83.277 73.3658 83.277C75.0767 83.277 76.4926 84.7365 76.4926 86.5Z" fill="#00A6C5"/>
<path d="M73.3657 91C70.9469 91 69 88.9932 69 86.5C69 84.0068 70.9469 82 73.3657 82C75.7846 82 77.7314 84.0068 77.7314 86.5C77.7314 88.9932 75.7846 91 73.3657 91ZM73.3657 84.4932C72.3038 84.4932 71.4188 85.4054 71.4188 86.5C71.4188 87.5946 72.3038 88.5068 73.3657 88.5068C74.4276 88.5068 75.3126 87.5946 75.3126 86.5C75.3126 85.4054 74.4276 84.4932 73.3657 84.4932Z" fill="#5F3B28"/>
<path d="M24.797 76H11.203C10.5414 76 10 75.3209 10 74.4909C10 73.6608 10.5414 72.9817 11.203 72.9817H24.797C25.4586 72.9817 26 73.6608 26 74.4909C26 75.3209 25.4586 76 24.797 76Z" fill="#5F3B28"/>
<path d="M42.1831 36.1629C42.1831 40.449 45.6879 43.9537 49.974 43.9537C54.2532 43.9537 57.7689 40.5061 57.6607 36.156C57.6569 35.3102 56.9658 34.6213 56.1191 34.6213C55.2701 34.6213 54.5776 35.3139 54.5776 36.1629C54.5776 38.751 52.51 40.8186 49.9219 40.8186C47.3338 40.8186 45.2662 38.751 45.2662 36.1629C45.2662 35.3139 44.5737 34.6213 43.7247 34.6213C42.8757 34.6213 42.1831 35.3139 42.1831 36.1629Z" fill="#F5ECDC" stroke="#F5ECDC"/>
<path d="M64.7117 34.9443C65.9253 34.9443 66.9303 33.9393 66.9303 32.7258C66.9303 31.5122 65.9253 30.5072 64.7117 30.5072C63.4982 30.5072 62.4932 31.5122 62.4932 32.7258C62.4932 33.9393 63.4982 34.9443 64.7117 34.9443Z" fill="#F5ECDC" stroke="#F5ECDC"/>
<path d="M68.0238 32.7424L68.024 32.7341V32.7258C68.024 30.8873 66.5503 29.4136 64.7118 29.4136C62.8734 29.4136 61.3997 30.8873 61.3997 32.7258C61.3997 34.5642 62.8734 36.038 64.7118 36.038C66.5071 36.038 67.9632 34.5587 68.0238 32.7424ZM64.5348 32.7258C64.5348 32.6374 64.6234 32.5488 64.7118 32.5488C64.7407 32.5488 64.7701 32.5581 64.8045 32.5944C64.8371 32.6288 64.8688 32.6841 64.8858 32.7544C64.8696 32.8324 64.7906 32.9028 64.7118 32.9028C64.6234 32.9028 64.5348 32.8142 64.5348 32.7258Z" fill="#F5ECDC" stroke="#F5ECDC"/>
<path d="M33.0693 32.7258C33.0693 33.9393 34.0744 34.9443 35.2879 34.9443C36.5014 34.9443 37.5065 33.9393 37.5065 32.7258C37.5065 31.5122 36.5014 30.5072 35.2879 30.5072C34.0124 30.5072 33.0693 31.5222 33.0693 32.7258Z" fill="#F5ECDC" stroke="#F5ECDC"/>
<path d="M38.5999 32.7424L38.6002 32.7341V32.7258C38.6002 30.8873 37.1265 29.4136 35.288 29.4136C33.4495 29.4136 31.9758 30.8873 31.9758 32.7258C31.9758 34.5642 33.4495 36.038 35.288 36.038C37.0832 36.038 38.5394 34.5587 38.5999 32.7424ZM35.111 32.7258C35.111 32.6374 35.1996 32.5488 35.288 32.5488C35.3169 32.5488 35.3463 32.5581 35.3807 32.5944C35.4133 32.6288 35.445 32.6841 35.462 32.7544C35.4458 32.8324 35.3668 32.9028 35.288 32.9028C35.1996 32.9028 35.111 32.8142 35.111 32.7258Z" fill="#F5ECDC" stroke="#F5ECDC"/>
</svg>
