<svg width="100" height="100" viewBox="0 0 100 100" fill="none" xmlns="http://www.w3.org/2000/svg">
<g clip-path="url(#clip0_36_6459)">
<path d="M84.0122 66.7743H15.9347C14.4455 66.7743 13.2754 65.6129 13.2754 64.1348V4.6952C13.2754 3.21713 14.4455 2.05579 15.9347 2.05579H84.0122C85.5014 2.05579 86.6715 3.21713 86.6715 4.6952V64.1348C86.6715 65.6129 85.5014 66.7743 84.0122 66.7743Z" fill="#F5ECDC" stroke="#5F3B28" stroke-width="2.04255"/>
<path d="M81.2466 67.83H18.7003C15.1369 67.83 12.2117 64.9266 12.2117 61.3898V7.44017C12.2117 3.90336 15.1369 1 18.7003 1H81.2466C84.81 1 87.7352 3.90336 87.7352 7.44017V61.3898C87.7884 64.9266 84.8632 67.83 81.2466 67.83ZM18.7003 3.16432C16.307 3.16432 14.3391 5.11749 14.3391 7.49296V61.4426C14.3391 63.8181 16.307 65.7712 18.7003 65.7712H81.2466C83.6399 65.7712 85.6078 63.8181 85.6078 61.4426V7.44017C85.6078 5.0647 83.6399 3.11153 81.2466 3.11153H18.7003V3.16432Z" fill="#5F3B28" stroke="#5F3B28" stroke-width="2.04255"/>
<path d="M78.1618 10.5019H21.7319V58.3809H78.1618V10.5019Z" fill="#00A6C5" stroke="#5F3B28" stroke-width="2.04255"/>
<path d="M78.215 59.4367H21.7319C21.1469 59.4367 20.6682 58.9616 20.6682 58.3809V10.5019C20.6682 9.92123 21.1469 9.44614 21.7319 9.44614H78.1618C78.7469 9.44614 79.2256 9.92123 79.2256 10.5019V58.3809C79.2787 58.9616 78.8001 59.4367 78.215 59.4367ZM22.8488 57.2723H77.1513V11.5577H22.8488V57.2723Z" fill="#5F3B28" stroke="#5F3B28" stroke-width="2.04255"/>
<path d="M94.277 97.4442H5.723C4.2338 97.4442 3.06372 96.2829 3.06372 94.8048V69.4136C3.06372 67.9356 4.2338 66.7742 5.723 66.7742H94.277C95.7662 66.7742 96.9363 67.9356 96.9363 69.4136V94.8048C96.9363 96.2829 95.713 97.4442 94.277 97.4442Z" fill="#F5ECDC" stroke="#5F3B28" stroke-width="2.04255"/>
<path d="M91.5114 98.5H8.48863C4.9252 98.5 2 95.5967 2 92.0598V72.1587C2 68.6218 4.9252 65.7185 8.48863 65.7185H91.5114C95.0748 65.7185 98 68.6218 98 72.1587V92.0598C98 95.6494 95.0748 98.5 91.5114 98.5ZM8.48863 67.83C6.09528 67.83 4.12742 69.7832 4.12742 72.1587V92.0598C4.12742 94.4353 6.09528 96.3885 8.48863 96.3885H91.5114C93.9047 96.3885 95.8726 94.4353 95.8726 92.0598V72.1587C95.8726 69.7832 93.9047 67.83 91.5114 67.83H8.48863Z" fill="#5F3B28" stroke="#5F3B28" stroke-width="2.04255"/>
<path d="M48.112 90.4234H13.5946C11.5735 90.4234 9.87158 88.787 9.87158 86.7282V86.517C9.87158 84.5111 11.5203 82.8219 13.5946 82.8219H48.112C50.1331 82.8219 51.835 84.4583 51.835 86.517V86.7282C51.7818 88.787 50.1331 90.4234 48.112 90.4234ZM13.5414 84.9862C12.6904 84.9862 11.999 85.6724 11.999 86.517V86.7282C11.999 87.5728 12.6904 88.2591 13.5414 88.2591H48.0589C48.9098 88.2591 49.6012 87.5728 49.6012 86.7282V86.517C49.6012 85.6724 48.9098 84.9862 48.0589 84.9862H13.5414Z" fill="#5F3B28" stroke="#5F3B28" stroke-width="1.02128"/>
<path d="M86.1334 89.9202C87.903 89.9202 89.3376 88.4575 89.3376 86.6532C89.3376 84.8489 87.903 83.3862 86.1334 83.3862C84.3638 83.3862 82.9292 84.8489 82.9292 86.6532C82.9292 88.4575 84.3638 89.9202 86.1334 89.9202Z" fill="#EB6134"/>
<path d="M86.1334 91.2146C83.6547 91.2146 81.6597 89.1805 81.6597 86.6532C81.6597 84.1259 83.6547 82.0918 86.1334 82.0918C88.6122 82.0918 90.6073 84.1259 90.6073 86.6532C90.6073 89.1805 88.6122 91.2146 86.1334 91.2146ZM86.1334 84.6191C85.0452 84.6191 84.1384 85.5437 84.1384 86.6532C84.1384 87.7627 85.0452 88.6873 86.1334 88.6873C87.2217 88.6873 88.1285 87.7627 88.1285 86.6532C88.1285 85.5437 87.2217 84.6191 86.1334 84.6191Z" fill="#5F3B28"/>
<path d="M77.0563 86.6532C77.0563 88.4408 75.6103 89.9202 73.863 89.9202C72.1157 89.9202 70.6697 88.4408 70.6697 86.6532C70.6697 84.8656 72.1157 83.3862 73.863 83.3862C75.6103 83.3862 77.0563 84.8656 77.0563 86.6532Z" fill="#00A6C5"/>
<path d="M73.8629 91.2146C71.3926 91.2146 69.4043 89.1805 69.4043 86.6532C69.4043 84.1259 71.3926 82.0918 73.8629 82.0918C76.3332 82.0918 78.3215 84.1259 78.3215 86.6532C78.3215 89.1805 76.3332 91.2146 73.8629 91.2146ZM73.8629 84.6191C72.7784 84.6191 71.8746 85.5437 71.8746 86.6532C71.8746 87.7627 72.7784 88.6873 73.8629 88.6873C74.9474 88.6873 75.8512 87.7627 75.8512 86.6532C75.8512 85.5437 74.9474 84.6191 73.8629 84.6191Z" fill="#5F3B28"/>
<path d="M24.2607 76.0099H10.3775C9.7018 76.0099 9.14893 75.3215 9.14893 74.4802C9.14893 73.6388 9.7018 72.9504 10.3775 72.9504H24.2607C24.9365 72.9504 25.4894 73.6388 25.4894 74.4802C25.4894 75.3215 24.9365 76.0099 24.2607 76.0099Z" fill="#5F3B28"/>
<path d="M42.0167 35.6291C42.0167 39.9795 45.5996 43.5301 49.9733 43.5301C54.3399 43.5301 57.9343 40.0375 57.8236 35.622C57.8197 34.759 57.1103 34.0627 56.2492 34.0627C55.3858 34.0627 54.6749 34.7628 54.6749 35.6291C54.6749 38.2469 52.567 40.3445 49.9202 40.3445C47.2733 40.3445 45.1654 38.2469 45.1654 35.6291C45.1654 34.7628 44.4545 34.0627 43.5911 34.0627C42.7276 34.0627 42.0167 34.7628 42.0167 35.6291Z" fill="#F5ECDC" stroke="#F5ECDC" stroke-width="1.02128"/>
<path d="M65.0249 34.3977C66.2607 34.3977 67.2907 33.3809 67.2907 32.1451C67.2907 30.9093 66.2607 29.8924 65.0249 29.8924C63.7892 29.8924 62.7591 30.9093 62.7591 32.1451C62.7591 33.3809 63.7892 34.3977 65.0249 34.3977Z" fill="#F5ECDC" stroke="#F5ECDC" stroke-width="1.02128"/>
<path d="M68.4072 32.1622L68.4075 32.1537V32.1451C68.4075 30.2758 66.8988 28.7839 65.0249 28.7839C63.1509 28.7839 61.6422 30.2758 61.6422 32.1451C61.6422 34.0144 63.1509 35.5063 65.0249 35.5063C66.8548 35.5063 68.3452 34.0087 68.4072 32.1622ZM64.8441 32.1451C64.8441 32.1094 64.8599 32.0649 64.8992 32.0258C64.9385 31.9868 64.9852 31.9695 65.0249 31.9695C65.0557 31.9695 65.0861 31.9795 65.1208 32.016C65.1535 32.0502 65.1851 32.1048 65.2023 32.1742C65.1959 32.2034 65.1796 32.2354 65.1504 32.2644C65.1111 32.3034 65.0645 32.3207 65.0249 32.3207C64.9852 32.3207 64.9385 32.3034 64.8992 32.2644C64.8599 32.2253 64.8441 32.1808 64.8441 32.1451Z" fill="#F5ECDC" stroke="#F5ECDC" stroke-width="1.02128"/>
<path d="M32.7093 32.1451C32.7093 33.3809 33.7394 34.3977 34.9751 34.3977C36.2109 34.3977 37.2409 33.3809 37.2409 32.1451C37.2409 30.9093 36.2109 29.8924 34.9751 29.8924C33.6761 29.8924 32.7093 30.9194 32.7093 32.1451Z" fill="#F5ECDC" stroke="#F5ECDC" stroke-width="1.02128"/>
<path d="M38.3574 32.1622L38.3577 32.1537V32.1451C38.3577 30.2758 36.849 28.7839 34.975 28.7839C33.1011 28.7839 31.5924 30.2758 31.5924 32.1451C31.5924 34.0144 33.1011 35.5063 34.975 35.5063C36.805 35.5063 38.2954 34.0087 38.3574 32.1622ZM34.7943 32.1451C34.7943 32.1094 34.8101 32.0649 34.8494 32.0258C34.8887 31.9868 34.9354 31.9695 34.975 31.9695C35.0059 31.9695 35.0363 31.9795 35.071 32.016C35.1037 32.0502 35.1353 32.1048 35.1525 32.1742C35.1461 32.2034 35.1298 32.2354 35.1006 32.2644C35.0613 32.3034 35.0147 32.3207 34.975 32.3207C34.9354 32.3207 34.8887 32.3034 34.8494 32.2644C34.8101 32.2253 34.7943 32.1808 34.7943 32.1451Z" fill="#F5ECDC" stroke="#F5ECDC" stroke-width="1.02128"/>
</g>
<defs>
<clipPath id="clip0_36_6459">
<rect width="100" height="100" fill="white"/>
</clipPath>
</defs>
</svg>
