<svg width="200" height="200" viewBox="0 0 200 200" fill="none" xmlns="http://www.w3.org/2000/svg">
<path d="M166.607 133.777H33.2883C30.372 133.777 28.0806 131.486 28.0806 128.57V11.2909C28.0806 8.37451 30.372 6.0831 33.2883 6.0831H166.607C169.523 6.0831 171.815 8.37451 171.815 11.2909V128.57C171.815 131.486 169.523 133.777 166.607 133.777Z" fill="#F5ECDC" stroke="#5F3B28" stroke-width="4"/>
<path d="M161.191 135.86H38.7045C31.7261 135.86 25.9976 130.132 25.9976 123.153V16.7069C25.9976 9.72853 31.7261 4 38.7045 4H161.191C168.169 4 173.898 9.72853 173.898 16.7069V123.153C174.002 130.132 168.273 135.86 161.191 135.86ZM38.7045 8.27036C34.0175 8.27036 30.1638 12.1241 30.1638 16.8111V123.258C30.1638 127.945 34.0175 131.798 38.7045 131.798H161.191C165.878 131.798 169.732 127.945 169.732 123.258V16.7069C169.732 12.0199 165.878 8.16621 161.191 8.16621H38.7045V8.27036Z" fill="#5F3B28" stroke="#5F3B28" stroke-width="4"/>
<path d="M155.15 22.7479H44.6416V117.217H155.15V22.7479Z" fill="#5F3B28" stroke="#5F3B28" stroke-width="4"/>
<path d="M155.254 119.3H44.6417C43.496 119.3 42.5586 118.362 42.5586 117.217V22.7479C42.5586 21.6022 43.496 20.6648 44.6417 20.6648H155.15C156.296 20.6648 157.233 21.6022 157.233 22.7479V117.217C157.338 118.362 156.4 119.3 155.254 119.3ZM46.8289 115.029H153.171V24.831H46.8289V115.029Z" fill="#5F3B28" stroke="#5F3B28" stroke-width="4"/>
<path d="M186.709 194.291H13.2908C10.3744 194.291 8.08301 192 8.08301 189.084V138.985C8.08301 136.069 10.3744 133.777 13.2908 133.777H186.709C189.625 133.777 191.917 136.069 191.917 138.985V189.084C191.917 192 189.521 194.291 186.709 194.291Z" fill="#F5ECDC" stroke="#5F3B28" stroke-width="4"/>
<path d="M181.293 196.375H18.7069C11.7285 196.375 6 190.646 6 183.668V144.401C6 137.423 11.7285 131.694 18.7069 131.694H181.293C188.272 131.694 194 137.423 194 144.401V183.668C194 190.75 188.272 196.375 181.293 196.375ZM18.7069 135.86C14.0199 135.86 10.1662 139.714 10.1662 144.401V183.668C10.1662 188.355 14.0199 192.208 18.7069 192.208H181.293C185.98 192.208 189.834 188.355 189.834 183.668V144.401C189.834 139.714 185.98 135.86 181.293 135.86H18.7069Z" fill="#5F3B28" stroke="#5F3B28" stroke-width="4"/>
<path d="M96.3026 180.439H28.7059C24.748 180.439 21.415 177.21 21.415 173.148V172.731C21.415 168.773 24.6438 165.44 28.7059 165.44H96.3026C100.26 165.44 103.593 168.669 103.593 172.731V173.148C103.489 177.21 100.26 180.439 96.3026 180.439ZM28.6017 169.711C26.9353 169.711 25.5812 171.065 25.5812 172.731V173.148C25.5812 174.814 26.9353 176.168 28.6017 176.168H96.1984C97.8649 176.168 99.2189 174.814 99.2189 173.148V172.731C99.2189 171.065 97.8649 169.711 96.1984 169.711H28.6017Z" fill="#5F3B28" stroke="#5F3B28" stroke-width="2"/>
<path d="M170.761 179.446C174.226 179.446 177.036 176.56 177.036 173C177.036 169.44 174.226 166.554 170.761 166.554C167.295 166.554 164.486 169.44 164.486 173C164.486 176.56 167.295 179.446 170.761 179.446Z" fill="#5F3B28"/>
<path d="M170.761 182C165.907 182 162 177.986 162 173C162 168.014 165.907 164 170.761 164C175.615 164 179.522 168.014 179.522 173C179.522 177.986 175.615 182 170.761 182ZM170.761 168.986C168.63 168.986 166.854 170.811 166.854 173C166.854 175.189 168.63 177.014 170.761 177.014C172.892 177.014 174.668 175.189 174.668 173C174.668 170.811 172.892 168.986 170.761 168.986Z" fill="#5F3B28"/>
<path d="M152.985 173C152.985 176.527 150.153 179.446 146.732 179.446C143.31 179.446 140.478 176.527 140.478 173C140.478 169.473 143.31 166.554 146.732 166.554C150.153 166.554 152.985 169.473 152.985 173Z" fill="#5F3B28"/>
<path d="M146.731 182C141.894 182 138 177.986 138 173C138 168.014 141.894 164 146.731 164C151.569 164 155.463 168.014 155.463 173C155.463 177.986 151.569 182 146.731 182ZM146.731 168.986C144.608 168.986 142.838 170.811 142.838 173C142.838 175.189 144.608 177.014 146.731 177.014C148.855 177.014 150.625 175.189 150.625 173C150.625 170.811 148.855 168.986 146.731 168.986Z" fill="#5F3B28"/>
<path d="M49.594 152H22.406C21.0827 152 20 150.642 20 148.982C20 147.322 21.0827 145.963 22.406 145.963H49.594C50.9173 145.963 52 147.322 52 148.982C52 150.642 50.9173 152 49.594 152Z" fill="#5F3B28"/>
<path d="M115.326 84.8244C115.326 76.2521 108.316 69.2427 99.744 69.2427C91.1854 69.2427 84.154 76.1379 84.3706 84.8381C84.378 86.5298 85.7602 87.9075 87.4536 87.9075C89.1516 87.9075 90.5367 86.5224 90.5367 84.8244C90.5367 79.6481 94.6718 75.513 99.8481 75.513C105.024 75.513 109.159 79.6481 109.159 84.8244C109.159 86.5224 110.545 87.9075 112.243 87.9075C113.941 87.9075 115.326 86.5224 115.326 84.8244Z" fill="#F5ECDC" stroke="#F5ECDC" stroke-width="2"/>
<path d="M129.424 69.8887C131.852 69.8887 133.862 67.8786 133.862 65.4515C133.862 63.0245 131.852 61.0144 129.424 61.0144C126.997 61.0144 124.987 63.0245 124.987 65.4515C124.987 67.8786 126.997 69.8887 129.424 69.8887Z" fill="#F5ECDC" stroke="#F5ECDC" stroke-width="2"/>
<path d="M136.048 65.4848L136.048 65.4682V65.4515C136.048 61.7746 133.101 58.8271 129.424 58.8271C125.747 58.8271 122.799 61.7746 122.799 65.4515C122.799 69.1285 125.747 72.0759 129.424 72.0759C133.014 72.0759 135.926 69.1174 136.048 65.4848ZM129.07 65.4515C129.07 65.2747 129.247 65.0975 129.424 65.0975C129.481 65.0975 129.54 65.1161 129.609 65.1889C129.674 65.2576 129.738 65.3681 129.772 65.5089C129.739 65.6647 129.581 65.8056 129.424 65.8056C129.247 65.8056 129.07 65.6283 129.07 65.4515Z" fill="#F5ECDC" stroke="#F5ECDC" stroke-width="2"/>
<path d="M66.1396 65.4515C66.1396 67.8786 68.1497 69.8887 70.5768 69.8887C73.0039 69.8887 75.0139 67.8786 75.0139 65.4515C75.0139 63.0245 73.0039 61.0144 70.5768 61.0144C68.0258 61.0144 66.1396 63.0444 66.1396 65.4515Z" fill="#F5ECDC" stroke="#F5ECDC" stroke-width="2"/>
<path d="M77.1998 65.4848L77.2004 65.4682V65.4515C77.2004 61.7746 74.253 58.8271 70.576 58.8271C66.8991 58.8271 63.9517 61.7746 63.9517 65.4515C63.9517 69.1285 66.8991 72.0759 70.576 72.0759C74.1665 72.0759 77.0788 69.1174 77.1998 65.4848ZM70.222 65.4515C70.222 65.2747 70.3992 65.0975 70.576 65.0975C70.6337 65.0975 70.6925 65.1161 70.7614 65.1889C70.8266 65.2576 70.89 65.3681 70.924 65.5089C70.8916 65.6647 70.7336 65.8056 70.576 65.8056C70.3992 65.8056 70.222 65.6283 70.222 65.4515Z" fill="#F5ECDC" stroke="#F5ECDC" stroke-width="2"/>
</svg>
