<svg width="77" height="77" viewBox="0 0 77 77" fill="none" xmlns="http://www.w3.org/2000/svg">
<path d="M51.3999 34.7C51.3999 40.1 48.8 45 44.8 48C42 50.1 38.5 51.4 34.7 51.4C25.5 51.4 18 43.9 18 34.7C18 25.5 25.5 18 34.7 18C43.9 18 51.3999 25.4 51.3999 34.7Z" stroke="#5F3B28" stroke-width="4.9091" stroke-miterlimit="10"/>
<path d="M56.3 65.1C55.6 65.1 54.8998 64.8 54.3998 64.2L42.8998 49.5C42.0998 48.4 42.2 46.9 43.3 46.1C44.4 45.3 45.8999 45.4 46.6999 46.5L58.1999 61.2C58.9999 62.3 58.9 63.8 57.8 64.6C57.4 64.9 56.9 65.1 56.3 65.1Z" fill="#5F3B28"/>
</svg>
