<svg width="100" height="100" viewBox="0 0 100 100" fill="none" xmlns="http://www.w3.org/2000/svg">
<path d="M36.6331 23.208C35.7961 16.3119 30.85 11 24.9909 11H7.33735C4.90238 11 3 13.423 3 16.3119V23.208V40.914V89H81.9084C84.039 89 85.7131 86.9498 85.7131 84.3405V29.7313C85.7131 26.0969 83.2781 23.208 80.3866 23.208H36.6331Z" fill="#F8AC00" stroke="#5F3B28" stroke-width="4" stroke-miterlimit="10"/>
<path d="M82.441 89L4 88.1552L15.8597 35.4158C16.3924 33.0861 18.1425 31.5951 20.0448 31.5951H93.6267C96.5943 31.5951 98.6488 35.043 97.8118 38.491L86.6262 85.1793C86.0935 87.4158 84.3434 89 82.441 89Z" fill="#F8AC00" stroke="#5F3B28" stroke-width="4" stroke-miterlimit="10"/>
</svg>
