<svg width="100" height="100" viewBox="0 0 100 100" fill="none" xmlns="http://www.w3.org/2000/svg">
<path d="M36.7498 20.4601C35.9099 12.8567 30.9466 7 25.0672 7H7.3524C4.90898 7 3 9.67152 3 12.8567V20.4601V39.9822V93H82.1822C84.3201 93 86 90.7395 86 87.8626V27.6524C86 23.6452 83.5566 20.4601 80.655 20.4601H36.7498Z" fill="#F8AC00" stroke="#5F3B28" stroke-width="4" stroke-miterlimit="10"/>
<path d="M12.5 77.9821H76.3C83.4815 77.9821 89.3 72.108 89.3 64.8194V22.5089C89.3 20.8169 87.9841 19.4662 86.3 19.4662H12.5C10.8159 19.4662 9.5 20.8169 9.5 22.5089V74.9394C9.5 76.6314 10.8159 77.9821 12.5 77.9821Z" fill="#EBE1D8" stroke="#5F3B28"/>
<path d="M14.6 21.5192V21.5342H15.1H83.65C85.6159 21.5342 87.25 23.1839 87.25 25.2042V51.6483C87.25 65.0598 76.5159 75.965 63.35 75.965H15.1C13.1341 75.965 11.5 74.3153 11.5 72.295V25.1533C11.5 23.3071 12.8646 21.7704 14.6 21.5192ZM15.1 79.05H63.35C78.2347 79.05 90.3 66.7143 90.3 51.6483V25.2042C90.3 21.5288 87.3341 18.5 83.7 18.5H15.1C11.4659 18.5 8.5 21.5288 8.5 25.2042V72.3458C8.5 76.0212 11.4659 79.05 15.1 79.05Z" fill="#5F3B28" stroke="#5F3B28"/>
<path d="M82.441 93L4 92.1022L15.8597 36.06C16.3924 33.5844 18.1425 32 20.0448 32H93.6267C96.5943 32 98.6488 35.6639 97.8118 39.3278L86.6262 88.94C86.0935 91.3166 84.3434 93 82.441 93Z" fill="#F8AC00" stroke="#5F3B28" stroke-width="4" stroke-miterlimit="10"/>
</svg>
