<svg width="100" height="100" viewBox="0 0 100 100" fill="none" xmlns="http://www.w3.org/2000/svg">
<path d="M97 18.2913V81.7084C97 90.1515 90.1517 96.9999 81.7085 96.9999H18.2915C9.84834 96.9999 3 90.1515 3 81.7084V18.2913C3 9.84823 9.84834 3 18.2915 3H81.7085C90.1517 3.09381 97 9.84823 97 18.2913Z" fill="#FF8F8C" stroke="#5F3B28" stroke-width="3.95789" stroke-miterlimit="10" stroke-linecap="round" stroke-linejoin="round"/>
<path d="M28.9477 77.2993C28.1034 77.1117 27.3529 76.9241 26.5086 76.6427C22.287 75.1417 19.6603 70.9201 20.0355 66.4171C20.4108 62.0079 23.6943 58.2555 28.1035 57.4111C31.1055 56.8483 33.826 57.5049 36.2651 59.3812C36.3589 59.475 36.4527 59.5688 36.7342 59.7564C36.7342 59.475 36.7342 59.1935 36.7342 59.0059C36.7342 49.3432 36.7342 39.6805 36.7342 30.0179C36.7342 29.5488 36.8279 29.2674 37.3908 29.1735C49.2112 26.1716 60.9378 23.1696 72.7581 20.2614C72.9457 20.2614 73.0395 20.1676 73.321 20.1676C73.321 20.3552 73.321 20.5428 73.321 20.7304C73.321 33.4889 73.321 46.2474 73.321 59.0059C73.321 63.5089 70.7881 67.2614 66.5665 68.7624C60.844 70.8263 54.2771 66.8862 53.4328 60.7884C52.6823 55.4411 55.8719 50.7505 61.1254 49.4371C64.1274 48.6866 66.9417 49.4371 69.4747 51.3133C69.6623 51.4072 69.7561 51.5009 69.9437 51.6885C69.9437 46.2474 69.9437 40.8063 69.9437 35.2713C68.5366 35.6466 67.1294 36.0219 65.7222 36.3972C57.4667 38.461 49.1174 40.6187 40.8619 42.6825C40.2991 42.7764 40.2052 42.964 40.2052 43.5269C40.2052 51.4071 40.2052 59.1935 40.2052 67.0737C40.2052 71.0139 38.5166 74.0159 35.1394 75.9859C34.1075 76.6426 32.8878 77.0179 31.6683 77.2055C31.4807 77.2055 31.3868 77.2993 31.293 77.2993C30.3549 77.2993 29.6982 77.2993 28.9477 77.2993Z" fill="#F5ECDC"/>
</svg>
