<svg width="100" height="100" viewBox="0 0 100 100" fill="none" xmlns="http://www.w3.org/2000/svg">
<path d="M78.4524 31.8099V92.7873C78.4524 95.0678 76.6063 96.914 74.3257 96.914H19.2126C16.9321 96.914 15.0859 95.0678 15.0859 92.7873V14.3258C15.0859 12.0452 16.9321 10.1991 19.2126 10.1991H56.8416L78.4524 31.8099Z" fill="#5F3B28" stroke="#5F3B28" stroke-width="1.5"/>
<path d="M74.3258 98H19.2127C16.3348 98 14 95.6651 14 92.7873V14.3258C14 11.448 16.3348 9.11313 19.2127 9.11313H56.8416C57.1131 9.11313 57.4389 9.22171 57.6018 9.43891L79.2127 31.0498C79.4299 31.2669 79.5385 31.5385 79.5385 31.8099V92.7873C79.5385 95.6651 77.2036 98 74.3258 98ZM19.2127 11.2851C17.5294 11.2851 16.2262 12.6425 16.2262 14.2715V92.733C16.2262 94.4163 17.5837 95.7194 19.2127 95.7194H74.3258C76.009 95.7194 77.3122 94.362 77.3122 92.733V32.2986L56.3529 11.3394H19.2127V11.2851Z" fill="#5F3B28" stroke="#5F3B28" stroke-width="1.5"/>
<path d="M85.5113 24.7511V85.7285C85.5113 88.009 83.6651 89.8552 81.3846 89.8552H26.2715C23.9909 89.8552 22.1448 88.009 22.1448 85.7285V7.21267C22.1448 4.93212 23.9909 3.08597 26.2715 3.08597H63.9004L85.5113 24.7511Z" fill="#F5ECDC" stroke="#5F3B28" stroke-width="1.5"/>
<path d="M81.3846 90.9412H26.2715C23.3937 90.9412 21.0588 88.6063 21.0588 85.7285V7.21267C21.0588 4.33484 23.3937 2 26.2715 2H63.9005C64.172 2 64.4977 2.1086 64.6606 2.3258L86.2715 23.9366C86.4887 24.1538 86.5973 24.4253 86.5973 24.6968V85.6742C86.6516 88.6063 84.2625 90.9412 81.3846 90.9412ZM26.2715 4.22625C24.5882 4.22625 23.2851 5.58371 23.2851 7.21267V85.6742C23.2851 87.3575 24.6425 88.6606 26.2715 88.6606H81.3846C83.0679 88.6606 84.3711 87.3032 84.3711 85.6742V25.1855L63.4118 4.22625H26.2715Z" fill="#5F3B28" stroke="#5F3B28" stroke-width="1.5"/>
<path d="M85.6199 24.6425L68.1357 24.8598C65.8552 24.8598 64.009 23.0679 63.9547 20.7874L63.7375 3.30319L85.6199 24.6425Z" fill="#F5ECDC" stroke="#5F3B28" stroke-width="1.5"/>
<path d="M68.0815 25.9457C66.724 25.9457 65.4208 25.4027 64.4435 24.4796C63.4661 23.5023 62.8688 22.1991 62.8688 20.7873L62.6516 3.30318C62.6516 2.86879 62.9231 2.4344 63.3032 2.27151C63.7376 2.10861 64.172 2.16291 64.4978 2.4887L86.3258 23.8824C86.6516 24.2082 86.7602 24.6968 86.5973 25.0769C86.4344 25.5113 86.0543 25.7828 85.5656 25.7828L68.0815 26C68.1358 25.9457 68.1358 25.9457 68.0815 25.9457ZM64.9322 5.90951L65.095 20.733C65.095 21.5475 65.4208 22.3077 66.0181 22.8507C66.6154 23.3937 67.3213 23.7195 68.1358 23.7195L82.9593 23.5566L64.9322 5.90951Z" fill="#5F3B28" stroke="#5F3B28" stroke-width="1.5"/>
<path d="M74.7058 77.6923H32.9502" stroke="#5F3B28" stroke-width="1.5"/>
<path d="M74.7059 78.8325H32.9502C32.3529 78.8325 31.8643 78.3439 31.8643 77.7466C31.8643 77.1493 32.3529 76.6606 32.9502 76.6606H74.7059C75.3032 76.6606 75.7919 77.1493 75.7919 77.7466C75.8462 78.3439 75.3032 78.8325 74.7059 78.8325Z" fill="#5F3B28" stroke="#5F3B28" stroke-width="1.5"/>
<path d="M74.7058 67.104H32.9502" stroke="#5F3B28" stroke-width="1.5"/>
<path d="M74.7059 68.19H32.9502C32.3529 68.19 31.8643 67.7013 31.8643 67.1041C31.8643 66.5068 32.3529 66.0181 32.9502 66.0181H74.7059C75.3032 66.0181 75.7919 66.5068 75.7919 67.1041C75.8462 67.7013 75.3032 68.19 74.7059 68.19Z" fill="#5F3B28" stroke="#5F3B28" stroke-width="1.5"/>
<path d="M74.7058 56.4615H32.9502" stroke="#5F3B28" stroke-width="1.5"/>
<path d="M74.7059 57.5475H32.9502C32.3529 57.5475 31.8643 57.0588 31.8643 56.4615C31.8643 55.8643 32.3529 55.3756 32.9502 55.3756H74.7059C75.3032 55.3756 75.7919 55.8643 75.7919 56.4615C75.8462 57.0588 75.3032 57.5475 74.7059 57.5475Z" fill="#5F3B28" stroke="#5F3B28" stroke-width="1.5"/>
<path d="M74.7058 45.819H32.9502" stroke="#5F3B28" stroke-width="1.5"/>
<path d="M74.7059 46.9593H32.9502C32.3529 46.9593 31.8643 46.4706 31.8643 45.8733C31.8643 45.276 32.3529 44.7873 32.9502 44.7873H74.7059C75.3032 44.7873 75.7919 45.276 75.7919 45.8733C75.8462 46.4706 75.3032 46.9593 74.7059 46.9593Z" fill="#5F3B28" stroke="#5F3B28" stroke-width="1.5"/>
<path d="M74.7058 35.2307H32.9502" stroke="#5F3B28" stroke-width="1.5"/>
<path d="M74.7059 36.3167H32.9502C32.3529 36.3167 31.8643 35.828 31.8643 35.2307C31.8643 34.6335 32.3529 34.1448 32.9502 34.1448H74.7059C75.3032 34.1448 75.7919 34.6335 75.7919 35.2307C75.8462 35.828 75.3032 36.3167 74.7059 36.3167Z" fill="#5F3B28" stroke="#5F3B28" stroke-width="1.5"/>
</svg>
