<svg width="100" height="100" viewBox="0 0 100 100" fill="none" xmlns="http://www.w3.org/2000/svg">
<path d="M85.3936 30.8099V91.7873C85.3936 94.0678 83.5475 95.914 81.2669 95.914H26.1538C23.8733 95.914 22.0271 94.0678 22.0271 91.7873V13.3258C22.0271 11.0452 23.8733 9.1991 26.1538 9.1991H63.7827L85.3936 30.8099Z" fill="#5F3B28" stroke="#5F3B28" stroke-width="1.5"/>
<path d="M81.2669 97H26.1538C23.276 97 20.9412 94.6651 20.9412 91.7873V13.3258C20.9412 10.448 23.276 8.11313 26.1538 8.11313H63.7828C64.0543 8.11313 64.3801 8.22171 64.543 8.43891L86.1538 30.0498C86.371 30.2669 86.4796 30.5385 86.4796 30.8099V91.7873C86.4796 94.6651 84.1448 97 81.2669 97ZM26.1538 10.2851C24.4706 10.2851 23.1674 11.6425 23.1674 13.2715V91.733C23.1674 93.4163 24.5249 94.7194 26.1538 94.7194H81.2669C82.9502 94.7194 84.2534 93.362 84.2534 91.733V31.2986L63.2941 10.3394H26.1538V10.2851Z" fill="#5F3B28" stroke="#5F3B28" stroke-width="1.5"/>
<path d="M77.4524 25.7511V86.7285C77.4524 89.009 75.6063 90.8552 73.3257 90.8552H18.2126C15.9321 90.8552 14.0859 89.009 14.0859 86.7285V8.21267C14.0859 5.93212 15.9321 4.08597 18.2126 4.08597H55.8416L77.4524 25.7511Z" fill="#F5ECDC" stroke="#5F3B28" stroke-width="1.5"/>
<path d="M73.3258 91.9412H18.2127C15.3348 91.9412 13 89.6063 13 86.7285V8.21267C13 5.33484 15.3348 3 18.2127 3H55.8416C56.1131 3 56.4389 3.1086 56.6018 3.3258L78.2127 24.9366C78.4299 25.1538 78.5385 25.4253 78.5385 25.6968V86.6742C78.5928 89.6063 76.2036 91.9412 73.3258 91.9412ZM18.2127 5.22625C16.5294 5.22625 15.2262 6.58371 15.2262 8.21267V86.6742C15.2262 88.3575 16.5837 89.6606 18.2127 89.6606H73.3258C75.009 89.6606 76.3122 88.3032 76.3122 86.6742V26.1855L55.3529 5.22625H18.2127Z" fill="#5F3B28" stroke="#5F3B28" stroke-width="1.5"/>
<path d="M77.5611 25.6425L60.0769 25.8598C57.7964 25.8598 55.9502 24.0679 55.8959 21.7874L55.6787 4.30319L77.5611 25.6425Z" fill="#F5ECDC" stroke="#5F3B28" stroke-width="1.5"/>
<path d="M60.0226 26.9457C58.6652 26.9457 57.362 26.4027 56.3846 25.4796C55.4073 24.5023 54.81 23.1991 54.81 21.7873L54.5928 4.30318C54.5928 3.86879 54.8643 3.4344 55.2444 3.27151C55.6787 3.10861 56.1131 3.16291 56.4389 3.4887L78.267 24.8824C78.5928 25.2082 78.7014 25.6968 78.5385 26.0769C78.3756 26.5113 77.9955 26.7828 77.5068 26.7828L60.0226 27C60.0769 26.9457 60.0769 26.9457 60.0226 26.9457ZM56.8733 6.90951L57.0362 21.733C57.0362 22.5475 57.362 23.3077 57.9593 23.8507C58.5566 24.3937 59.2625 24.7195 60.0769 24.7195L74.9005 24.5566L56.8733 6.90951Z" fill="#5F3B28" stroke="#5F3B28" stroke-width="1.5"/>
<path d="M66.647 78.6923H24.8914" stroke="#5F3B28" stroke-width="1.5"/>
<path d="M66.647 79.8325H24.8914C24.2941 79.8325 23.8054 79.3439 23.8054 78.7466C23.8054 78.1493 24.2941 77.6606 24.8914 77.6606H66.647C67.2443 77.6606 67.733 78.1493 67.733 78.7466C67.7873 79.3439 67.2443 79.8325 66.647 79.8325Z" fill="#5F3B28" stroke="#5F3B28" stroke-width="1.5"/>
<path d="M66.647 68.104H24.8914" stroke="#5F3B28" stroke-width="1.5"/>
<path d="M66.647 69.19H24.8914C24.2941 69.19 23.8054 68.7013 23.8054 68.1041C23.8054 67.5068 24.2941 67.0181 24.8914 67.0181H66.647C67.2443 67.0181 67.733 67.5068 67.733 68.1041C67.7873 68.7013 67.2443 69.19 66.647 69.19Z" fill="#5F3B28" stroke="#5F3B28" stroke-width="1.5"/>
<path d="M66.647 57.4615H24.8914" stroke="#5F3B28" stroke-width="1.5"/>
<path d="M66.647 58.5475H24.8914C24.2941 58.5475 23.8054 58.0588 23.8054 57.4615C23.8054 56.8643 24.2941 56.3756 24.8914 56.3756H66.647C67.2443 56.3756 67.733 56.8643 67.733 57.4615C67.7873 58.0588 67.2443 58.5475 66.647 58.5475Z" fill="#5F3B28" stroke="#5F3B28" stroke-width="1.5"/>
<path d="M66.647 46.819H24.8914" stroke="#5F3B28" stroke-width="1.5"/>
<path d="M66.647 47.9593H24.8914C24.2941 47.9593 23.8054 47.4706 23.8054 46.8733C23.8054 46.276 24.2941 45.7873 24.8914 45.7873H66.647C67.2443 45.7873 67.733 46.276 67.733 46.8733C67.7873 47.4706 67.2443 47.9593 66.647 47.9593Z" fill="#5F3B28" stroke="#5F3B28" stroke-width="1.5"/>
<path d="M66.647 36.2307H24.8914" stroke="#5F3B28" stroke-width="1.5"/>
<path d="M66.647 37.3167H24.8914C24.2941 37.3167 23.8054 36.828 23.8054 36.2307C23.8054 35.6335 24.2941 35.1448 24.8914 35.1448H66.647C67.2443 35.1448 67.733 35.6335 67.733 36.2307C67.7873 36.828 67.2443 37.3167 66.647 37.3167Z" fill="#5F3B28" stroke="#5F3B28" stroke-width="1.5"/>
</svg>
