<svg width="55" height="65" viewBox="0 0 55 65" fill="none" xmlns="http://www.w3.org/2000/svg">
<path d="M25.5 27.9C25.5 19.9 25.5 12 25.5 4C32.3 9.7 38.9998 15.2 45.7998 20.8C40.9998 24.8 36.2999 28.8 31.3999 32.9C36.1999 36.9 40.9 40.9 45.7 45C39 50.6 32.2999 56.2 25.3999 61.9C25.3999 53.9 25.3999 45.9 25.3999 37.9C21.1999 41.5 17.0999 44.9 12.8999 48.4C11.8999 47.2 11 46.1 10 44.9C14.8 40.9 19.4998 36.9 24.2998 32.9C19.4998 28.9 14.8 24.9 10 20.9C11 19.7 11.8999 18.6 12.8999 17.4C17.0999 20.9 21.2 24.3 25.5 27.9ZM30.0999 37.6C30.0999 42.5 30.0999 47.2 30.0999 52.1C32.9999 49.7 35.9 47.3 38.7 44.9C35.8 42.5 32.9999 40.1 30.0999 37.6ZM30.0999 13.6C30.0999 18.4 30.0999 23.2 30.0999 28C32.9999 25.5 35.9 23.2 38.7 20.7C35.8 18.4 32.9999 16.1 30.0999 13.6Z" fill="#5F3B28"/>
</svg>
