<svg width="119" height="29" viewBox="0 0 119 29" fill="none" xmlns="http://www.w3.org/2000/svg">
<g clip-path="url(#clip0_28_1348)">
<path d="M94 27.2C93.4 27.2 92.7 27 92.2 26.5C91.2 25.5 91.2 23.9 92.2 22.9L113.7 1.40002C114.7 0.400024 116.3 0.400024 117.3 1.40002C118.3 2.40002 118.3 4 117.3 5L95.8 26.5C95.3 26.9 94.7 27.2 94 27.2Z" fill="#5F3B28"/>
<path d="M115.5 27.2C114.9 27.2 114.2 27 113.7 26.5L92.2 5C91.2 4 91.2 2.40002 92.2 1.40002C93.2 0.400024 94.8 0.400024 95.8 1.40002L117.3 22.9C118.3 23.9 118.3 25.5 117.3 26.5C116.8 26.9 116.1 27.2 115.5 27.2Z" fill="#5F3B28"/>
<path d="M73.8999 3.79999H50.8999V26.8H73.8999V3.79999Z" stroke="#5F3B28" stroke-width="4.5074" stroke-miterlimit="10" stroke-linecap="round" stroke-linejoin="round"/>
<path d="M33.3999 28.9H3.30005C1.90005 28.9 0.800049 27.8 0.800049 26.4C0.800049 25 1.90005 23.9 3.30005 23.9H33.3999C34.7999 23.9 35.8999 25 35.8999 26.4C35.8999 27.8 34.7999 28.9 33.3999 28.9Z" fill="#5F3B28"/>
</g>
<defs>
<clipPath id="clip0_28_1348">
<rect width="119" height="29" fill="white"/>
</clipPath>
</defs>
</svg>
