<svg width="40" height="40" viewBox="0 0 40 40" fill="none" xmlns="http://www.w3.org/2000/svg">
<path d="M7 36.5C3.9 36.5 1.60004 34.5 1.10004 31.5C1.10004 31.4 1.1 31.3999 1 31.2999V15.1V14.9C1 14.7 1.10004 14.6 1.10004 14.4C1.70004 11.9 4.00004 10 6.60004 10C7.10004 10 7.60004 10 8.10004 10C8.70004 10 9.30002 10 9.90002 10C10.3 10 10.6 9.8 10.8 9.5C11.1 8.8 11.5 8.09993 11.9 7.29993C13 5.09993 14.8 4 17.3 4C18.3 4 19.3 4 20.3 4C21.3 4 22.4 4 23.4 4C25.9 4 27.6 5.09993 28.8 7.29993C29.2 7.99993 29.6 8.79998 29.9 9.59998C30.1 9.89998 30.3 10.1 30.7 10.1C31.3 10.1 31.8 10.1 32.3 10.1C32.8 10.1 33.3 10.1 33.8 10.1C37.2 10.1 39.7 12.6 39.7 16C39.7 20.9 39.7 25.7999 39.7 30.7999C39.7 34.1999 37.2 36.7 33.8 36.7C29.8 36.7 25.7 36.7 21.7 36.7L7 36.5ZM33.6 34.1C35.8 34.1 37.3 32.6 37.3 30.5C37.3 25.6 37.3 20.8 37.3 15.9C37.3 13.7 35.9 12.2999 33.7 12.2999C33 12.2999 32.2 12.2999 31.5 12.2999C30.9 12.2999 30.2 12.2999 29.6 12.2999C28.9 12.2999 28.5 12 28.2 11.5C27.9 10.9 27.6 10.2 27.3 9.59998C27.1 9.19998 26.9 8.69993 26.6 8.29993C25.9 6.99993 24.8 6.29993 23.3 6.29993H17.2C15.7 6.29993 14.6 6.99993 13.9 8.29993C13.7 8.69993 13.5 9.00002 13.4 9.40002C13 10.1 12.7 10.8 12.3 11.5C12 12.1 11.6 12.2999 10.9 12.2999C10.3 12.2999 9.70001 12.2999 9.20001 12.2999C8.60001 12.2999 8 12.2999 7.5 12.2999H6.90002C6.60002 12.2999 6.3 12.3 6 12.4C4.3 12.7 3.20001 14.1 3.20001 15.9C3.20001 19.6 3.20001 23.3 3.20001 27.1V30.6C3.20001 32.9 4.60002 34.2999 6.90002 34.2999H20.1L33.6 34.1Z" fill="#F8AC00" stroke="#F8AC00" stroke-width="0.5"/>
<path d="M20.2 28.9C18.3 28.9 16.5 28.1 15.1 26.7C13.7 25.3 13 23.5 13 21.6C13 17.6 16.3 14.4 20.2 14.4H20.3C24.3 14.5 27.5 17.7 27.5 21.7C27.5 25.6 24.3 28.9 20.2 28.9ZM20.3 16.7999C17.6 16.7999 15.5 19 15.4 21.6C15.4 22.9 15.9 24.1 16.8 25C17.7 25.9 18.9 26.4 20.2 26.4C22.9 26.4 25 24.2 25.1 21.6C25.1 20.3 24.6 19.1 23.7 18.2C22.8 17.3 21.6 16.7999 20.3 16.7999Z" fill="#F8AC00" stroke="#F8AC00" stroke-width="0.5"/>
</svg>
