<svg width="100" height="100" viewBox="0 0 100 100" fill="none" xmlns="http://www.w3.org/2000/svg">
<path d="M89.3486 35.4845L52.5453 4.29345C50.8184 2.83643 48.2821 2.83643 46.5553 4.29345L9.75197 35.5385C8.72666 36.4019 8.13306 37.6971 8.13306 39.0462V93.3338C8.13306 95.8701 10.1837 97.9747 12.7739 97.9747H86.3806C88.9169 97.9747 91.0215 95.924 91.0215 93.3338V38.9922C90.9675 37.6431 90.3739 36.348 89.3486 35.4845Z" fill="#00B88B" stroke="#5F3B28" stroke-width="1.48469"/>
<path d="M86.3268 99H12.7202C9.5363 99 7 96.4097 7 93.2798V38.9922C7 37.3193 7.7555 35.7004 8.99667 34.6212L45.8 3.37608C47.9585 1.54131 51.0345 1.54131 53.193 3.37608L89.9964 34.6212C91.2915 35.7004 91.993 37.3193 91.993 38.9922V93.2798C92.101 96.4637 89.5107 99 86.3268 99ZM49.5235 4.29347C48.714 4.29347 47.9046 4.56328 47.257 5.15688L10.4537 36.402C9.64422 37.0495 9.21252 38.0748 9.21252 39.1001V93.3877C9.21252 95.3304 10.7775 96.8954 12.7202 96.8954H86.3268C88.2695 96.8954 89.8345 95.3304 89.8345 93.3877V38.9922C89.8345 37.9669 89.4028 36.9955 88.5933 36.294L51.79 5.04898C51.1424 4.5633 50.333 4.29347 49.5235 4.29347Z" fill="#5F3B28" stroke="#5F3B28" stroke-width="1.48469"/>
<path d="M81.2002 15.0323V78.116C81.2002 80.6523 79.1496 82.7569 76.5593 82.7569H22.4876C19.9513 82.7569 17.8467 80.7062 17.8467 78.116V15.0323C17.8467 12.496 19.8973 10.3914 22.4876 10.3914H76.5593C79.0956 10.3914 81.2002 12.496 81.2002 15.0323Z" fill="#F5ECDC" stroke="#5F3B28" stroke-width="1.48469"/>
<path d="M76.5593 83.8362H22.4875C19.3036 83.8362 16.7673 81.2459 16.7673 78.116V15.0323C16.7673 11.8484 19.3576 9.31209 22.4875 9.31209H76.5593C79.7431 9.31209 82.2794 11.9024 82.2794 15.0323V78.116C82.2794 81.2459 79.6892 83.8362 76.5593 83.8362ZM22.4875 11.5246C20.5448 11.5246 18.9799 13.0896 18.9799 15.0323V78.116C18.9799 80.0587 20.5448 81.6236 22.4875 81.6236H76.5593C78.502 81.6236 80.0669 80.0587 80.0669 78.116V15.0323C80.0669 13.0896 78.502 11.5246 76.5593 11.5246H22.4875Z" fill="#5F3B28" stroke="#5F3B28" stroke-width="1.48469"/>
<path d="M8.07935 46.1154L49.5236 68.2946L90.9678 46.1154V93.2798C90.9678 95.8161 88.9172 97.9207 86.3269 97.9207H12.7202C10.1839 97.9207 8.07935 95.8701 8.07935 93.2798V46.1154Z" fill="#00B88B" stroke="#5F3B28" stroke-width="1.48469"/>
<path d="M86.3268 99H12.7202C9.5363 99 7 96.4098 7 93.2798V46.1154C7 45.7377 7.21586 45.36 7.53964 45.1441C7.86342 44.9282 8.29513 44.9282 8.61892 45.1441L49.5235 67.0534L90.4281 45.1441C90.7519 44.9822 91.1836 44.9822 91.5074 45.1441C91.8311 45.36 92.047 45.6837 92.047 46.1154V93.2798C92.101 96.4637 89.5107 99 86.3268 99ZM9.21252 47.9502V93.2798C9.21252 95.2225 10.7775 96.7875 12.7202 96.7875H86.3268C88.2695 96.7875 89.8345 95.2225 89.8345 93.2798V47.9502L50.0092 69.2659C49.6854 69.4278 49.3076 69.4278 48.9839 69.2659L9.21252 47.9502Z" fill="#5F3B28" stroke="#5F3B28" stroke-width="1.48469"/>
<path d="M69.8679 45.306H29.1792" stroke="#5F3B28" stroke-width="1.48469"/>
<path d="M69.8679 46.4392H29.1791C28.5855 46.4392 28.0999 45.9535 28.0999 45.3599C28.0999 44.7663 28.5855 44.2806 29.1791 44.2806H69.8679C70.4615 44.2806 70.9471 44.7663 70.9471 45.3599C71.0011 45.9535 70.4615 46.4392 69.8679 46.4392Z" fill="#5F3B28" stroke="#5F3B28" stroke-width="1.48469"/>
<path d="M69.8679 34.0815H29.1792" stroke="#5F3B28" stroke-width="1.48469"/>
<path d="M69.8679 35.1608H29.1791C28.5855 35.1608 28.0999 34.6751 28.0999 34.0815C28.0999 33.4879 28.5855 33.0022 29.1791 33.0022H69.8679C70.4615 33.0022 70.9471 33.4879 70.9471 34.0815C71.0011 34.6751 70.4615 35.1608 69.8679 35.1608Z" fill="#5F3B28" stroke="#5F3B28" stroke-width="1.48469"/>
<path d="M69.8679 22.803H29.1792" stroke="#5F3B28" stroke-width="1.48469"/>
<path d="M69.8679 23.9363H29.1791C28.5855 23.9363 28.0999 23.4506 28.0999 22.857C28.0999 22.2634 28.5855 21.7778 29.1791 21.7778H69.8679C70.4615 21.7778 70.9471 22.2634 70.9471 22.857C71.0011 23.4506 70.4615 23.9363 69.8679 23.9363Z" fill="#5F3B28" stroke="#5F3B28" stroke-width="1.48469"/>
<path d="M10.13 85.617L46.9333 60.9555C48.4983 59.9302 50.5489 59.9302 52.0599 60.9555L88.8632 85.617C90.1583 86.4804 90.9138 87.9374 90.9138 89.4484V93.2799C90.9138 95.8162 88.8632 97.9207 86.2729 97.9207H12.7202C10.1839 97.9207 8.07935 95.8701 8.07935 93.2799V89.4484C8.07935 87.8835 8.8888 86.4264 10.13 85.617Z" fill="#00B88B" stroke="#5F3B28" stroke-width="1.48469"/>
<path d="M86.3268 99H12.7202C9.5363 99 7 96.4097 7 93.2798V89.4484C7 87.5597 7.97136 85.7789 9.53631 84.6996L46.3396 60.0381C48.2823 58.743 50.7647 58.743 52.7074 60.0381L89.5107 84.6996C91.0757 85.7789 92.047 87.5597 92.047 89.4484V93.2798C92.101 96.4637 89.5107 99 86.3268 99ZM49.5235 61.2793C48.822 61.2793 48.1744 61.4951 47.5808 61.8729L10.7775 86.5344C9.80612 87.1819 9.21252 88.2612 9.21252 89.4484V93.2798C9.21252 95.2225 10.7775 96.7875 12.7202 96.7875H86.3268C88.2695 96.7875 89.8345 95.2225 89.8345 93.2798V89.4484C89.8345 88.2612 89.2409 87.1819 88.2695 86.5344L51.5202 61.8729C50.8726 61.4412 50.225 61.2793 49.5235 61.2793Z" fill="#5F3B28" stroke="#5F3B28" stroke-width="1.48469"/>
</svg>
