<svg width="40" height="40" viewBox="0 0 40 40" fill="none" xmlns="http://www.w3.org/2000/svg">
<path d="M20.1 37.2001C29.5441 37.2001 37.2 29.544 37.2 20.1C37.2 10.6559 29.5441 3 20.1 3C10.656 3 3 10.6559 3 20.1C3 29.544 10.656 37.2001 20.1 37.2001Z" stroke="#F8AC00" stroke-width="3" stroke-miterlimit="10"/>
<path d="M27.2 35.6L23.2 20.2001H17.1L13.1 35.6L11.4 35.1L15.8 18.5H24.5L28.9 35.1L27.2 35.6Z" fill="#F8AC00" stroke="#F8AC00"/>
<path d="M21.8001 19.3001H18.6001C18.3001 19.3001 18.1001 19.1 18.2001 18.9L19.8001 12.2001C19.9001 11.9001 20.5001 11.9001 20.6001 12.2001L22.2001 18.9C22.2001 19.2 22.0001 19.3001 21.8001 19.3001Z" fill="#F8AC00" stroke="#F8AC00"/>
</svg>
