<svg width="30" height="30" viewBox="0 0 30 30" fill="none" xmlns="http://www.w3.org/2000/svg">
<g clip-path="url(#clip0_21_940)">
<path d="M8.94373 15.4169C9.94373 15.4169 10.8438 16.2169 10.8438 17.3169C10.8438 18.3169 10.0437 19.2169 8.94373 19.2169C7.84373 19.2169 7.04382 18.4169 7.04382 17.3169C7.04382 16.3169 7.84373 15.4169 8.94373 15.4169Z" fill="#F8AC00"/>
<path d="M14.8438 15.4169C15.8438 15.4169 16.7438 16.2169 16.7438 17.3169C16.7438 18.3169 15.9438 19.2169 14.8438 19.2169C13.7437 19.2169 12.9437 18.4169 12.9437 17.3169C12.9437 16.3169 13.7437 15.4169 14.8438 15.4169Z" fill="#F8AC00"/>
<path d="M20.9437 19.2169C21.9931 19.2169 22.8438 18.3662 22.8438 17.3169C22.8438 16.2676 21.9931 15.4169 20.9437 15.4169C19.8944 15.4169 19.0438 16.2676 19.0438 17.3169C19.0438 18.3662 19.8944 19.2169 20.9437 19.2169Z" fill="#F8AC00"/>
<path d="M26.0263 19.9772C27.4858 13.7961 23.6583 7.60223 17.4772 6.14271C11.2961 4.68318 5.10222 8.51075 3.6427 14.6918C2.18318 20.8729 6.01074 27.0668 12.1918 28.5263C18.3729 29.9858 24.5668 26.1583 26.0263 19.9772Z" stroke="#F8AC00" stroke-width="1.7651" stroke-miterlimit="10"/>
</g>
<defs>
<clipPath id="clip0_21_940">
<rect width="30" height="30" fill="white"/>
</clipPath>
</defs>
</svg>
