<svg width="256" height="174" viewBox="0 0 256 174" fill="none" xmlns="http://www.w3.org/2000/svg">
<g clip-path="url(#clip0_28_3050)">
<path d="M91.4933 29.2941C89.2266 14.4243 76.3516 3 60.8471 3H14.4244C8.07749 3 3 8.07747 3 14.4243V29.2941V67.3753V170.738H210.633C216.164 170.738 220.607 166.296 220.607 160.765V43.4385C220.607 35.641 214.26 29.2941 206.462 29.2941H91.4933Z" fill="#FFCE7A" stroke="#5F3B28" stroke-width="5" stroke-miterlimit="10"/>
<path d="M211.993 170.738H4L36.8195 55.6789C38.2702 50.7828 42.8037 47.428 47.8812 47.428H241.46C249.167 47.428 254.698 54.863 252.522 62.2072L223.055 162.397C221.604 167.384 217.07 170.738 211.993 170.738Z" fill="#FFCE7A" stroke="#5F3B28" stroke-width="5" stroke-miterlimit="10"/>
</g>
<defs>
<clipPath id="clip0_28_3050">
<rect width="256" height="174" fill="white"/>
</clipPath>
</defs>
</svg>
