<svg width="40" height="40" viewBox="0 0 40 40" fill="none" xmlns="http://www.w3.org/2000/svg">
<path d="M11.8 11.3999C11.8 14.3999 9.39996 16.7999 6.39996 16.7999C3.39996 16.7999 1 14.3999 1 11.3999C1 8.3999 3.39996 6 6.39996 6C9.39996 6 11.8 8.3999 11.8 11.3999Z" fill="#F8AC00" stroke="#F8AC00"/>
<path d="M12 29.6C12 32.6 9.59998 35 6.59998 35C3.59998 35 1.19995 32.6 1.19995 29.6C1.19995 26.6 3.59998 24.2 6.59998 24.2C9.59998 24.2 12 26.6 12 29.6Z" fill="#F8AC00" stroke="#F8AC00"/>
<path d="M37.5 13.1H16C15.5 13.1 15 12.7 15 12.1C15 11.5 15.4 11.1 16 11.1H37.5C38 11.1 38.5 11.5 38.5 12.1C38.5 12.7 38 13.1 37.5 13.1Z" fill="#F8AC00" stroke="#F8AC00"/>
<path d="M37.5 30.5H16C15.5 30.5 15 30.1 15 29.5C15 28.9 15.4 28.5 16 28.5H37.5C38 28.5 38.5 28.9 38.5 29.5C38.5 30.1 38 30.5 37.5 30.5Z" fill="#F8AC00" stroke="#F8AC00"/>
<path d="M5.59996 14.8999C5.39996 14.8999 5.19996 14.8 5.09996 14.6L3.29997 11.3999C3.19997 11.0999 3.29998 10.8 3.49998 10.7C3.79998 10.6 4.09993 10.5999 4.19993 10.8999L5.49998 13.2L8.19993 8.39991C8.29993 8.09991 8.69995 8.09996 8.89995 8.19996C9.19995 8.29996 9.19996 8.69991 9.09996 8.89991L5.89995 14.5C5.99995 14.8 5.79996 14.8999 5.59996 14.8999Z" fill="#F5ECDC"/>
</svg>
