<svg width="40" height="40" viewBox="0 0 40 40" fill="none" xmlns="http://www.w3.org/2000/svg">
<path d="M12.8 12.3999C12.8 15.3999 10.4 17.7999 7.39996 17.7999C4.39996 17.7999 2 15.3999 2 12.3999C2 9.3999 4.39996 7 7.39996 7C10.4 7 12.8 9.3999 12.8 12.3999Z" fill="#F8AC00"/>
<path d="M13 29.6C13 32.6 10.6 35 7.59998 35C4.59998 35 2.19995 32.6 2.19995 29.6C2.19995 26.6 4.59998 24.2 7.59998 24.2C10.6 24.2 13 26.6 13 29.6Z" fill="#F8AC00"/>
<path d="M37.5 13.1H16C15.5 13.1 15 12.7 15 12.1C15 11.5 15.4 11.1 16 11.1H37.5C38 11.1 38.5 11.5 38.5 12.1C38.5 12.7 38 13.1 37.5 13.1Z" fill="#F8AC00"/>
<path d="M37.5 30.5H16C15.5 30.5 15 30.1 15 29.5C15 28.9 15.4 28.5 16 28.5H37.5C38 28.5 38.5 28.9 38.5 29.5C38.5 30.1 38 30.5 37.5 30.5Z" fill="#F8AC00"/>
<path d="M6.59996 15.8999C6.39996 15.8999 6.19996 15.8 6.09996 15.6L4.29997 12.3999C4.19997 12.0999 4.29998 11.8 4.49998 11.7C4.79998 11.6 5.09993 11.5999 5.19993 11.8999L6.49998 14.2L9.19993 9.39991C9.29993 9.09991 9.69995 9.09996 9.89995 9.19996C10.1999 9.29996 10.2 9.69991 10.1 9.89991L6.89995 15.5C6.99995 15.8 6.79996 15.8999 6.59996 15.8999Z" fill="#F5ECDC"/>
</svg>
