<svg width="65" height="65" viewBox="0 0 65 65" fill="none" xmlns="http://www.w3.org/2000/svg">
<path d="M25.3999 44.8C35.0097 44.8 42.8 37.0097 42.8 27.4C42.8 17.7902 35.0097 10 25.3999 10C15.7901 10 8 17.7902 8 27.4C8 37.0097 15.7901 44.8 25.3999 44.8Z" stroke="#5F3B28" stroke-width="5.3111" stroke-miterlimit="10"/>
<path d="M53.3 54C52.5 54 51.7998 53.7 51.0998 53.2L37.3 41.3C35.9 40.1 35.7999 38 36.9999 36.6C38.1999 35.2 40.2999 35.1 41.6999 36.3L55.4999 48.2C56.8999 49.4 57 51.5 55.8 52.9C55.1 53.6 54.2 54 53.3 54Z" fill="#5F3B28"/>
</svg>
