<svg width="30" height="30" viewBox="0 0 30 30" fill="none" xmlns="http://www.w3.org/2000/svg">
<path d="M4.80005 29.1001C4.80005 29.1001 4.70007 29.1001 4.70007 29.0001C4.60007 28.9001 4.40005 28.9 4.30005 28.8C4.10005 28.6 4 28.4001 4 28.0001C4 25.4001 4 22.8001 4 20.2001C4 20.2001 4 12.6001 4 11.0001C4 10.2001 4.40007 9.80005 5.20007 9.80005C5.20007 9.80005 6.90005 9.80005 7.30005 9.80005C7.80005 9.80005 8.30005 9.80005 8.80005 9.80005C9.20005 9.80005 9.50007 10.0001 9.70007 10.2001C9.90007 10.5001 9.90005 10.8001 9.80005 11.1001C9.70005 11.5001 9.30005 11.7001 8.80005 11.7001C8.50005 11.7001 8.20002 11.7001 7.90002 11.7001H6V27.1001H23.3V11.7001H22.1C21.9 11.7001 21.8 11.7001 21.6 11.7001C21.5 11.7001 21.1 11.7001 21.1 11.7001C20.8 11.7001 20.6 11.7001 20.3 11.7001C19.8 11.6001 19.5 11.2 19.5 10.8C19.5 10.4 19.8001 9.90009 20.2001 9.90009C20.9001 9.90009 21.6 9.90009 22.4 9.90009C23.1 9.90009 23.8 9.90009 24.6 9.90009C25 9.90009 25.3 10.4 25.3 10.8C25.3 10.9 25.3 11.0001 25.3 11.1001V15.5001C25.3 19.6001 25.3 23.7001 25.3 27.9001C25.3 28.7001 25.1 29.1 24.5 29.3H4.80005V29.1001Z" fill="#F8AC00"/>
<path d="M14.6 20.4C14.1 20.4 13.7001 20.1 13.7001 19.6C13.7001 19.5 13.7001 19.3 13.7001 19.1C13.7001 15 13.7001 11 13.7001 6.90002V3.40002L12.8 4.29999C12.7 4.39999 12.7 4.4 12.6 4.5C12.4 4.7 12.2 4.9 12.1 5C11.7 5.4 11.3 5.80004 10.9 6.10004C10.7 6.30004 10.5 6.29999 10.3 6.29999C10 6.29999 9.79997 6.2 9.59997 6C9.29997 5.6 9.2 5.10001 9.5 4.70001C9.6 4.60001 9.70007 4.5 9.70007 4.5C11.0001 3.1 12.4001 1.80002 13.7001 0.400024C14.0001 0.100024 14.3 0 14.5 0C14.8 0 15 0.100024 15.3 0.400024L15.6 0.700012C16.9 2.00001 18.1 3.2 19.4 4.5C19.8 4.9 19.9001 5.30001 19.7001 5.70001C19.5001 6.10001 19.2 6.29999 18.8 6.29999C18.5 6.29999 18.3 6.2 18.1 6C17.7 5.7 17.4 5.30002 17 4.90002C16.8 4.70002 16.7 4.60002 16.5 4.40002C16.5 4.40002 16.4 4.29999 16.3 4.29999L15.4 3.5C15.4 3.5 15.4 15.6 15.4 19.2C15.4 19.8 15.2001 20.2 14.7001 20.3C14.8001 20.4 14.7 20.4 14.6 20.4Z" fill="#F8AC00"/>
</svg>
