<svg width="30" height="30" viewBox="0 0 30 30" fill="none" xmlns="http://www.w3.org/2000/svg">
<path d="M4.80005 29.1C4.74254 29.1 4.35563 28.8556 4.30005 28.8C4.10005 28.6 4 28.4 4 28C4 25.4 4 22.8 4 20.2C4 20.2 4 12.6 4 11C4 10.2 4.40007 9.79999 5.20007 9.79999C5.20007 9.79999 6.90005 9.79999 7.30005 9.79999C7.80005 9.79999 8.30005 9.79999 8.80005 9.79999C9.20005 9.79999 9.50007 10 9.70007 10.2C9.90007 10.5 9.90005 10.8 9.80005 11.1C9.70005 11.5 9.30005 11.7 8.80005 11.7C8.50005 11.7 8.20002 11.7 7.90002 11.7H6V27.1H23.3V11.7H22.1C21.9 11.7 21.8 11.7 21.6 11.7C21.5 11.7 21.1 11.7 21.1 11.7C20.8 11.7 20.6 11.7 20.3 11.7C19.8 11.6 19.5 11.2 19.5 10.8C19.5 10.4 19.8001 9.90002 20.2001 9.90002C20.9001 9.90002 21.6 9.90002 22.4 9.90002C23.1 9.90002 23.8 9.90002 24.6 9.90002C25 9.90002 25.3 10.4 25.3 10.8C25.3 10.9 25.3 11 25.3 11.1V15.5C25.3 19.6 25.3 23.7 25.3 27.9C25.3 28.7 25.1 29.1 24.5 29.3L4.80005 29.1Z" fill="#F8AC00" stroke="#F8AC00" stroke-width="0.5"/>
<path d="M14.6 21.4C14.1 21.4 13.7001 21.1 13.7001 20.6C13.7001 20.5 13.7001 20.3 13.7001 20.1C13.7001 16 13.7001 12 13.7001 7.90002V4.40002L12.8 5.29999C12.7 5.39999 12.7 5.4 12.6 5.5C12.4 5.7 12.2 5.9 12.1 6C11.7 6.4 11.3 6.80004 10.9 7.10004C10.7 7.30004 10.5 7.29999 10.3 7.29999C10 7.29999 9.79997 7.2 9.59997 7C9.29997 6.6 9.2 6.10001 9.5 5.70001C9.6 5.60001 9.70007 5.5 9.70007 5.5C11.0001 4.1 12.4001 2.80002 13.7001 1.40002C14.0001 1.10002 14.3 1 14.5 1C14.8 1 15 1.10002 15.3 1.40002L15.6 1.70001C16.9 3.00001 18.1 4.2 19.4 5.5C19.8 5.9 19.9001 6.30001 19.7001 6.70001C19.5001 7.10001 19.2 7.29999 18.8 7.29999C18.5 7.29999 18.3 7.2 18.1 7C17.7 6.7 17.4 6.30002 17 5.90002C16.8 5.70002 16.7 5.60002 16.5 5.40002C16.5 5.40002 16.4 5.29999 16.3 5.29999L15.4 4.5C15.4 4.5 15.4 16.6 15.4 20.2C15.4 20.8 15.2001 21.2 14.7001 21.3C14.8001 21.4 14.7 21.4 14.6 21.4Z" fill="#F8AC00" stroke="#F8AC00" stroke-width="0.5"/>
</svg>
