<svg width="75" height="65" viewBox="0 0 75 65" fill="none" xmlns="http://www.w3.org/2000/svg">
<path d="M72 22.3145L67.4001 26.9145C60.6001 19.4145 49.6002 14.6146 37.2002 14.6146C25.0002 14.6146 14.1 19.3146 7.30005 26.6146C6.10005 25.4146 4.9001 24.2145 3.6001 22.9145C3.4001 22.7145 3.2 22.6145 3 22.4145V22.3145C6.3 19.1145 9.90015 16.3146 13.9001 14.1146C19.4001 11.1146 25.2001 9.21455 31.4001 8.41455C39.1001 7.41455 46.6 8.21455 54 10.9145C60.8 13.3145 66.8 17.1145 72 22.3145Z" fill="#5F3B28"/>
<path d="M59.6001 34.8145C58.2001 36.3145 56.7 37.7146 55.3 39.1146C50.5 35.0146 44.3 32.5146 37.5 32.5146C30.8 32.5146 24.6001 35.0146 19.9001 39.0146C18.5001 37.6146 17.1002 36.2145 15.7002 34.8145C27.2002 22.8145 47.6001 22.5145 59.6001 34.8145Z" fill="#5F3B28"/>
<path d="M46.6001 47.2146C43.6001 50.2146 40.6002 53.2146 37.7002 56.1146C34.7002 53.1146 31.8 50.1146 28.8 47.2146C32.5 42.8146 41.3001 41.8146 46.6001 47.2146Z" fill="#5F3B28"/>
</svg>
