<svg width="40" height="40" viewBox="0 0 40 40" fill="none" xmlns="http://www.w3.org/2000/svg">
<path d="M6.71526 33.9C6.41526 33.7 6.11531 33.5001 6.01531 33.1001C5.91531 32.5001 6.31534 31.9 6.91534 31.9C7.01534 31.9 7.11526 31.9 7.21526 31.9C15.7153 31.9 24.1153 31.9 32.6153 31.9C32.8153 31.9 32.9153 31.9 33.1153 31.9C33.5153 32 33.8154 32.3 33.8154 32.8C33.8154 33.2 33.6154 33.6 33.3154 33.8C33.2154 33.8 33.2153 33.9 33.1153 33.9C24.2153 33.9 15.5153 33.9 6.71526 33.9Z" fill="#F8AC00" stroke="#F8AC00" stroke-width="0.5"/>
<path d="M29.9153 11.5001C29.8153 11.7001 29.7153 11.9001 29.6153 12.1001C29.5153 12.2001 29.4153 12.3 29.3153 12.4C24.3153 17.4 19.3153 22.4 14.3153 27.4C14.0153 27.7 13.7153 27.9001 13.3153 28.0001C11.7153 28.4001 10.1153 28.8001 8.51529 29.2001C8.31529 29.3001 8.11531 29.3 7.91531 29.3C7.31531 29.2 7.01526 28.6001 7.11526 28.0001C7.51526 26.3001 8.01529 24.6 8.51529 22.8C8.61529 22.6 8.71531 22.4001 8.91531 22.2001C14.0153 17.1001 19.0153 12.0001 24.1153 7.00012C24.6153 6.50012 25.2152 6.50012 25.7152 7.00012C26.9152 8.20012 28.2153 9.50007 29.4153 10.7001C29.7153 10.9001 29.8153 11.2001 29.9153 11.5001ZM9.61526 26.9C9.71526 26.9 9.81531 26.9 9.91531 26.8C10.8153 26.6 11.7153 26.3001 12.6153 26.1001C12.8153 26.1001 13.0153 26 13.1153 25.8C17.8153 21.1 22.5152 16.4001 27.2152 11.7001C27.3152 11.6001 27.4153 11.6001 27.4153 11.6001C26.5153 10.7001 25.7153 9.9001 24.9153 9.1001C24.9153 9.1001 24.9153 9.1001 24.8153 9.1001C20.0153 13.9001 15.3153 18.6 10.5153 23.4C10.4153 23.5 10.4153 23.5001 10.3153 23.6001C10.1153 24.7001 9.91526 25.7 9.61526 26.9Z" fill="#F8AC00" stroke="#F8AC00" stroke-width="0.5"/>
<path d="M31.4152 9.8C31.3152 9.7 31.0153 9.70007 30.8153 9.50007C29.5153 8.20007 28.2152 7.00002 27.0152 5.70002C26.6152 5.30002 26.6152 4.7 27.0152 4.3C27.4152 3.9 28.0152 3.9 28.4152 4.3C29.7152 5.6 31.0152 6.90005 32.2152 8.10005C32.5152 8.40005 32.6152 8.80002 32.4152 9.20002C32.3152 9.60002 32.0152 9.7 31.4152 9.8Z" fill="#F8AC00" stroke="#F8AC00" stroke-width="0.5"/>
</svg>
