<svg width="45" height="45" viewBox="0 0 45 45" fill="none" xmlns="http://www.w3.org/2000/svg">
<path d="M39.7229 25.1749H4.20135C3.00062 25.1749 2 24.1749 2 22.9749C2 21.7749 3.00062 20.7749 4.20135 20.7749H39.7229C40.9236 20.7749 41.9242 21.7749 41.9242 22.9749C41.9242 24.0749 40.9236 25.1749 39.7229 25.1749Z" fill="#5F3B28"/>
<path d="M24.3135 41.775C23.7132 41.775 23.1128 41.575 22.7125 41.075C21.812 40.175 21.812 38.775 22.7125 37.875L37.7216 22.875L22.7125 7.87495C21.812 6.97495 21.812 5.575 22.7125 4.675C23.6131 3.775 25.0139 3.775 25.9145 4.675L42.5245 21.275C43.4251 22.175 43.4251 23.575 42.5245 24.475L25.9145 41.075C25.5142 41.575 24.9139 41.775 24.3135 41.775Z" fill="#5F3B28"/>
</svg>
