<svg width="45" height="45" viewBox="0 0 45 45" fill="none" xmlns="http://www.w3.org/2000/svg">
<path d="M40.9998 25.1749H5.49982C4.29982 25.1749 3.2998 24.1749 3.2998 22.9749C3.2998 21.7749 4.29982 20.7749 5.49982 20.7749H40.9998C42.1998 20.7749 43.1998 21.7749 43.1998 22.9749C43.1998 24.0749 42.1998 25.1749 40.9998 25.1749Z" fill="#5F3B28"/>
<path d="M20.9 41.775C20.3 41.775 19.7 41.575 19.3 41.075L2.70001 24.475C2.30001 24.075 2 23.475 2 22.875C2 22.275 2.20001 21.675 2.70001 21.275L19.3 4.675C20.2 3.775 21.6 3.775 22.5 4.675C23.4 5.575 23.4 6.97495 22.5 7.87495L7.5 22.875L22.5 37.875C23.4 38.775 23.4 40.175 22.5 41.075C22 41.575 21.4 41.775 20.9 41.775Z" fill="#5F3B28"/>
</svg>
