<svg width="45" height="45" viewBox="0 0 45 45" fill="none" xmlns="http://www.w3.org/2000/svg">
<path d="M39.9 43.4002C39.3 43.4002 38.7 43.2001 38.3 42.7001L25.3 29.7001C24.4 28.8001 24.4 27.4002 25.3 26.5002C26.2 25.6002 27.6 25.6002 28.5 26.5002L41.5 39.5002C42.4 40.4002 42.4 41.8001 41.5 42.7001C41 43.2001 40.5 43.4002 39.9 43.4002Z" fill="#5F3B28"/>
<path d="M17.9 33.8C9.10002 33.8 2 26.7 2 17.9C2 9.09996 9.10002 2 17.9 2C26.7 2 33.8 9.09996 33.8 17.9C33.8 26.7 26.7 33.8 17.9 33.8ZM17.9 6.5C11.6 6.5 6.5 11.6 6.5 17.9C6.5 24.2 11.6 29.3 17.9 29.3C24.2 29.3 29.3 24.2 29.3 17.9C29.3 11.6 24.2 6.5 17.9 6.5Z" fill="#5F3B28"/>
</svg>
