<svg width="45" height="45" viewBox="0 0 45 45" fill="none" xmlns="http://www.w3.org/2000/svg">
<path d="M5.00856 43.09C4.54842 42.8599 4.14575 42.5723 4.03071 41.9971C3.85816 41.1919 4.43339 40.3866 5.23865 40.3291C5.35368 40.3291 5.52621 40.3291 5.64125 40.3291C17.2024 40.3291 28.7636 40.3291 40.3822 40.3291C40.6123 40.3291 40.8424 40.3291 41.0149 40.3866C41.5901 40.5017 41.9352 41.0193 41.9927 41.537C42.0502 42.0547 41.7627 42.6298 41.3025 42.8599C41.1875 42.9174 41.0724 42.975 41.0149 43.0325C28.9936 43.09 17.0299 43.09 5.00856 43.09Z" fill="#5F3B28" stroke="#5F3B28" stroke-width="0.5"/>
<path d="M36.701 12.49C36.5859 12.7776 36.4709 13.0652 36.2984 13.2953C36.2409 13.4678 36.0682 13.5253 35.9532 13.6979C29.1085 20.5426 22.2639 27.3873 15.4767 34.2319C15.0741 34.6346 14.6715 34.8647 14.1539 34.9797C11.9682 35.5549 9.83998 36.1301 7.65429 36.7052C7.3667 36.7628 7.07911 36.8203 6.79152 36.8203C5.98626 36.7052 5.5261 35.9 5.69866 35.0372C6.33136 32.6789 6.90658 30.3207 7.53928 28.02C7.5968 27.7324 7.82682 27.3873 8.05689 27.1572C15.0166 20.1975 21.9188 13.2953 28.8785 6.33554C29.5687 5.64532 30.3739 5.64532 31.0642 6.33554C32.7322 8.00357 34.4578 9.72913 36.1258 11.3972C36.4709 11.6272 36.6435 11.9723 36.701 12.49ZM8.91966 33.4267C9.09222 33.3692 9.20729 33.3692 9.32233 33.3117C10.5877 32.9665 11.8531 32.679 13.061 32.3338C13.2911 32.2763 13.5786 32.1038 13.7512 31.9312C20.1932 25.5467 26.5778 19.1046 33.0198 12.7201C33.1348 12.605 33.2499 12.5475 33.3074 12.5475C32.0995 11.3396 31.0066 10.2468 29.9138 9.09643L29.8563 9.15393C23.3567 15.6535 16.7997 22.2106 10.3001 28.7102C10.2426 28.7677 10.1275 28.8827 10.07 28.9978C9.72492 30.4933 9.32229 31.9312 8.91966 33.4267Z" fill="#5F3B28" stroke="#5F3B28" stroke-width="0.5"/>
<path d="M38.8293 10.0744C38.6568 9.95935 38.3117 9.90184 38.0241 9.61425C36.2411 7.8887 34.5155 6.16314 32.7899 4.38007C32.2147 3.80489 32.2148 2.94212 32.7324 2.42445C33.3076 1.84927 34.1129 1.84927 34.6881 2.48198C36.4711 4.20753 38.1967 5.99058 39.9222 7.71613C40.3823 8.17628 40.4974 8.69395 40.2098 9.26914C40.0372 9.7868 39.5771 10.0744 38.8293 10.0744Z" fill="#5F3B28" stroke="#5F3B28" stroke-width="0.5"/>
</svg>
