<svg width="60" height="60" viewBox="0 0 60 60" fill="none" xmlns="http://www.w3.org/2000/svg">
<path d="M9.70007 52.9001C8.20007 52.9001 6.69996 52.3 5.64996 51.25C4.59996 50.2 4 48.7 4 47.2V12.55C4 9.40002 6.55007 7 9.70007 7H21.1C23.2 7 25.1501 8.20006 26.2001 10.1501L28.15 13.9001C28.3 14.3501 28.7501 14.5 29.2001 14.5H50.65C52.15 14.5 53.5001 15.1001 54.7001 16.1501C55.7501 17.2001 56.35 18.7 56.35 20.2V47.35C56.35 50.5 53.8 53.05 50.65 53.05L9.70007 52.9001ZM21.25 11.5H9.85004C9.25004 11.5 8.80011 11.95 8.80011 12.55V47.2C8.80011 47.5 8.95004 47.8 9.10004 47.95C9.25004 48.1 9.55004 48.25 9.85004 48.25H50.65C51.25 48.25 51.7 47.8 51.85 47.05V19.9001C51.85 19.6001 51.7001 19.3001 51.5501 19.1501C51.4001 19.0001 51.1001 18.85 50.8001 18.85H29.35C27.25 18.85 25.3 17.65 24.25 15.7L22.3001 11.95C22.0001 11.65 21.7 11.5 21.25 11.5Z" fill="#5F3B28"/>
</svg>
