<svg width="60" height="60" viewBox="0 0 60 60" fill="none" xmlns="http://www.w3.org/2000/svg">
<path d="M9.70007 52.8999C8.20007 52.8999 6.69996 52.2999 5.64996 51.2499C4.59996 50.1999 4 48.6999 4 47.1999V12.5499C4 9.3999 6.55007 6.99988 9.70007 6.99988H21.1C23.2 6.99988 25.1501 8.19993 26.2001 10.1499L28.15 13.8999C28.3 14.3499 28.7501 14.4999 29.2001 14.4999H50.65C52.15 14.4999 53.5001 15.0999 54.7001 16.1499C55.7501 17.1999 56.35 18.6999 56.35 20.1999V47.3499C56.35 50.4999 53.8 53.0499 50.65 53.0499L9.70007 52.8999ZM21.25 11.4999H9.85004C9.25004 11.4999 8.80011 11.9499 8.80011 12.5499V47.1999C8.80011 47.4999 8.95004 47.7999 9.10004 47.9499C9.25004 48.0999 9.55004 48.2499 9.85004 48.2499H50.65C51.25 48.2499 51.7 47.7999 51.85 47.0499V19.8999C51.85 19.5999 51.7001 19.2999 51.5501 19.1499C51.4001 18.9999 51.1001 18.8499 50.8001 18.8499H29.35C27.25 18.8499 25.3 17.6499 24.25 15.6999L22.3001 11.9499C22.0001 11.6499 21.7 11.4999 21.25 11.4999Z" fill="#F5ECDC"/>
</svg>
