<svg width="45" height="45" viewBox="0 0 45 45" fill="none" xmlns="http://www.w3.org/2000/svg">
<path d="M32.2801 7.6676C32.1929 7.05726 32.1058 6.44691 31.9314 5.83656C31.6698 4.44149 32.4544 3.30798 33.7623 3.04641C34.983 2.78483 36.1166 3.65676 36.291 4.96464C36.7269 7.49321 37.1629 10.0218 37.5989 12.5504C37.8604 13.9454 36.9883 14.9917 35.6805 15.1661C33.1519 15.6021 30.6234 16.038 28.0948 16.474C26.7869 16.6484 25.7406 15.9509 25.479 14.7302C25.2175 13.5095 26.0022 12.376 27.2229 12.1144C28.182 11.94 29.054 11.7656 30.1003 11.5912C29.8387 11.4169 29.7514 11.3297 29.577 11.3297C20.8578 6.70847 10.046 12.2888 8.65092 22.0543C7.60462 29.8144 12.749 36.9641 20.2475 38.3592C28.3564 39.8415 35.8549 34.6099 37.25 26.4139C37.4243 25.2804 38.2092 24.4957 39.3427 24.4085C40.389 24.3213 41.3481 25.0188 41.5225 25.9779C41.6097 26.5883 41.6096 27.1986 41.4352 27.809C39.953 35.3947 33.7623 41.4109 26.1766 42.7188C15.9751 44.4626 6.47121 37.9232 4.3786 27.8961C2.28599 17.6075 9.08693 7.49322 19.3756 5.575C23.648 4.79027 27.746 5.40059 31.5825 7.40601C31.9312 7.58039 32.1057 7.58041 32.2801 7.6676Z" fill="#5F3B28"/>
</svg>
