<svg width="40" height="40" viewBox="0 0 40 40" fill="none" xmlns="http://www.w3.org/2000/svg">
<g clip-path="url(#clip0_118_169)">
<path d="M20.0455 0H19.9544C8.9339 0 0 8.9339 0 19.9544V20.0455C0 31.0661 8.9339 40 19.9544 40H20.0455C31.0661 40 40 31.0661 40 20.0455V19.9544C40 8.9339 31.0661 0 20.0455 0Z" fill="#F5ECDC"/>
<path d="M30.0094 10.8175C28.168 9.97241 26.1948 9.35019 24.1306 8.99424C24.0927 8.98723 24.0549 9.00406 24.0367 9.03909C23.783 9.49034 23.5013 10.0803 23.3051 10.5428C21.0853 10.2107 18.8768 10.2107 16.7018 10.5428C16.5042 10.0691 16.2127 9.49034 15.9576 9.03909C15.938 9.00546 15.9002 8.98863 15.8638 8.99424C13.8009 9.35019 11.8263 9.97241 9.98491 10.8175C9.9695 10.8245 9.95548 10.8357 9.94567 10.8511C6.20114 16.4455 5.17529 21.9025 5.67839 27.2923C5.6812 27.3189 5.69521 27.3441 5.71623 27.3595C8.18689 29.1743 10.5805 30.2758 12.9292 31.006C12.9671 31.0172 13.0063 31.0031 13.0301 30.9723C13.5851 30.2142 14.0812 29.414 14.5058 28.5717C14.531 28.5227 14.5058 28.4638 14.4553 28.4442C13.6692 28.1457 12.9222 27.7827 12.2019 27.3707C12.1444 27.3371 12.1403 27.2558 12.1921 27.2166C12.3435 27.1031 12.4948 26.9853 12.6391 26.8662C12.6658 26.8438 12.7022 26.8396 12.733 26.8536C17.4599 29.0118 22.5778 29.0118 27.2487 26.8536C27.2795 26.8382 27.3159 26.8438 27.3426 26.8648C27.4869 26.9839 27.6383 27.1031 27.791 27.2166C27.8429 27.2558 27.8401 27.3371 27.7826 27.3707C27.0637 27.7911 26.3153 28.1471 25.5278 28.4442C25.4759 28.4638 25.4535 28.5227 25.4787 28.5731C25.9131 29.4126 26.4078 30.2128 26.953 30.9723C26.9754 31.0045 27.016 31.0186 27.0539 31.0073C29.4138 30.2772 31.8074 29.1757 34.2781 27.3609C34.2991 27.3455 34.3131 27.3203 34.3159 27.295C34.9185 21.0644 33.3069 15.6523 30.0459 10.8539C30.0375 10.8385 30.0248 10.8259 30.008 10.8189L30.0094 10.8175ZM15.2093 24.0102C13.7855 24.0102 12.6139 22.7041 12.6139 21.0995C12.6139 19.4949 13.7644 18.1888 15.2093 18.1888C16.6541 18.1888 17.8285 19.5075 17.8047 21.0995C17.8047 22.7041 16.6541 24.0102 15.2093 24.0102ZM24.8074 24.0102C23.3836 24.0102 22.2121 22.7041 22.2121 21.0995C22.2121 19.4949 23.3626 18.1888 24.8074 18.1888C26.2523 18.1888 27.4266 19.5075 27.4028 21.0995C27.4028 22.7041 26.2649 24.0102 24.8074 24.0102Z" fill="#5F3B28"/>
</g>
<defs>
<clipPath id="clip0_118_169">
<rect width="40" height="40" fill="white"/>
</clipPath>
</defs>
</svg>
