<svg width="40" height="40" viewBox="0 0 40 40" fill="none" xmlns="http://www.w3.org/2000/svg">
<g clip-path="url(#clip0_118_169)">
<path d="M20.0455 0H19.9544C8.9339 0 0 8.9339 0 19.9544V20.0455C0 31.0661 8.9339 40 19.9544 40H20.0455C31.0661 40 40 31.0661 40 20.0455V19.9544C40 8.9339 31.0661 0 20.0455 0Z" fill="#F5ECDC"/>
<path d="M29.8577 11.7059C28.1362 10.9159 26.2916 10.3342 24.3618 10.0015C24.3264 9.99491 24.291 10.0106 24.274 10.0434C24.0368 10.4652 23.7735 11.0168 23.5901 11.4491C21.5149 11.1386 19.4502 11.1386 17.4169 11.4491C17.2322 11.0063 16.9596 10.4652 16.7212 10.0434C16.7029 10.012 16.6675 9.99622 16.6334 10.0015C14.705 10.3342 12.859 10.9159 11.1375 11.7059C11.1231 11.7125 11.11 11.7229 11.1009 11.7374C7.60024 16.9673 6.64121 22.0689 7.11154 27.1076C7.11416 27.1325 7.12726 27.156 7.14692 27.1705C9.45664 28.867 11.6943 29.8968 13.8901 30.5794C13.9255 30.5898 13.9621 30.5767 13.9844 30.5479C14.5032 29.8391 14.967 29.0911 15.364 28.3037C15.3875 28.2578 15.3639 28.2028 15.3168 28.1845C14.5818 27.9054 13.8835 27.5661 13.2101 27.1809C13.1564 27.1495 13.1525 27.0735 13.201 27.0368C13.3425 26.9307 13.4839 26.8207 13.6189 26.7093C13.6438 26.6883 13.6778 26.6844 13.7066 26.6975C18.1256 28.7151 22.9102 28.7151 27.2768 26.6975C27.3056 26.6831 27.3396 26.6883 27.3645 26.708C27.4995 26.8193 27.641 26.9307 27.7838 27.0368C27.8322 27.0735 27.8296 27.1495 27.7759 27.1809C27.1038 27.574 26.4042 27.9067 25.668 28.1845C25.6195 28.2028 25.5985 28.2578 25.6221 28.305C26.0282 29.0898 26.4907 29.8378 27.0003 30.5479C27.0213 30.578 27.0593 30.5911 27.0946 30.5807C29.3009 29.8981 31.5385 28.8684 33.8483 27.1718C33.8679 27.1574 33.881 27.1338 33.8836 27.1102C34.447 21.2854 32.9404 16.2258 29.8917 11.74C29.8839 11.7256 29.8721 11.7138 29.8564 11.7072L29.8577 11.7059ZM16.0216 24.0393C14.6905 24.0393 13.5953 22.8183 13.5953 21.3182C13.5953 19.8181 14.6709 18.5971 16.0216 18.5971C17.3723 18.5971 18.4702 19.8299 18.4479 21.3182C18.4479 22.8183 17.3723 24.0393 16.0216 24.0393ZM24.9945 24.0393C23.6635 24.0393 22.5682 22.8183 22.5682 21.3182C22.5682 19.8181 23.6438 18.5971 24.9945 18.5971C26.3453 18.5971 27.4431 19.8299 27.4209 21.3182C27.4209 22.8183 26.3571 24.0393 24.9945 24.0393Z" fill="#5F3B28"/>
</g>
<defs>
<clipPath id="clip0_118_169">
<rect width="40" height="40" fill="white"/>
</clipPath>
</defs>
</svg>
