<svg width="40" height="40" viewBox="0 0 40 40" fill="none" xmlns="http://www.w3.org/2000/svg">
<g clip-path="url(#clip0_118_178)">
<path d="M20.0455 0H19.9544C8.9339 0 0 8.9339 0 19.9544V20.0455C0 31.0661 8.9339 40 19.9544 40H20.0455C31.0661 40 40 31.0661 40 20.0455V19.9544C40 8.9339 31.0661 0 20.0455 0Z" fill="#F5ECDC"/>
<path d="M30.5 11H10.5C9.125 11 8.0125 12.0125 8.0125 13.25L8 26.75C8 27.9875 9.125 29 10.5 29H30.5C31.875 29 33 27.9875 33 26.75V13.25C33 12.0125 31.875 11 30.5 11ZM30.5 15.5L20.5 21.125L10.5 15.5V13.25L20.5 18.875L30.5 13.25V15.5Z" fill="#5F3B28"/>
</g>
<defs>
<clipPath id="clip0_118_178">
<rect width="40" height="40" fill="white"/>
</clipPath>
</defs>
</svg>
