<svg width="84" height="85" viewBox="0 0 84 85" fill="none" xmlns="http://www.w3.org/2000/svg">
<g clip-path="url(#clip0_128_1361)">
<rect x="2.68018" y="3.49365" width="78.1893" height="78.1893" rx="39.0947" fill="#F5ECDC"/>
<path d="M2.68018 3.49365C28.4826 3.49365 54.2851 3.49365 80.8695 3.49365C80.8695 29.2961 80.8695 55.0986 80.8695 81.683C55.067 81.683 29.2645 81.683 2.68018 81.683C2.68018 55.8805 2.68018 30.078 2.68018 3.49365Z" fill="#0C0909"/>
<path d="M2.68018 3.49365C28.4826 3.49365 54.2851 3.49365 80.8695 3.49365C80.8695 29.2961 80.8695 55.0986 80.8695 81.683C55.067 81.683 29.2645 81.683 2.68018 81.683C2.68018 55.8805 2.68018 30.078 2.68018 3.49365ZM51.1142 8.36827C50.2373 9.80783 49.4779 11.2637 48.9682 12.8764C48.1646 12.9004 47.4259 12.8146 46.6421 12.6516C45.7507 12.4746 44.8696 12.3317 43.9641 12.2509C43.9073 12.0847 43.8504 11.9186 43.7919 11.7475C43.3659 10.5374 42.9722 9.45545 42.0876 8.49777C41.9811 8.36875 41.8747 8.23974 41.765 8.10682C41.4725 7.85056 41.4725 7.85056 41.0907 7.76474C40.4258 7.93886 40.1076 8.40475 39.7419 8.9669C39.549 9.38079 39.4108 9.78084 39.2728 10.2179C39.1986 10.1083 39.1244 9.99861 39.048 9.88563C38.2235 8.96056 37.027 8.22039 35.8324 7.87225C35.2314 7.85331 35.2314 7.85331 34.7378 8.02863C34.3479 8.61345 34.3832 8.93423 34.3859 9.63151C34.3851 9.83229 34.3843 10.0331 34.3835 10.2399C34.4264 10.8632 34.5451 11.3479 34.7378 11.9381C34.6604 11.9131 34.583 11.8881 34.5032 11.8624C33.9571 11.7497 33.4165 11.7466 32.8612 11.7426C32.6943 11.7378 32.6943 11.7378 32.5241 11.7328C32.0201 11.7291 31.6687 11.7492 31.2242 11.9967C30.9561 12.2378 30.9561 12.2378 30.9065 12.6027C31.0161 13.2053 31.2851 13.6092 31.6102 14.1274C30.8847 13.979 30.3521 13.7284 29.7239 13.3357C28.3032 12.4768 26.7419 11.9123 25.1987 11.3126C25.0877 11.2685 24.9768 11.2244 24.8625 11.1789C22.7245 10.3458 20.5359 10.1563 18.2594 10.1495C18.1529 10.1486 18.0464 10.1476 17.9366 10.1467C17.6292 10.1449 17.3218 10.1474 17.0145 10.1501C16.7471 10.1524 16.7471 10.1524 16.4742 10.1547C15.8176 10.2374 15.2612 10.4406 14.8056 10.9351C13.8076 12.8886 14.598 15.2309 15.2112 17.1975C15.3993 17.7443 15.6026 18.2814 15.816 18.8188C15.8536 18.9152 15.8912 19.0116 15.93 19.111C16.823 21.3744 18.0325 23.5302 19.6228 25.3799C19.9054 25.7285 20.1283 26.0923 20.351 26.4813C20.2008 26.4788 20.2008 26.4788 20.0476 26.4763C19.5916 26.4698 19.1356 26.4658 18.6797 26.4618C18.4434 26.4578 18.4434 26.4578 18.2023 26.4538C18.0496 26.4528 17.8969 26.4518 17.7396 26.4508C17.5295 26.4483 17.5295 26.4483 17.3152 26.4458C16.7468 26.4957 16.3011 26.6593 15.8514 27.0109C15.5629 27.3904 15.5591 27.7674 15.5729 28.2314C15.8216 29.4907 16.5718 30.6681 17.3798 31.6418C17.4314 31.745 17.483 31.8482 17.5361 31.9546C17.4212 31.9949 17.3063 32.0352 17.188 32.0767C15.7649 32.7021 14.6727 34.1427 14.0512 35.5311C12.9652 38.3999 13.398 41.4277 14.5967 44.1924C15.2029 45.504 15.9971 46.6968 17.0084 47.7292C17.5221 48.2766 17.5221 48.2766 17.5844 48.7103C17.5459 49.0389 17.5459 49.0389 17.3798 49.6253C17.3259 49.8856 17.2733 50.1462 17.2234 50.4072C14.8516 48.7644 13.5907 46.4447 12.532 43.8393C12.3772 43.8909 12.2224 43.9425 12.0629 43.9957C11.8924 45.7344 12.7153 47.2455 13.7556 48.5875C15.0251 50.1324 15.0251 50.1324 16.5979 51.3455C16.7011 51.3455 16.8043 51.3455 16.9106 51.3455C16.8768 51.5227 16.8429 51.6999 16.808 51.8824C16.4918 53.6949 16.393 55.4722 16.3926 57.3074C16.3919 57.4728 16.3919 57.4728 16.3911 57.6416C16.3874 58.9594 16.4569 60.2216 16.7542 61.5101C16.6599 61.5077 16.5655 61.5052 16.4682 61.5027C13.4058 61.4335 10.6653 61.6837 8.31958 63.8656C7.44542 64.799 6.91641 65.8072 6.43326 66.9834C6.34376 67.1944 6.34376 67.1944 6.25245 67.4097C5.66059 69.7059 6.04523 72.0581 7.20538 74.079C7.31182 74.2145 7.41825 74.35 7.52791 74.4895C7.59141 74.5752 7.65491 74.6609 7.72033 74.7491C9.41961 76.9149 12.233 77.9191 14.8777 78.2426C15.6277 78.2842 16.3747 78.2865 17.1256 78.2817C17.3151 78.2829 17.5046 78.2841 17.6999 78.2854C19.5527 78.2814 21.3519 78.072 23.1267 77.5291C23.2569 77.49 23.3871 77.4509 23.5213 77.4105C24.842 76.992 26.0537 76.3831 27.2646 75.7162C27.9432 75.3959 28.6803 75.3148 29.4209 75.4278C29.8087 75.6507 30.1074 75.8527 30.4471 76.1315C32.9155 78.0098 35.5996 78.8678 38.5593 79.6891C38.698 79.7276 38.8367 79.7662 38.9796 79.8059C40.6932 80.2678 42.31 80.4869 44.0873 80.4813C44.4122 80.4808 44.7369 80.4845 45.0618 80.4884C46.897 80.4975 48.6138 80.2523 50.2486 79.3764C50.3539 79.3214 50.4593 79.2664 50.5678 79.2098C52.2781 78.3 53.6671 77.215 54.7542 75.5842C55.0377 75.6067 55.3211 75.6296 55.6046 75.6526C55.7624 75.6653 55.9202 75.678 56.0829 75.6911C56.493 75.7281 56.8996 75.7725 57.3082 75.8218C60.2913 76.1558 63.4488 75.9249 66.245 74.8005C67.5367 74.2938 67.9597 73.8613 69.1065 73.0337C69.4525 72.6877 70.2366 71.6157 70.5974 71.1372C72.3011 68.6981 73.3094 65.109 73.0505 62.1356C72.7472 60.7481 71.8474 59.6042 70.703 58.782C69.1852 57.9508 67.4369 58.0291 65.7594 58.0502C65.5405 58.0518 65.3216 58.0532 65.1027 58.0545C64.5723 58.0582 64.0419 58.0633 63.5114 58.0698C63.5362 57.9841 63.561 57.8983 63.5865 57.81C63.6776 57.4001 63.701 57.016 63.7173 56.5964C63.7239 56.4361 63.7304 56.2759 63.7372 56.1108C63.7464 55.8613 63.7464 55.8613 63.7558 55.6068C63.7625 55.4381 63.7693 55.2694 63.7763 55.0955C63.7928 54.6796 63.8088 54.2636 63.8242 53.8476C63.9812 53.7718 64.1383 53.696 64.3001 53.6179C69.0941 51.2799 73.4089 48.2255 75.2631 43.0226C75.4348 42.2607 75.4497 41.5393 75.4451 40.7606C75.4443 40.6078 75.4436 40.455 75.4428 40.2975C75.4075 38.1235 74.8504 36.3735 73.3657 34.7565C71.8785 33.3413 70.4582 32.8112 68.4374 32.844C68.282 32.8435 68.1265 32.843 67.9664 32.8424C66.8349 32.8507 65.7482 32.9218 64.7625 33.5379C64.6077 33.6346 64.4528 33.7314 64.2933 33.8311C64.2389 33.5383 64.1874 33.245 64.137 32.9515C64.1079 32.7882 64.0789 32.6249 64.049 32.4567C63.8291 30.7116 64.0422 29.1355 64.4497 27.4391C64.8349 25.6891 65.0125 24.0121 65.0068 22.22C65.0072 22.1151 65.0075 22.0102 65.0078 21.9021C65.0073 20.5214 64.9751 19.1105 64.1663 17.9391C63.6753 17.6305 63.4611 17.6156 62.8859 17.7241C62.1868 18.1002 61.6092 18.4663 61.1658 19.1315C61.1548 19.0278 61.1439 18.9241 61.1326 18.8173C60.6733 14.5426 59.9558 8.10649 56.5569 5.01895C56.1133 4.71116 55.7893 4.63412 55.249 4.66649C53.5282 5.06408 52.0429 6.97195 51.1142 8.36827Z" fill="#FDC8CE"/>
<path d="M20.6637 32.2673C22.7502 32.114 24.6575 32.6774 26.2933 33.9875C29.5805 36.8407 31.187 40.6174 32.441 44.6896C32.4808 44.8173 32.5206 44.9449 32.5617 45.0765C32.8128 45.917 32.9432 46.7181 33.0176 47.5924C33.1724 47.5408 33.3272 47.4892 33.4868 47.436C33.4868 46.7136 33.4868 45.9911 33.4868 45.2467C34.3946 45.4222 35.292 45.6144 36.1882 45.8413C40.4398 46.9061 44.7209 47.1289 49.0744 46.5459C49.4462 46.4966 49.8185 46.4537 50.1912 46.411C52.9319 46.0738 55.5615 45.2934 58.1066 44.2303C58.2369 44.1766 58.3672 44.123 58.5015 44.0677C59.4501 43.6525 60.2186 43.097 61.0094 42.4319C61.3733 42.9779 61.371 43.2409 61.4003 43.8882C61.4439 44.8255 61.5672 45.7378 61.7035 46.6661C62.765 54.0833 63.403 62.7234 58.6754 69.0963C57.8427 70.1774 56.9153 71.1336 55.8489 71.9875C55.7973 71.9875 55.7457 71.9875 55.6925 71.9875C55.6695 71.7438 55.6695 71.7438 55.6461 71.4951C55.4261 69.3623 54.9635 67.6222 53.2613 66.1758C49.2727 63.1675 44.136 62.7696 39.3229 63.4355C37.5638 63.7058 35.8463 64.0823 34.1514 64.6279C34.0378 64.6636 33.9242 64.6994 33.8071 64.7362C33.0163 65.0041 32.4142 65.3582 31.7666 65.8887C31.715 66.0435 31.6634 66.1983 31.6102 66.3579C31.7123 66.328 31.8143 66.2981 31.9195 66.2673C34.0371 65.6509 36.1453 65.0779 38.3188 64.6962C38.6044 64.6453 38.8889 64.5886 39.1732 64.5308C40.4564 64.2991 41.7344 64.293 43.0356 64.2858C43.2189 64.2844 43.4021 64.2829 43.5909 64.2814C44.8356 64.2859 46.0238 64.4147 47.2481 64.6377C47.2481 64.7925 47.2481 64.9473 47.2481 65.1068C47.1965 65.1584 47.1449 65.21 47.0917 65.2632C47.0853 65.5759 47.085 65.8888 47.0917 66.2015C47.2465 65.737 47.2465 65.737 47.4045 65.2632C47.7657 65.2632 48.1269 65.2632 48.4991 65.2632C48.4991 65.3664 48.4991 65.4696 48.4991 65.576C48.5926 65.5985 48.6862 65.6211 48.7825 65.6444C49.056 65.7147 49.3258 65.7994 49.5938 65.8887C49.5938 66.3016 49.5938 66.7144 49.5938 67.1397C49.4389 67.1913 49.2841 67.243 49.1246 67.2961C49.5557 67.2183 49.5557 67.2183 49.9065 66.9834C49.9294 66.4569 49.9178 66.0788 49.7501 65.576C50.1899 65.6639 50.1899 65.6639 50.6884 65.8887C50.9621 66.4263 50.9621 66.4263 51.1575 66.9834C51.2607 67.1382 51.364 67.293 51.4703 67.4525C51.786 67.4558 51.786 67.4558 52.1349 67.3939C52.6177 67.3776 52.8019 67.3827 53.1624 67.7146C53.4171 68.0851 53.6215 68.4547 53.816 68.8599C53.8692 68.9651 53.9224 69.0704 53.9772 69.1788C54.5477 70.5468 54.4889 72.3457 54.0114 73.7272C53.358 75.2659 53.358 75.2659 52.7213 75.5842C52.7126 75.335 52.7126 75.335 52.7036 75.0808C52.6481 73.0936 52.648 73.0936 51.7146 71.3815C51.0657 70.8433 50.6526 70.6607 49.7831 70.6882C48.588 70.855 47.658 71.5149 46.9353 72.4566C46.0761 73.8259 45.6869 74.8992 45.8407 76.5225C46.1202 77.6186 46.6143 78.1293 47.5608 78.7118C47.5608 78.7634 47.5608 78.815 47.5608 78.8681C44.6556 79.5288 41.4713 79.0339 38.6472 78.2426C38.4944 78.2016 38.3416 78.1606 38.1841 78.1183C34.12 77.0191 30.829 75.2494 28.19 71.8946C27.8819 71.4831 27.8819 71.4831 27.388 71.362C27.388 71.6716 27.388 71.9812 27.388 72.3002C25.4119 70.8484 24.6816 68.492 24.2995 66.1593C24.0377 64.3243 23.9732 62.4372 24.2238 60.5995C24.2806 60.0714 24.2857 59.5434 24.298 59.0127C24.3424 57.2227 24.5786 55.5751 25.0423 53.8476C25.2672 53.8961 25.4919 53.9451 25.7167 53.9942C25.8419 54.0214 25.9671 54.0486 26.096 54.0766C26.4497 54.1603 26.4497 54.1603 26.9189 54.3167C27.1891 54.3273 27.4597 54.33 27.7301 54.3265C27.871 54.3251 28.0119 54.3237 28.1571 54.3222C28.2645 54.3204 28.3719 54.3186 28.4826 54.3167C28.5342 54.2135 28.5858 54.1103 28.639 54.0039C28.3487 53.9169 28.3487 53.9169 28.0526 53.828C24.3981 52.6003 20.4522 49.8026 18.0053 46.8105C17.8197 46.6085 17.634 46.4065 17.4482 46.2046C15.4812 43.9215 14.6599 40.8715 14.8777 37.8969C15.0266 37.0122 15.2335 36.1877 15.6596 35.3949C15.7628 35.3949 15.866 35.3949 15.9723 35.3949C16.2094 35.6411 16.2094 35.6411 16.4806 35.9715C16.9546 36.5275 17.4139 36.9977 18.0053 37.4278C18.1601 37.4278 18.3149 37.4278 18.4744 37.4278C18.3888 36.9001 18.3094 36.633 18.0053 36.1768C17.9217 35.5502 17.9789 35.2842 18.2985 34.7303C18.6308 34.3002 18.6308 34.3002 18.9435 33.9875C19.7203 33.9142 20.2064 33.9623 20.8201 34.4566C20.9774 34.7167 21.1339 34.9773 21.2892 35.2385C21.444 35.2385 21.5989 35.2385 21.7584 35.2385C21.7172 34.2927 21.3766 33.7026 20.8635 32.9142C20.6637 32.5801 20.6637 32.5801 20.6637 32.2673Z" fill="#2A2420"/>
<path d="M57.6548 23.2471C59.5137 24.8629 61.0861 26.49 61.977 28.8074C62.0161 28.9088 62.0553 29.0101 62.0956 29.1145C62.5883 30.4564 62.7879 31.7793 62.7784 33.2056C62.7775 33.3477 62.7767 33.4898 62.7758 33.6362C62.7337 36.0227 62.4527 39.6585 60.726 41.4643C60.51 41.6335 60.2915 41.7994 60.0711 41.9628C59.9702 42.0381 59.8693 42.1134 59.7653 42.1909C58.8277 42.851 57.8639 43.2516 56.7872 43.6341C56.6263 43.693 56.4655 43.752 56.2997 43.8128C55.8377 43.9811 55.3745 44.1453 54.9106 44.3085C54.7884 44.353 54.6661 44.3976 54.5401 44.4435C53.6387 44.7623 52.735 44.9442 51.7928 45.1001C51.5552 45.1398 51.5552 45.1398 51.3129 45.1803C50.8444 45.2569 50.3756 45.3308 49.9065 45.4031C49.7836 45.4223 49.6607 45.4416 49.5341 45.4614C44.8027 46.1738 37.3604 46.4739 33.174 43.6829C33.0189 43.2395 33.0189 43.2395 32.8808 42.686C32.0939 39.7881 30.6374 36.6114 28.4826 34.4566C28.194 31.5476 29.5781 28.5263 31.3769 26.298C37.7187 19.1014 49.9884 16.7194 57.6548 23.2471Z" fill="#FC968D"/>
<path d="M55.8489 5.99571C56.6317 6.67153 57.0472 7.72344 57.4225 8.66392C57.4754 8.79371 57.5284 8.92351 57.583 9.05723C58.3912 11.064 59.0191 13.1009 59.4456 15.222C59.4741 15.359 59.5026 15.4959 59.532 15.637C59.7764 16.9245 59.795 18.1759 59.7779 19.4834C59.7763 19.6933 59.7749 19.9032 59.7736 20.1132C59.77 20.62 59.7649 21.1268 59.7584 21.6336C59.6735 21.5695 59.5886 21.5054 59.5012 21.4393C59.3893 21.3551 59.2774 21.2708 59.1622 21.184C58.9962 21.0588 58.9962 21.0588 58.8268 20.9311C58.5692 20.7409 58.3046 20.5602 58.0382 20.3825C58.4652 21.2187 58.9827 21.8567 59.6166 22.5474C59.9735 22.951 60.2584 23.3648 60.5403 23.8229C60.4886 23.9261 60.437 24.0293 60.3839 24.1356C60.2873 24.0354 60.1908 23.9353 60.0913 23.832C56.8832 20.5556 52.9681 18.5309 48.3397 18.459C47.9582 18.4562 47.5768 18.4556 47.1954 18.4566C46.8104 18.4571 46.4256 18.4534 46.0407 18.4495C43.8273 18.4404 41.7661 18.7478 39.6637 19.4736C39.5256 19.5207 39.3875 19.5678 39.2452 19.6163C36.2912 20.6553 33.6677 22.2345 31.4538 24.4484C31.3381 24.5641 31.2224 24.6798 31.1032 24.799C29.2978 26.7168 28.2698 29.0329 27.6536 31.5561C27.6234 31.6793 27.5932 31.8025 27.5621 31.9295C27.5359 32.0398 27.5098 32.15 27.4829 32.2636C27.3816 32.6015 27.2413 32.895 27.0752 33.2056C26.9301 33.0669 26.785 32.9282 26.6354 32.7853C25.4866 31.7976 23.857 31.1092 22.3399 31.1696C22.1567 31.1741 21.9734 31.1787 21.7846 31.1834C21.4022 31.1958 21.0198 31.21 20.6374 31.2261C19.074 31.2597 19.074 31.2597 18.5416 30.844C18.1424 30.3678 17.7993 29.8965 17.4775 29.3645C17.3699 29.1902 17.2622 29.0158 17.1513 28.8361C16.9106 28.3579 16.9106 28.3579 16.9106 27.7323C17.5724 27.5118 18.2013 27.546 18.8947 27.5466C19.0412 27.5468 19.1876 27.5469 19.3385 27.547C21.0188 27.5616 22.6473 27.7105 24.2604 28.2015C23.8467 27.6507 23.433 27.2353 22.8823 26.8234C22.1474 26.2449 21.5517 25.6533 20.9765 24.9175C20.9134 24.8371 20.8503 24.7567 20.7854 24.6739C18.1934 21.3395 15.1102 16.1767 15.6596 11.7817C15.816 11.469 15.816 11.469 16.0821 11.3732C18.277 11.0029 20.8789 11.1407 23.0094 11.7817C23.1432 11.8204 23.277 11.8591 23.4148 11.899C27.3191 13.0476 30.6607 14.7866 33.7366 17.4407C34.1125 17.7243 34.4505 17.885 34.8942 18.0369C34.7394 17.4176 34.7394 17.4176 34.5814 16.7858C38.6927 14.5141 44.3091 14.1262 48.8119 15.222C48.9667 15.2737 49.1215 15.3253 49.281 15.3784C49.499 15.3889 49.7176 15.3918 49.9358 15.3882C50.1326 15.385 50.3293 15.3818 50.532 15.3784C50.2224 15.2236 49.9128 15.0688 49.5938 14.9093C49.6711 13.9328 49.9055 13.1751 50.317 12.29C50.3731 12.1671 50.4293 12.0442 50.4871 11.9176C53.3618 5.72715 53.3618 5.72715 55.8489 5.99571Z" fill="#FCFCFC"/>
<path d="M70.2376 34.3235C70.5485 34.4566 70.5485 34.4566 71.0176 34.7694C70.8091 35.5623 70.4765 36.0285 69.9327 36.6361C69.3392 37.2997 68.9837 37.8568 68.6719 38.6788C69.7173 38.4266 70.1226 37.8224 70.7733 37.0112C71.174 36.6459 71.174 36.6459 71.6596 36.5702C72.3378 36.6837 72.5636 36.9521 73.0505 37.4278C73.2964 37.9195 73.2879 38.4565 73.2069 38.9916C72.8797 39.7058 72.4154 40.0512 71.78 40.4967C71.0778 40.9478 71.0778 40.9478 70.7049 41.65C70.8182 41.6297 70.9314 41.6093 71.0482 41.5883C72.2355 41.4189 72.2355 41.4189 72.7427 41.6189C73.181 41.9487 73.3619 42.2716 73.5392 42.7838C73.4706 44.8436 71.6396 46.6528 70.2736 48.0249C68.5606 49.6073 66.4997 50.8773 64.4497 51.971C64.2795 52.0648 64.2795 52.0648 64.1058 52.1604C63.8242 52.2838 63.8242 52.2838 63.3551 52.2838C63.3425 52.1682 63.3299 52.0525 63.317 51.9334C63.2583 51.3953 63.1992 50.8573 63.1401 50.3193C63.1203 50.1375 63.1005 49.9558 63.0802 49.7686C62.975 48.814 62.8577 47.864 62.7186 46.9138C62.5457 45.6267 62.4982 44.3544 62.495 43.0574C62.4944 42.9391 62.4938 42.8207 62.4932 42.6988C62.4917 40.712 62.725 38.882 63.3897 36.9954C63.5155 36.6489 63.5155 36.6489 63.603 36.2979C63.7887 35.6552 63.9715 35.3384 64.5627 35.0046C64.787 34.8991 65.0133 34.7979 65.2414 34.701C65.356 34.6482 65.4706 34.5955 65.5887 34.5412C65.8851 34.4054 66.1838 34.2743 66.4826 34.1439C67.5468 33.6118 69.1555 33.9634 70.2376 34.3235Z" fill="#2B2521"/>
<path d="M66.6977 59.2817C66.8664 59.2805 67.0351 59.2793 67.209 59.2781C67.3704 59.2785 67.5319 59.2789 67.6982 59.2793C67.917 59.2798 67.917 59.2798 68.1401 59.2803C68.5156 59.3208 68.5156 59.3208 68.9847 59.6336C69.0041 59.8045 69.0234 59.9755 69.0433 60.1516C69.1636 60.8612 69.3472 61.0879 69.923 61.5101C70.4742 61.5763 70.8044 61.5291 71.3304 61.3537C71.7257 61.9467 71.6782 62.4185 71.6627 63.1032C71.6613 63.2204 71.6599 63.3377 71.6584 63.4584C71.6547 63.7473 71.6491 64.0361 71.6431 64.3249C71.4956 64.3343 71.4956 64.3343 71.345 64.3439C70.3032 64.4709 69.7752 64.7838 69.1234 65.6022C67.7147 67.7167 67.3722 69.4887 67.4209 71.9875C67.4209 72.1939 67.4209 72.4003 67.4209 72.613C65.5037 74.4553 62.1567 74.5358 59.693 74.5134C58.3916 74.458 57.3236 74.1294 56.1617 73.5513C56.583 73.126 57.008 72.707 57.4438 72.2966C61.0195 68.8883 62.6735 64.4695 63.3551 59.6336C64.4855 59.335 65.5313 59.2732 66.6977 59.2817Z" fill="#292420"/>
<path d="M14.0005 62.8302C14.1997 62.8364 14.3988 62.8427 14.604 62.8491C14.7085 62.8522 14.813 62.8552 14.9206 62.8584C16.6448 62.9282 16.6448 62.9282 17.3052 63.4007C17.7187 63.9356 17.8829 64.6034 18.0951 65.2388C18.2982 65.8167 18.4925 66.2421 18.8953 66.7067C19.4724 67.4694 19.3121 68.3501 19.2661 69.2606C19.2116 71.4247 19.489 73.2407 20.6637 75.1151C20.7916 75.2424 20.7916 75.2424 20.9221 75.3722C21.1328 75.5842 21.1328 75.5842 21.1328 75.8969C21.4425 76.0518 21.4425 76.0518 21.7584 76.2097C20.8756 77.0924 18.8412 76.8755 17.6678 76.878C17.4727 76.8768 17.2777 76.8756 17.0768 76.8743C16.8775 76.8755 16.6782 76.8767 16.4729 76.878C16.2805 76.8776 16.0881 76.8772 15.8899 76.8768C15.7177 76.8764 15.5456 76.8761 15.3683 76.8757C14.1177 76.7725 13.351 76.1782 12.532 75.2714C12.207 74.7714 11.9696 74.2612 11.7501 73.7076C11.6809 73.5389 11.6809 73.5389 11.6102 73.3668C10.7196 70.9712 10.6105 68.1862 11.5058 65.7928C11.863 65.0186 12.3085 64.3592 12.8448 63.6994C12.9357 63.5577 13.0266 63.416 13.1203 63.27C13.4703 62.9175 13.4703 62.9175 14.0005 62.8302Z" fill="#E55244"/>
<path d="M49.7323 29.4415C49.8695 29.4396 49.9369 29.4433 50.0782 29.4413C51.4331 29.4383 52.6667 29.8552 53.8839 30.4792C54.0385 30.5562 54.4166 30.6047 54.5759 30.684C54.9867 30.9454 55.3702 31.4444 55.6138 31.8631C55.7875 33.2779 54.8804 34.4613 54.031 35.5806C53.014 36.7675 51.8602 37.695 50.3756 38.2097C50.2749 38.2448 50.1741 38.2799 50.0702 38.316C48.146 38.887 46.3063 38.3839 44.5707 37.4889C43.1746 36.6447 41.708 35.4476 41.2092 33.8311C41.1404 33.2977 41.2204 33.0062 41.5451 32.5746C43.7428 30.4466 46.7907 29.4437 49.7323 29.4415Z" fill="#FBFBFB"/>
<path d="M18.7872 49.7817C19.3545 49.9413 19.7169 50.205 20.1457 50.5929C21.3449 51.6753 22.6741 52.4799 24.104 53.222C24.0259 53.7971 23.941 54.3685 23.8353 54.9392C23.8053 55.1011 23.8053 55.1011 23.7748 55.2663C23.7342 55.4838 23.6931 55.7013 23.6514 55.9187C23.3194 57.7311 23.293 59.5494 23.2932 61.3861C23.2928 61.7706 23.29 62.1551 23.287 62.5397C23.2794 64.6102 23.2984 66.7701 24.0259 68.7329C24.092 68.9157 24.1581 69.0985 24.2262 69.2869C24.2891 69.4556 24.352 69.6243 24.4168 69.7982C24.5222 70.1105 24.6269 70.4232 24.7296 70.7364C22.8931 69.6791 21.4379 68.0525 20.1946 66.3579C20.123 66.2631 20.0515 66.1684 19.9777 66.0708C17.5704 62.5927 17.3641 57.2389 18.0181 53.2226C18.1058 52.7498 18.2058 52.2823 18.318 51.8146C18.4212 51.8146 18.5245 51.8146 18.6308 51.8146C18.5985 51.6534 18.5663 51.4921 18.5331 51.326C18.4725 50.7007 18.5497 50.3545 18.7872 49.7817Z" fill="#FB968D"/>
<path d="M54.461 25.9926C55.3024 26.1434 55.8055 26.7792 56.318 27.4196C57.0602 28.541 57.387 29.511 57.2563 30.8599C57.0608 31.4072 57.0608 31.4072 56.7872 31.7982C56.4573 31.9008 56.4573 31.9008 56.1617 31.9546C56.1471 32.24 56.1471 32.24 56.1323 32.5312C55.8024 35.3098 53.7717 37.917 51.6267 39.6171C48.4473 41.9793 48.4473 41.9793 46.727 41.8919C45.9836 41.7395 45.4711 41.3541 44.9024 40.8681C44.8133 40.7944 44.7242 40.7206 44.6324 40.6446C42.8814 39.0429 40.8284 36.1806 40.4713 33.7926C40.456 32.9374 40.5598 32.4595 41.1493 31.7982C41.9332 31.0125 42.8262 30.5435 43.8371 30.1171C43.9399 30.0731 44.0428 30.029 44.1487 29.9837C45.981 29.252 47.8311 29.0632 49.7892 29.0811C50.0904 29.0784 50.0904 29.0784 50.3976 29.0756C51.5637 29.0792 52.568 29.1883 53.6596 29.6089C53.5822 29.3331 53.5822 29.3331 53.5032 29.0518C53.2628 28.078 53.268 27.2605 53.6596 26.3249C53.9724 26.0122 53.9724 26.0122 54.461 25.9926ZM42.0876 32.1109C41.9951 32.1769 41.9025 32.2428 41.8072 32.3107C41.3745 32.6707 41.3001 32.9236 41.1982 33.4792C41.2828 34.6963 42.2901 35.7003 43.1328 36.503C44.6715 37.7745 46.66 38.6729 48.6848 38.5817C50.8452 38.2907 52.5751 37.2998 53.9809 35.6496C54.7978 34.5456 55.2113 33.49 55.29 32.1262C55.1878 31.623 54.9555 31.3803 54.5979 31.0163C54.0956 30.7275 54.0956 30.7275 53.5325 30.5081C53.3477 30.4298 53.1628 30.3516 52.9724 30.271C49.4754 29.0738 45.0019 29.9999 42.0876 32.1109Z" fill="#0E0908"/>
<path d="M38.96 28.6706C39.7949 29.4472 40.1445 30.341 40.2556 31.4689C40.2882 32.5722 40.2597 33.8449 39.5128 34.7272C38.9271 35.2385 38.9271 35.2385 38.4909 35.2385C38.499 35.3888 38.499 35.3888 38.5074 35.5421C38.5434 36.6941 38.346 37.5076 37.6308 38.4345C37.5018 38.5667 37.3728 38.699 37.2399 38.8352C36.8487 39.0356 37.2399 38.8352 36.7707 39.148C35.7136 39.4479 34.5353 39.4315 33.5051 39.0356C32.8025 38.6104 32.3963 38.0189 32.0794 37.2714C31.9003 36.1669 31.9442 35.0991 32.5485 34.1439C33.1774 33.4761 33.8316 32.9312 34.7751 32.8702C35.7529 32.8531 35.7529 32.8531 36.1452 33.0492C36.1355 32.875 36.1258 32.7009 36.1159 32.5214C36.121 31.0623 36.7056 29.7185 37.6992 28.6608C38.1917 28.437 38.4523 28.4944 38.96 28.6706Z" fill="#FD7E73"/>
<path d="M35.3633 8.9669C36.7815 9.02725 37.6898 9.83402 38.6277 10.8434C39.0056 11.266 39.2708 11.6213 39.5183 12.1336C39.7033 12.6112 39.7033 12.6112 40.211 12.72C40.2038 12.5521 40.1965 12.3842 40.1891 12.2111C40.1231 10.0151 40.1231 10.0151 40.8366 9.12328C41.6027 9.44862 41.8811 9.96129 42.244 10.6871C42.6236 11.6392 42.7698 12.4806 42.7131 13.5019C43.3324 13.5019 43.9516 13.5019 44.5896 13.5019C44.5896 13.5535 44.5896 13.6051 44.5896 13.6583C44.467 13.6692 44.3444 13.6801 44.218 13.6914C40.3812 14.0409 37.064 14.718 33.4868 16.1603C33.2803 15.9539 33.0739 15.7475 32.8613 15.5348C32.9129 15.38 32.9645 15.2252 33.0176 15.0657C33.3789 15.1173 33.7401 15.1689 34.1123 15.222C34.0058 15.1188 33.8994 15.0156 33.7897 14.9093C33.4287 14.5461 33.0784 14.1743 32.7342 13.7951C32.6397 13.6915 32.5451 13.5879 32.4477 13.4811C32.2357 13.1891 32.2357 13.1891 32.2357 12.72C33.4603 12.6528 34.498 12.597 35.5197 13.3455C35.731 13.5511 35.9405 13.7588 36.1452 13.971C36.3 13.971 36.4548 13.971 36.6143 13.971C36.5389 13.1784 36.2785 12.7433 35.8324 12.0945C35.5518 11.3925 35.4646 10.7555 35.422 10.0029C35.4103 9.80818 35.3986 9.61346 35.3865 9.41283C35.3789 9.26567 35.3712 9.11852 35.3633 8.9669Z" fill="#F8948B"/>
<path d="M51.0305 71.4206C51.9055 72.2373 52.1321 73.2295 52.1838 74.4016C52.1409 75.4411 51.9532 76.3103 51.3139 77.148C50.544 77.7892 49.7057 78.2966 48.6848 78.3404C47.7931 78.2547 47.1514 78.0228 46.5541 77.3337C46.1234 76.4516 46.1858 75.4396 46.3098 74.4895C46.4952 73.9524 46.7493 73.5332 47.0917 73.0821C47.2045 72.9303 47.2045 72.9303 47.3195 72.7755C48.2673 71.5901 49.5079 70.7638 51.0305 71.4206Z" fill="#FB6759"/>
<path d="M61.0094 29.2961C61.8621 29.9068 61.8621 29.9068 62.104 30.3908C62.2073 30.2876 62.3105 30.1844 62.4168 30.078C62.6596 31.0968 62.9109 32.1584 62.7296 33.2056C62.3973 33.6454 62.3973 33.6454 61.9477 33.9875C61.7993 34.1229 61.6509 34.2584 61.4981 34.398C60.543 35.1239 59.6864 35.3854 58.5073 35.2385C57.4805 34.9552 56.9279 34.355 56.318 33.5183C56.0598 33.0557 56.0004 32.8412 56.0248 32.3162C56.1988 31.8565 56.3588 31.8495 56.7872 31.6418C57.232 30.93 57.1282 30.105 57.0999 29.2961C58.5243 28.8058 59.6111 28.5452 61.0094 29.2961Z" fill="#FC7E73"/>
<path d="M25.0423 37.8969C25.6584 38.4124 25.9395 38.7517 26.0233 39.5603C26.0609 40.6884 25.961 41.4217 25.1987 42.2755C24.4009 43.0733 23.7372 43.5695 22.5793 43.595C21.6431 43.5767 21.0359 43.3885 20.351 42.7447C19.6597 41.9151 19.6277 41.1658 19.6668 40.1003C19.7849 39.1267 20.2018 38.6089 20.9667 38.0045C22.3695 37.0338 23.5503 37.1143 25.0423 37.8969Z" fill="#FC685A"/>
<path d="M68.3103 39.0014C69.023 39.4182 69.8571 39.9544 70.2357 40.7118C70.3546 41.8516 70.279 42.88 69.6102 43.8393C68.8511 44.4745 68.2002 44.5658 67.2199 44.5241C66.4358 44.4147 65.8372 44.1606 65.2994 43.5706C64.7605 42.8459 64.5806 42.2666 64.567 41.3568C64.561 41.1155 64.561 41.1155 64.5548 40.8694C64.6355 40.1294 64.981 39.7232 65.4662 39.1773C66.2849 38.5301 67.3734 38.7314 68.3103 39.0014Z" fill="#FC685A"/>
<path d="M11.9065 63.543C11.7372 63.7898 11.7372 63.7898 11.5644 64.0415C10.4086 65.8855 10.1558 67.6643 10.1473 69.7884C10.144 69.9828 10.1408 70.1773 10.1375 70.3776C10.1295 72.3034 10.3477 74.1126 11.4374 75.7406C9.6273 75.1017 8.51475 73.8022 7.70445 72.1176C7.07314 70.5338 7.24108 68.7265 7.79058 67.1452C8.46249 65.6006 9.59641 64.4074 11.0269 63.5333C11.4374 63.3867 11.4374 63.3867 11.9065 63.543Z" fill="#F69289"/>
<path d="M38.4909 28.4947C39.2264 28.7705 39.5592 29.2391 39.8946 29.918C40.4196 31.2671 40.376 32.7631 39.9032 34.1225C39.6205 34.7082 39.3804 34.9181 38.8036 35.2385C38.3093 35.3431 37.8893 35.3531 37.3962 35.2385C36.8733 34.838 36.5357 34.4433 36.3016 33.8311C36.1236 32.12 36.1602 30.5683 37.2398 29.1397C37.9166 28.5186 37.9166 28.5186 38.4909 28.4947Z" fill="#0A0604"/>
<path d="M20.1946 68.8599C20.7663 69.0977 21.1026 69.4376 21.5238 69.8861C22.2519 70.6337 23.0081 71.2285 23.8591 71.8299C24.5007 72.3318 24.7654 72.7698 24.9739 73.5513C25.1099 74.0551 25.2634 74.4987 25.5115 74.9587C25.2165 75.121 24.9196 75.28 24.6221 75.4376C24.457 75.5265 24.2919 75.6154 24.1218 75.707C23.5909 75.9141 23.3832 75.923 22.853 75.7406C21.2668 74.8483 20.8818 73.6311 20.351 71.9875C20.2994 71.8327 20.2478 71.6778 20.1946 71.5183C20.1821 71.3095 20.1777 71.1002 20.1793 70.891C20.1798 70.7726 20.1803 70.6541 20.1808 70.5321C20.1822 70.4093 20.1835 70.2864 20.1848 70.1598C20.1855 70.0351 20.1862 69.9104 20.187 69.782C20.1888 69.4746 20.1916 69.1673 20.1946 68.8599Z" fill="#F8948B"/>
<path d="M63.5115 19.1315C64.0609 21.6132 63.6267 24.3252 63.1987 26.7941C63.0955 26.7941 62.9923 26.7941 62.8859 26.7941C62.8065 26.6298 62.7271 26.4655 62.6453 26.2962C62.5368 26.0744 62.428 25.8526 62.3191 25.631C62.2627 25.5163 62.2064 25.4016 62.1483 25.2835C61.8334 24.6535 61.5034 24.0713 61.0876 23.5003C60.7833 23.0614 60.6946 22.8732 60.5989 22.3275C60.8412 20.9951 61.6256 20.0688 62.5732 19.1315C62.9627 18.9367 63.1066 19.01 63.5115 19.1315Z" fill="#F5ECDC"/>
<path d="M70.9981 64.97C71.1077 65.0151 71.2174 65.0603 71.3304 65.1068C71.2978 66.4204 70.9108 67.5056 70.3921 68.7035C70.3437 68.818 70.2954 68.9325 70.2455 69.0505C69.8138 69.991 69.2239 70.9221 68.5156 71.6747C68.3092 71.6747 68.1027 71.6747 67.8901 71.6747C67.734 69.3074 68.4065 67.4196 69.8619 65.5686C70.2364 65.1477 70.4196 64.9448 70.9981 64.97Z" fill="#F66557"/>
<path d="M50.5125 30.5081C50.7024 30.504 50.8923 30.5 51.0879 30.4958C51.659 30.5502 51.9486 30.684 52.4086 31.0163C52.3967 31.5152 52.3479 31.8478 52.0091 32.2258C51.2435 32.8928 51.2435 32.8928 50.8448 32.8928C50.8466 33.036 50.8484 33.1791 50.8503 33.3265C50.8517 33.5124 50.8531 33.6982 50.8546 33.8897C50.8564 34.0748 50.8582 34.2598 50.8601 34.4505C50.8448 34.9257 50.8448 34.9257 50.6884 35.2385C50.5336 35.2385 50.3788 35.2385 50.2193 35.2385C50.0031 34.8062 50.048 34.4494 50.0531 33.9679C50.0545 33.7966 50.0559 33.6252 50.0574 33.4487C50.0592 33.3169 50.061 33.185 50.0629 33.0492C49.9049 33.0395 49.7468 33.0299 49.584 33.0199C48.8926 32.9197 48.3506 32.6234 47.8736 32.1109C47.8052 31.6711 47.8052 31.6711 47.8736 31.329C48.8019 30.7861 49.4137 30.522 50.5125 30.5081Z" fill="#0C0C0C"/>
<path d="M43.3386 37.7406C43.5065 37.816 43.6744 37.8913 43.8475 37.969C44.072 38.0688 44.2966 38.1686 44.5212 38.2683C44.6314 38.3179 44.7416 38.3675 44.8551 38.4186C46.1747 39.0024 47.2848 39.1919 48.7239 39.1675C48.883 39.1661 49.0422 39.1647 49.2062 39.1632C49.596 39.1596 49.9858 39.1545 50.3756 39.148C50.2834 39.6454 50.2497 39.7485 49.8381 40.0862C48.8701 40.6726 47.7681 41.212 46.6226 41.0245C45.279 40.508 44.1182 39.4086 43.3386 38.2097C43.3386 38.0549 43.3386 37.9001 43.3386 37.7406Z" fill="#F33324"/>
<path d="M75.2398 47.436C75.3431 47.436 75.4463 47.436 75.5526 47.436C75.4039 48.8791 74.2926 49.8942 73.2136 50.7854C71.8595 51.834 70.1372 53.0226 68.3592 52.9093C68.3592 52.7029 68.3592 52.4965 68.3592 52.2838C68.46 52.2296 68.5607 52.1754 68.6645 52.1195C71.0816 50.8594 71.0816 50.8594 73.1947 49.1678C73.6868 48.6766 74.2352 48.2611 74.7811 47.8319C75.0669 47.615 75.0669 47.615 75.2398 47.436Z" fill="#1B1616"/>
<path d="M19.4616 33.9386C20.2408 34.0047 20.6082 34.2095 21.1133 34.7987C21.3565 35.4066 21.3543 35.8725 21.1328 36.4895C20.6698 37.0316 20.2771 37.318 19.5691 37.3887C19.0235 37.353 18.7681 37.1775 18.3962 36.7827C18.1103 36.3945 18.0057 36.179 17.9075 35.6979C18.0887 34.8463 18.5592 34.0237 19.4616 33.9386Z" fill="#F76658"/>
<path d="M71.6529 36.5189C72.2857 36.6939 72.5808 36.969 73.0505 37.4278C73.2997 37.9261 73.2682 38.4492 73.2069 38.9916C73.0261 39.3611 72.8707 39.6405 72.5814 39.9299C72.092 40.0317 71.6622 40.0396 71.174 39.9299C70.5966 39.4981 70.1306 39.0167 70.0201 38.2879C70.1485 37.4406 70.8409 36.7343 71.6529 36.5189Z" fill="#F86658"/>
<path d="M23.3906 32.9515C24.0313 33.0639 24.3832 33.2677 24.8859 33.6747C25.1396 34.1821 25.1286 34.6901 25.0423 35.2385C24.8406 35.707 24.679 35.8351 24.2604 36.1768C23.7634 36.3017 23.351 36.2939 22.853 36.1768C22.3741 35.8738 22.3741 35.8738 22.0711 35.3949C21.9361 34.7879 21.9462 34.2572 22.2098 33.6882C22.5541 33.2055 22.8116 33.0567 23.3906 32.9515Z" fill="#F96759"/>
<path d="M68.8283 34.9258C69.5429 35.2602 69.5429 35.2602 69.7666 35.7076C69.8699 36.4455 69.7723 36.8877 69.3659 37.4962C68.9888 37.9522 68.8791 38.0415 68.281 38.1804C67.5799 38.0176 67.2699 37.8137 66.7954 37.2714C66.6072 36.8347 66.5584 36.4898 66.639 36.0204C67.1385 34.9983 67.7386 34.7528 68.8283 34.9258Z" fill="#F86659"/>
<path d="M51.265 70.8146C51.9051 71.2419 52.3197 71.7219 52.5649 72.4566C52.7801 74.5882 52.7801 74.5882 52.2522 75.4278C52.2006 75.4278 52.149 75.4278 52.0958 75.4278C52.0918 75.2992 52.0877 75.1706 52.0836 75.0381C52.0189 73.7638 51.9446 72.4107 50.9523 71.4988C50.223 71.2613 49.6656 71.2753 48.9487 71.5477C47.9348 72.1869 46.8509 73.3355 46.4662 74.4895C46.4472 74.8443 46.4388 75.1996 46.4369 75.5549C46.4346 75.7429 46.4324 75.931 46.4301 76.1248C46.466 76.6758 46.5803 77.1044 46.7789 77.6171C46.6241 77.5655 46.4693 77.5139 46.3098 77.4607C45.9234 76.3014 45.6555 74.8472 45.9854 73.6527C46.2161 73.2112 46.4642 72.8424 46.7789 72.4566C46.9238 72.2785 46.9238 72.2785 47.0715 72.0968C48.2052 70.8491 49.6238 70.147 51.265 70.8146Z" fill="#210E0C"/>
<path d="M72.7378 41.65C73.2394 41.9933 73.3463 42.2182 73.5197 42.8033C73.5197 43.5161 73.37 43.7838 72.8942 44.3085C72.3498 44.5925 72.0638 44.6382 71.4574 44.543C70.8777 44.2339 70.748 43.9922 70.5485 43.3702C70.5595 42.7323 70.6021 42.4015 71.0079 41.9041C71.6244 41.4184 71.9739 41.4788 72.7378 41.65Z" fill="#F56557"/>
<path d="M17.8489 38.0533C18.303 38.364 18.454 38.6379 18.6992 39.1284C18.7872 39.6171 18.7872 39.6171 18.6406 40.1156C18.2231 40.6849 17.9016 40.8406 17.2234 41.0245C16.6899 40.9322 16.3993 40.8107 15.9919 40.4576C15.7348 39.9148 15.6964 39.4159 15.816 38.8352C16.3882 37.9768 16.8866 37.9158 17.8489 38.0533Z" fill="#F46557"/>
<path d="M19.8818 32.5801C20.2689 33.4316 20.2689 33.4316 20.6637 34.3002C20.4573 34.2486 20.2509 34.197 20.0382 34.1439C19.4909 34.0657 19.4909 34.0657 18.9436 34.1439C18.5373 34.5501 18.1761 34.9516 18.1464 35.5427C18.1482 35.6552 18.15 35.7677 18.1519 35.8836C18.1551 36.0835 18.1583 36.2835 18.1617 36.4895C17.3779 36.023 16.85 35.4825 16.2851 34.7694C17.1658 33.6105 18.3601 32.5801 19.8818 32.5801Z" fill="#2B2420"/>
<path d="M10.4991 48.2179C10.8924 48.2769 11.0807 48.3261 11.3525 48.6248C11.4574 48.7814 11.4574 48.7814 11.5644 48.9412C12.8023 50.6699 14.3967 51.5321 16.2851 52.4402C16.2851 52.5434 16.2851 52.6466 16.2851 52.7529C14.8545 52.8856 13.987 52.6868 12.8448 51.8146C12.7319 51.73 12.619 51.6453 12.5027 51.5581C11.5917 50.8196 10.6958 49.8783 10.5187 48.6773C10.5122 48.5257 10.5058 48.3741 10.4991 48.2179Z" fill="#211A1A"/>
<path d="M35.8324 8.02863C37.1166 8.23815 38.212 8.98728 39.1164 9.90517C39.168 10.0084 39.2196 10.1116 39.2728 10.2179C39.376 9.9083 39.4792 9.59867 39.5855 9.27966C39.7993 9.85693 39.6656 10.1353 39.4292 10.6871C39.3704 10.9986 39.3166 11.3113 39.2728 11.6253C39.1696 11.5189 39.0664 11.4125 38.96 11.3028C38.0405 10.3911 37.1791 9.65091 35.9888 9.12328C35.7799 9.01991 35.5713 8.91588 35.3633 8.81052C35.4665 8.70731 35.5697 8.6041 35.6761 8.49777C35.8309 8.49777 35.9857 8.49777 36.1452 8.49777C36.1452 8.39456 36.1452 8.29135 36.1452 8.18501C36.042 8.1334 35.9388 8.0818 35.8324 8.02863Z" fill="#201615"/>
<path d="M47.4045 65.2632C47.7657 65.2632 48.1269 65.2632 48.4991 65.2632C48.4991 65.3664 48.4991 65.4696 48.4991 65.576C48.6394 65.6098 48.6394 65.6098 48.7825 65.6444C49.056 65.7147 49.3258 65.7994 49.5938 65.8887C49.5938 66.3016 49.5938 66.7144 49.5938 67.1397C49.4389 67.1913 49.2841 67.243 49.1246 67.2961C49.2278 67.3993 49.331 67.5025 49.4374 67.6089C48.2226 67.7136 48.2226 67.7136 47.6488 67.2472C47.2481 66.827 47.2481 66.827 47.0917 66.3578C47.1852 65.9901 47.2885 65.6245 47.4045 65.2632Z" fill="#2A2A29"/>
<path d="M75.0835 52.1274C75.0835 52.2822 75.0835 52.437 75.0835 52.5965C71.4086 54.7873 71.4086 54.7873 69.7666 54.6295C69.7794 54.3448 69.7794 54.3448 69.923 54.0039C70.2761 53.8214 70.5967 53.685 70.9687 53.5544C71.1823 53.4749 71.3957 53.395 71.6089 53.3149C71.7182 53.2744 71.8274 53.2339 71.94 53.1921C72.6387 52.9233 73.3179 52.6067 74.0004 52.2997C74.458 52.1274 74.4579 52.1274 75.0835 52.1274Z" fill="#2C2323"/>
<path d="M35.0505 64.4813C35.0505 64.6361 35.0505 64.7909 35.0505 64.9504C35.1376 64.9246 35.2247 64.8988 35.3144 64.8723C35.7053 64.7877 36.0593 64.783 36.458 64.7941C36.458 64.8973 36.458 65.0005 36.458 65.1068C35.7972 65.3171 35.1356 65.525 34.4739 65.7323C34.2865 65.792 34.0992 65.8517 33.9061 65.9131C33.6347 65.9978 33.6347 65.9978 33.3579 66.0842C33.1916 66.1366 33.0254 66.189 32.8541 66.243C32.4175 66.3515 32.0575 66.381 31.6102 66.3579C31.7055 65.8094 31.7636 65.735 32.2162 65.3414C33.0032 64.8156 34.116 64.1698 35.0505 64.4813Z" fill="#060604"/>
<path d="M44.5896 66.6706C45.2289 66.5945 45.4906 66.6474 46.0459 66.9931C46.5437 67.5373 46.6492 67.8135 46.6226 68.5472C46.388 68.9283 46.388 68.9283 45.997 69.1727C45.4595 69.2704 45.4595 69.2704 44.9024 69.1727C44.3686 68.6956 44.1382 68.4259 44.0716 67.7066C44.0878 67.5712 44.1039 67.4357 44.1205 67.2961C44.1721 67.4509 44.2237 67.6058 44.2769 67.7653C44.4828 67.8746 44.6913 67.9791 44.9024 68.078C44.954 68.1812 45.0056 68.2844 45.0588 68.3908C45.3168 68.3908 45.5748 68.3908 45.8407 68.3908C45.7923 68.2714 45.7439 68.1521 45.6941 68.0291C45.5781 67.7359 45.4713 67.4389 45.3715 67.1397C45.0619 67.1397 44.7523 67.1397 44.4333 67.1397C44.4849 66.9849 44.5365 66.8301 44.5896 66.6706Z" fill="#151514"/>
<path d="M71.9559 35.5513C72.9747 36.4828 73.6761 37.562 73.9008 38.9427C73.8324 39.3044 73.8324 39.3044 73.461 39.5976C73.3256 39.6556 73.1901 39.7137 73.0505 39.7735C72.9473 39.7219 72.8441 39.6703 72.7378 39.6171C72.7894 39.5397 72.841 39.4623 72.8942 39.3825C73.114 38.8329 73.1414 38.3192 73.0505 37.7406C72.716 37.125 72.5044 36.9865 71.8386 36.7534C71.587 36.7002 71.587 36.7002 71.3304 36.6459C71.5368 36.2847 71.7432 35.9234 71.9559 35.5513Z" fill="#2F2520"/>
<path d="M67.7337 61.1974C67.7337 61.3006 67.7337 61.4038 67.7337 61.5101C67.4756 61.5101 67.2176 61.5101 66.9518 61.5101C66.9518 61.6133 66.9518 61.7165 66.9518 61.8229C66.8486 61.8229 66.7454 61.8229 66.639 61.8229C66.639 62.0293 66.639 62.2357 66.639 62.4484C67.3357 62.6032 67.3357 62.6032 68.0464 62.7611C68.0464 62.3483 68.0464 61.9355 68.0464 61.5101C68.2012 61.6133 68.3561 61.7165 68.5156 61.8229C68.578 62.3117 68.5889 62.6275 68.3494 63.0641C67.8425 63.3421 67.4968 63.2217 66.9518 63.0739C66.5518 62.8468 66.3365 62.6387 66.0135 62.292C65.9158 61.8815 65.9158 61.8815 66.0135 61.5101C66.5236 60.898 67.007 61.0436 67.7337 61.1974Z" fill="#080706"/>
<path d="M73.9888 40.5554C74.0211 41.4607 73.925 42.1863 73.6761 43.0574C73.3633 42.7447 73.3633 42.7447 73.1581 42.3733C72.8654 41.918 72.5469 41.6545 72.1123 41.3373C72.3364 41.2057 72.5613 41.0757 72.7867 40.9463C72.9118 40.8738 73.037 40.8012 73.166 40.7264C73.5197 40.5554 73.5197 40.5554 73.9888 40.5554Z" fill="#2B241F"/>
<path d="M47.7172 65.4196C48.8691 65.514 48.8691 65.514 49.281 65.7714C49.4896 66.1365 49.4709 66.4138 49.4374 66.827C48.2869 66.8836 48.2869 66.8836 47.8736 66.6511C47.6514 66.2344 47.6863 65.8833 47.7172 65.4196Z" fill="#F5ECDC"/>
<path d="M46.9353 72.7694C47.0526 73.0137 47.0526 73.0137 47.0917 73.3949C46.9917 73.5432 46.8917 73.6916 46.7887 73.8445C46.2582 74.6907 46.3714 75.7188 46.4662 76.6788C46.5604 76.9948 46.6617 77.309 46.7789 77.6171C46.6241 77.5655 46.4693 77.5139 46.3098 77.4607C46.1065 76.8508 46.0373 76.2498 45.958 75.6135C45.9398 75.4892 45.9217 75.365 45.903 75.2369C45.8041 74.4293 45.8435 73.9429 46.3098 73.2385C46.6519 72.9453 46.6519 72.9453 46.9353 72.7694Z" fill="#2F1411"/>
<path d="M50.6884 70.5801C50.8432 70.6833 50.998 70.7865 51.1575 70.8928C50.8738 71.1766 50.4166 71.0897 50.0336 71.1078C48.5762 71.2159 47.9021 71.7254 46.9353 72.7694C46.9353 72.2099 47.0156 72.1486 47.3947 71.7627C48.357 70.8469 49.365 70.4432 50.6884 70.5801Z" fill="#0D0907"/>
<path d="M44.1205 67.2961C44.1721 67.4509 44.2237 67.6058 44.2769 67.7653C44.4317 67.8169 44.5865 67.8685 44.746 67.9216C44.746 68.1797 44.746 68.4377 44.746 68.7035C45.2621 68.6519 45.7781 68.6003 46.3098 68.5472C46.2066 68.7536 46.1034 68.96 45.997 69.1727C45.4986 69.2313 45.4986 69.2313 44.9024 69.1727C44.3686 68.6956 44.1382 68.4259 44.0716 67.7066C44.0878 67.5712 44.1039 67.4357 44.1205 67.2961Z" fill="#0B0B0A"/>
<path d="M69.6102 59.6336C70.5094 59.7509 70.5094 59.7509 70.8612 60.1027C70.8026 60.5132 70.8026 60.5132 70.7049 60.8846C69.9621 60.7673 69.9621 60.7673 69.6102 60.4155C69.5907 60.005 69.5907 60.005 69.6102 59.6336Z" fill="#EAEAEA"/>
<path d="M44.746 67.2961C45.2339 67.3489 45.4686 67.3932 45.8211 67.7457C45.8792 67.8554 45.9372 67.965 45.9971 68.078C45.9454 68.2328 45.8938 68.3876 45.8407 68.5472C45.4693 68.5765 45.4693 68.5765 45.0588 68.5472C44.7223 68.0424 44.7146 67.8772 44.746 67.2961Z" fill="#F1F1F1"/>
<path d="M66.639 61.8229C67.1035 61.8745 67.5679 61.9261 68.0464 61.9792C68.0464 62.2373 68.0464 62.4953 68.0464 62.7611C67.5773 62.9175 67.5773 62.9175 67.0788 62.6927C66.9337 62.6121 66.7886 62.5315 66.639 62.4484C66.639 62.242 66.639 62.0355 66.639 61.8229Z" fill="#252525"/>
<path d="M25.5114 73.0821C26.0735 73.2909 26.5678 73.545 27.0752 73.864C26.8688 74.0704 26.6624 74.2769 26.4497 74.4895C25.9679 74.0559 25.7167 73.6977 25.5114 73.0821Z" fill="#CF4A3D"/>
<path d="M44.2769 66.827C44.6381 66.9302 44.9994 67.0334 45.3715 67.1397C45.1651 67.1913 44.9587 67.243 44.746 67.2961C44.6944 67.5025 44.6428 67.709 44.5896 67.9216C44.4864 67.87 44.3832 67.8184 44.2769 67.7653C44.1694 67.3743 44.1694 67.3743 44.1205 66.9834C44.1721 66.9318 44.2237 66.8802 44.2769 66.827Z" fill="#353534"/>
<path d="M66.7954 61.8229C67.0534 61.8229 67.3114 61.8229 67.5773 61.8229C67.6805 62.0293 67.7837 62.2357 67.89 62.4484C67.4256 62.371 67.4256 62.371 66.9518 62.292C66.9002 62.1372 66.8486 61.9824 66.7954 61.8229Z" fill="#E3E3E3"/>
</g>
<rect x="1.37702" y="2.1905" width="80.7956" height="80.7956" rx="40.3978" stroke="#F5ECDC" stroke-width="2.60631"/>
<defs>
<clipPath id="clip0_128_1361">
<rect x="2.68018" y="3.49365" width="78.1893" height="78.1893" rx="39.0947" fill="white"/>
</clipPath>
</defs>
</svg>
