<svg width="30" height="45" viewBox="0 0 30 45" fill="none" xmlns="http://www.w3.org/2000/svg">
<path d="M14.8848 35.4816C8.3048 35.4816 3 30.1258 3 23.5968V16.1498C3 15.4867 3.56111 14.9766 4.1732 14.9766C4.78529 14.9766 5.34639 15.5377 5.34639 16.1498V23.5458C5.34639 28.7996 9.63095 33.0332 14.8337 33.0332C20.0365 33.0332 24.3212 28.7486 24.3212 23.5458V16.1498C24.3212 15.4867 24.8823 14.9766 25.4944 14.9766C26.1064 14.9766 26.6674 15.5377 26.6674 16.1498V23.5458C26.8204 30.1258 21.4647 35.4816 14.8848 35.4816Z" fill="#5F3B28"/>
<path d="M14.8848 31.2474C10.6512 31.2474 7.18262 27.7789 7.18262 23.5453V8.70212C7.18262 4.4685 10.6512 1 14.8848 1C19.1184 1 22.5869 4.4685 22.5869 8.70212V23.5453C22.5869 27.8299 19.1694 31.2474 14.8848 31.2474Z" fill="#5F3B28"/>
<path d="M14.8334 43.0805C14.1703 43.0805 13.6602 42.5194 13.6602 41.9073V34.2562C13.6602 33.5931 14.2213 33.083 14.8334 33.083C15.4454 33.083 16.0066 33.6441 16.0066 34.2562V41.9073C16.0066 42.5704 15.4965 43.0805 14.8334 43.0805Z" fill="#5F3B28"/>
<path d="M24.1166 44.0006H5.39683C4.73373 44.0006 4.22363 43.4396 4.22363 42.8275C4.22363 42.2154 4.78474 41.6543 5.39683 41.6543H24.1166C24.7797 41.6543 25.2898 42.2154 25.2898 42.8275C25.2898 43.4396 24.7797 44.0006 24.1166 44.0006Z" fill="#5F3B28"/>
</svg>
