<svg width="40" height="40" viewBox="0 0 40 40" fill="none" xmlns="http://www.w3.org/2000/svg">
<g clip-path="url(#clip0_118_173)">
<path d="M20.0455 0H19.9544C8.9339 0 0 8.9339 0 19.9544V20.0455C0 31.0661 8.9339 40 19.9544 40H20.0455C31.0661 40 40 31.0661 40 20.0455V19.9544C40 8.9339 31.0661 0 20.0455 0Z" fill="#F5ECDC"/>
<path d="M30.961 23.5408C30.6752 22.6512 30.3628 21.7704 30.0242 20.8995L28.7653 17.7553C28.7665 17.718 28.7817 17.0997 28.7817 16.78C28.7805 11.404 26.243 6 20.0002 6C13.7573 6 11.2198 11.404 11.2198 16.7812C11.2198 17.1008 11.235 17.7192 11.2362 17.7565L9.97615 20.9007C9.63722 21.7713 9.32519 22.6522 9.04049 23.542C7.84932 27.3722 8.23549 28.9588 8.52949 28.9938C9.15949 29.0697 10.983 26.1098 10.983 26.1098C10.983 27.8237 11.865 30.0613 13.776 31.676C13.062 31.8953 12.1858 32.2348 11.6235 32.6502C11.1172 33.0235 11.1813 33.4038 11.2723 33.5578C11.6725 34.2322 18.1358 33.9883 20.0013 33.7783C21.868 33.9883 28.3313 34.2322 28.7315 33.5578C28.8225 33.4038 28.8855 33.0235 28.3803 32.6502C27.8168 32.2348 26.9418 31.8965 26.2267 31.6748C28.1365 30.0602 29.0185 27.8225 29.0185 26.1087C29.0185 26.1087 30.842 29.0685 31.472 28.9927C31.7648 28.9577 32.1498 27.371 30.961 23.5408ZM20.7725 11.6537C20.818 10.4263 21.5413 9.46267 22.3883 9.5C23.2353 9.53733 23.8828 10.564 23.8373 11.7913C23.7918 13.0175 23.0685 13.9823 22.2215 13.945C21.3745 13.9077 20.7258 12.881 20.7725 11.6537ZM17.6132 9.5C18.459 9.4615 19.1823 10.4263 19.2278 11.6537C19.2745 12.881 18.6247 13.9065 17.7788 13.9438C16.9318 13.9823 16.2085 13.0175 16.163 11.7913C16.1175 10.564 16.7662 9.5385 17.6132 9.5ZM14.658 15.6763C14.8843 15.1747 17.1628 14.617 19.985 14.617H20.0153C22.8363 14.617 25.116 15.1758 25.3423 15.6763C25.3531 15.6985 25.3587 15.7228 25.3587 15.7475C25.3579 15.7841 25.3478 15.8163 25.3283 15.8443C25.1382 16.122 22.6065 17.4963 20.0165 17.4963H19.9862C17.395 17.4963 14.8645 16.122 14.6743 15.8443C14.6566 15.8205 14.6457 15.7922 14.6428 15.7626C14.6399 15.733 14.6452 15.7032 14.658 15.6763ZM26.817 25.7353C26.5603 30.024 24.0135 32.7202 20.0807 32.7598H19.9208C15.9892 32.7213 13.4412 30.024 13.1857 25.7353C13.0912 24.1603 13.1868 22.8233 13.3572 21.7337C13.7282 21.8076 14.1007 21.876 14.4748 21.939V26.0293C14.4748 26.0293 16.4092 26.419 18.3458 26.1495V22.387C18.9152 22.4185 19.4658 22.4337 19.9862 22.4267H20.0153C21.973 22.4512 24.3483 22.1887 26.6455 21.7337C26.8158 22.8233 26.9103 24.1603 26.817 25.7353ZM18.2268 12.7713C18.592 12.7235 18.8592 12.2942 18.8195 11.8088C18.781 11.3247 18.4532 10.9688 18.0857 11.0167C17.7205 11.0633 17.4545 11.4938 17.493 11.978C17.5327 12.4645 17.8605 12.818 18.2268 12.7713ZM22.8923 12.0153C22.9833 12.0585 23.1502 12.0643 23.2295 11.845C23.2703 11.7342 23.2587 11.6525 23.219 11.5953C23.1922 11.5568 23.0638 11.4577 22.7862 11.39C21.7315 11.1333 21.2217 11.838 21.147 11.9722C21.1003 12.0562 21.133 12.1775 21.2123 12.237C21.2905 12.2965 21.3745 12.2802 21.4212 12.23C22.0978 11.4973 22.8328 11.9873 22.8923 12.0153Z" fill="#5F3B28"/>
</g>
<defs>
<clipPath id="clip0_118_173">
<rect width="40" height="40" fill="white"/>
</clipPath>
</defs>
</svg>
