<svg width="40" height="110" viewBox="0 0 40 110" fill="none" xmlns="http://www.w3.org/2000/svg">
<g clip-path="url(#clip0_159_3752)">
<path d="M31.75 4.5H6.25C5.05 4.5 4 3.45 4 2.25C4 1.05 5.05 0 6.25 0H31.75C32.95 0 34 1.05 34 2.25C34 3.45 32.95 4.5 31.75 4.5Z" fill="#5F3B28"/>
<path d="M31.75 57.5H6.25C5.05 57.5 4 56.45 4 55.25C4 54.05 5.05 53 6.25 53H31.75C32.95 53 34 54.05 34 55.25C34 56.45 32.95 57.5 31.75 57.5Z" fill="#5F3B28"/>
<path d="M31.75 109.5H6.25C5.05 109.5 4 108.45 4 107.25C4 106.05 5.05 105 6.25 105H31.75C32.95 105 34 106.05 34 107.25C34 108.6 32.95 109.5 31.75 109.5Z" fill="#5F3B28"/>
<path d="M6.25 109C5.05 109 4 108.288 4 107.473V1.52661C4 0.712418 5.05 0 6.25 0C7.45 0 8.5 0.712418 8.5 1.52661V107.473C8.5 108.389 7.45 109 6.25 109Z" fill="#5F3B28"/>
</g>
<defs>
<clipPath id="clip0_159_3752">
<rect width="40" height="109.5" fill="white"/>
</clipPath>
</defs>
</svg>
