<svg width="61" height="2061" viewBox="0 0 61 2061" fill="none" xmlns="http://www.w3.org/2000/svg">
<mask id="mask0_194_3669" style="mask-type:luminance" maskUnits="userSpaceOnUse" x="0" y="211" width="61" height="1850">
<rect y="211" width="61" height="1850" fill="white"/>
</mask>
<g mask="url(#mask0_194_3669)">
<path d="M61 11671.7L61 -10216.6H0L0 11671.7H61Z" fill="#9F8170"/>
</g>
<mask id="mask1_194_3669" style="mask-type:luminance" maskUnits="userSpaceOnUse" x="0" y="0" width="61" height="209">
<rect width="61" height="209" fill="white"/>
</mask>
<g mask="url(#mask1_194_3669)">
<path d="M60.9964 726.071L60.9964 34.5C60.9964 34.5 61.9963 0 30.5 0C-0.996323 0 0.00355911 34.5 0.00355911 34.5L0.00355911 726.071H60.9964Z" fill="#431E0B"/>
</g>
<path d="M39.4459 31.2C39.4459 33 38.9459 34.5 37.9459 35.7C36.9459 36.9 35.4459 37.6 33.5459 38V38.2C35.8459 38.5 37.5459 39.2 38.6459 40.4C39.7459 41.6 40.3459 43.1 40.3459 45C40.3459 47.7 39.4459 49.8 37.5459 51.3C35.6459 52.8 32.9459 53.5 29.4459 53.5C27.9459 53.5 26.5459 53.4 25.2459 53.2C23.9459 53 22.7459 52.6 21.5459 52V48.9C22.7459 49.5 24.1459 50 25.5459 50.3C26.9459 50.6 28.2459 50.8 29.5459 50.8C34.5459 50.8 36.9459 48.9 36.9459 45C36.9459 41.5 34.2459 39.8 28.7459 39.8H25.9459V37H28.8459C31.0459 37 32.8459 36.5 34.1459 35.5C35.4459 34.5 36.1459 33.1 36.1459 31.4C36.1459 30 35.6459 28.9 34.7459 28.1C33.7459 27.3 32.4459 26.9 30.8459 26.9C29.5459 26.9 28.4459 27.1 27.2459 27.4C26.1459 27.7 24.8459 28.4 23.4459 29.3L21.8459 27.1C23.0459 26.2 24.3459 25.4 25.9459 24.9C27.4459 24.4 29.1459 24.1 30.8459 24.1C33.6459 24.1 35.8459 24.7 37.3459 26C38.7459 27.2 39.4459 29 39.4459 31.2Z" fill="#F5ECDC"/>
<path d="M40.5465 166.8H21.6465V164L29.2465 156.4C31.5465 154.1 33.0465 152.4 33.8465 151.4C34.5465 150.4 35.1465 149.4 35.4465 148.5C35.8465 147.6 35.9465 146.5 35.9465 145.5C35.9465 144 35.4465 142.8 34.5465 141.9C33.6465 141 32.3465 140.6 30.6465 140.6C29.4465 140.6 28.3465 140.8 27.2465 141.2C26.1465 141.6 24.9465 142.3 23.6465 143.3L21.9465 141.1C24.5465 138.9 27.4465 137.8 30.5465 137.8C33.2465 137.8 35.3465 138.5 36.8465 139.9C38.3465 141.3 39.1465 143.1 39.1465 145.5C39.1465 147.3 38.6465 149.1 37.6465 150.9C36.6465 152.7 34.7465 154.9 31.9465 157.7L25.6465 163.8V164H40.5465V166.8Z" fill="#F5ECDC"/>
<path d="M33.7463 282.1H30.5463V261.6C30.5463 259.9 30.6463 258.3 30.7463 256.8C30.4463 257.1 30.1463 257.4 29.8463 257.7C29.5463 258 27.9463 259.3 25.1463 261.5L23.4463 259.3L31.0463 253.4H33.7463V282.1Z" fill="#F5ECDC"/>
<path d="M33.7463 467.9H30.5463V447.4C30.5463 445.7 30.6463 444.1 30.7463 442.6C30.4463 442.9 30.1463 443.2 29.8463 443.5C29.5463 443.8 27.9463 445.1 25.1463 447.3L23.4463 445.1L31.0463 439.2H33.7463V467.9Z" fill="#F5ECDC"/>
<path d="M40.9459 580.1H22.0459V577.3L29.6459 569.7C31.9459 567.4 33.4459 565.7 34.2459 564.7C34.9459 563.7 35.5459 562.7 35.8459 561.8C36.2459 560.9 36.3459 559.8 36.3459 558.8C36.3459 557.3 35.8459 556.1 34.9459 555.2C34.0459 554.3 32.7459 553.9 31.0459 553.9C29.8459 553.9 28.7459 554.1 27.6459 554.5C26.5459 554.9 25.3459 555.6 24.0459 556.6L22.3459 554.4C24.9459 552.2 27.8459 551.1 30.9459 551.1C33.6459 551.1 35.7459 551.8 37.2459 553.2C38.7459 554.6 39.5459 556.4 39.5459 558.8C39.5459 560.6 39.0459 562.4 38.0459 564.2C37.0459 566 35.1459 568.2 32.3459 571L26.0459 577.1V577.3H40.8459V580.1H40.9459Z" fill="#F5ECDC"/>
<path d="M39.4459 655.8C39.4459 657.6 38.9459 659.1 37.9459 660.3C36.9459 661.5 35.4459 662.2 33.5459 662.6V662.8C35.8459 663.1 37.5459 663.8 38.6459 665C39.7459 666.2 40.3459 667.7 40.3459 669.6C40.3459 672.3 39.4459 674.4 37.5459 675.9C35.6459 677.4 32.9459 678.1 29.4459 678.1C27.9459 678.1 26.5459 678 25.2459 677.8C23.9459 677.6 22.7459 677.2 21.5459 676.6V673.5C22.7459 674.1 24.1459 674.6 25.5459 674.9C26.9459 675.2 28.2459 675.4 29.5459 675.4C34.5459 675.4 36.9459 673.5 36.9459 669.6C36.9459 666.1 34.2459 664.4 28.7459 664.4H25.9459V661.6H28.8459C31.0459 661.6 32.8459 661.1 34.1459 660.1C35.4459 659.1 36.1459 657.7 36.1459 656C36.1459 654.6 35.6459 653.5 34.7459 652.7C33.8459 651.9 32.4459 651.5 30.8459 651.5C29.5459 651.5 28.4459 651.7 27.2459 652C26.1459 652.3 24.8459 653 23.4459 653.9L21.8459 651.7C23.0459 650.8 24.3459 650 25.9459 649.5C27.4459 649 29.1459 648.7 30.8459 648.7C33.6459 648.7 35.8459 649.3 37.3459 650.6C38.7459 651.9 39.4459 653.6 39.4459 655.8Z" fill="#F5ECDC"/>
<path d="M40.3463 779.3H36.0463V785.9H32.9463V779.3H18.9463V776.5L32.5463 757.1H36.0463V776.4H40.3463V779.3ZM32.9463 776.4V766.9C32.9463 765 33.0463 762.9 33.1463 760.6H32.9463C32.3463 761.9 31.7463 762.9 31.1463 763.7L22.1463 776.5H32.9463V776.4Z" fill="#F5ECDC"/>
<path d="M29.9465 871.7C32.9465 871.7 35.3465 872.5 37.0465 873.9C38.7465 875.4 39.6465 877.4 39.6465 880.1C39.6465 883.1 38.7465 885.4 36.8465 887.1C34.9465 888.8 32.3465 889.6 29.0465 889.6C25.8465 889.6 23.3465 889.1 21.6465 888V884.9C22.5465 885.5 23.7465 886 25.0465 886.3C26.4465 886.6 27.7465 886.8 29.0465 886.8C31.3465 886.8 33.1465 886.3 34.4465 885.2C35.7465 884.1 36.3465 882.5 36.3465 880.5C36.3465 876.5 33.8465 874.5 28.9465 874.5C27.7465 874.5 26.0465 874.7 23.9465 875.1L22.2465 874L23.3465 860.6H37.6465V863.6H26.1465L25.4465 872.2C26.9465 871.9 28.4465 871.7 29.9465 871.7Z" fill="#F5ECDC"/>
<path d="M22.0459 979.9C22.0459 974.3 23.1459 970 25.3459 967.2C27.5459 964.4 30.7459 963 35.0459 963C36.5459 963 37.6459 963.1 38.5459 963.4V966.2C37.5459 965.9 36.3459 965.7 35.0459 965.7C31.9459 965.7 29.6459 966.7 28.0459 968.6C26.4459 970.5 25.5459 973.5 25.3459 977.6H25.5459C26.9459 975.3 29.2459 974.2 32.3459 974.2C34.9459 974.2 36.9459 975 38.4459 976.5C39.9459 978.1 40.6459 980.2 40.6459 982.8C40.6459 985.8 39.8459 988.1 38.2459 989.8C36.6459 991.5 34.4459 992.4 31.6459 992.4C28.6459 992.4 26.3459 991.3 24.5459 989.1C22.8459 987 22.0459 983.9 22.0459 979.9ZM31.6459 989.8C33.5459 989.8 34.9459 989.2 35.9459 988C36.9459 986.8 37.4459 985.1 37.4459 982.9C37.4459 981 36.9459 979.5 36.0459 978.4C35.0459 977.3 33.6459 976.8 31.7459 976.8C30.5459 976.8 29.4459 977 28.5459 977.5C27.5459 978 26.7459 978.7 26.2459 979.5C25.6459 980.4 25.3459 981.2 25.3459 982.1C25.3459 983.4 25.6459 984.7 26.1459 985.9C26.6459 987.1 27.4459 988 28.3459 988.7C29.3459 989.4 30.4459 989.8 31.6459 989.8Z" fill="#F5ECDC"/>
<path d="M25.3459 1089.4L37.2459 1063.7H21.5459V1060.7H40.6459V1063.3L28.9459 1089.4H25.3459Z" fill="#F5ECDC"/>
<path d="M30.7467 1168.9C33.3467 1168.9 35.4467 1169.5 36.9467 1170.7C38.4467 1171.9 39.2467 1173.6 39.2467 1175.7C39.2467 1177.1 38.8467 1178.4 37.9467 1179.6C37.0467 1180.8 35.6467 1181.8 33.7467 1182.8C36.0467 1183.9 37.7467 1185.1 38.7467 1186.3C39.7467 1187.5 40.2467 1188.9 40.2467 1190.5C40.2467 1192.9 39.4467 1194.8 37.7467 1196.2C36.0467 1197.6 33.8467 1198.3 30.9467 1198.3C27.8467 1198.3 25.5467 1197.6 23.8467 1196.3C22.2467 1195 21.3467 1193.1 21.3467 1190.6C21.3467 1187.3 23.3467 1184.8 27.3467 1182.9C25.5467 1181.9 24.2467 1180.8 23.4467 1179.6C22.6467 1178.4 22.2467 1177.1 22.2467 1175.6C22.2467 1173.5 23.0467 1171.9 24.5467 1170.6C26.0467 1169.5 28.1467 1168.9 30.7467 1168.9ZM24.5467 1190.7C24.5467 1192.3 25.0467 1193.5 26.1467 1194.4C27.2467 1195.3 28.7467 1195.7 30.7467 1195.7C32.7467 1195.7 34.2467 1195.2 35.3467 1194.3C36.4467 1193.4 36.9467 1192.1 36.9467 1190.5C36.9467 1189.2 36.4467 1188.1 35.4467 1187.1C34.4467 1186.1 32.6467 1185.2 30.1467 1184.2C28.2467 1185 26.7467 1186 25.9467 1187C24.9467 1188.1 24.5467 1189.3 24.5467 1190.7ZM30.6467 1171.5C29.0467 1171.5 27.7467 1171.9 26.8467 1172.7C25.9467 1173.5 25.4467 1174.5 25.4467 1175.8C25.4467 1177 25.8467 1178 26.6467 1178.9C27.4467 1179.8 28.8467 1180.6 30.9467 1181.5C32.8467 1180.7 34.1467 1179.9 34.9467 1179C35.7467 1178.1 36.1467 1177 36.1467 1175.8C36.1467 1174.5 35.6467 1173.4 34.7467 1172.6C33.6467 1171.9 32.3467 1171.5 30.6467 1171.5Z" fill="#F5ECDC"/>
<path d="M36.7451 75.9H23.2451C22.6451 75.9 22.2451 75.5 22.2451 74.9C22.2451 74.3 22.6451 73.9 23.2451 73.9H36.8451C37.4451 73.9 37.8451 74.3 37.8451 74.9C37.7451 75.5 37.3451 75.9 36.7451 75.9Z" fill="#F5ECDC"/>
<path d="M36.7451 115.3H23.2451C22.6451 115.3 22.2451 114.9 22.2451 114.3C22.2451 113.7 22.6451 113.3 23.2451 113.3H36.8451C37.4451 113.3 37.8451 113.7 37.8451 114.3C37.7451 114.9 37.3451 115.3 36.7451 115.3Z" fill="#F5ECDC"/>
<path d="M44.3455 95.7H18.1455C17.5455 95.7 17.1455 95.3 17.1455 94.7C17.1455 94.1 17.5455 93.7 18.1455 93.7H44.3455C44.9455 93.7 45.3455 94.1 45.3455 94.7C45.3455 95.3 44.8455 95.7 44.3455 95.7Z" fill="#F5ECDC"/>
<path d="M36.7451 190.9H23.2451C22.6451 190.9 22.2451 190.5 22.2451 189.9C22.2451 189.3 22.6451 188.9 23.2451 188.9H36.8451C37.4451 188.9 37.8451 189.3 37.8451 189.9C37.7451 190.5 37.3451 190.9 36.7451 190.9Z" fill="#F5ECDC"/>
<path d="M36.7451 230.3H23.2451C22.6451 230.3 22.2451 229.9 22.2451 229.3C22.2451 228.7 22.6451 228.3 23.2451 228.3H36.8451C37.4451 228.3 37.8451 228.7 37.8451 229.3C37.7451 229.8 37.3451 230.3 36.7451 230.3Z" fill="#F5ECDC"/>
<path d="M44.3455 210.7H18.1455C17.5455 210.7 17.1455 210.3 17.1455 209.7C17.1455 209.1 17.5455 208.7 18.1455 208.7H44.3455C44.9455 208.7 45.3455 209.1 45.3455 209.7C45.3455 210.3 44.8455 210.7 44.3455 210.7Z" fill="#F5ECDC"/>
<path d="M36.7451 305.9H23.2451C22.6451 305.9 22.2451 305.5 22.2451 304.9C22.2451 304.3 22.6451 303.9 23.2451 303.9H36.8451C37.4451 303.9 37.8451 304.3 37.8451 304.9C37.7451 305.4 37.3451 305.9 36.7451 305.9Z" fill="#F5ECDC"/>
<path d="M36.7451 345.2H23.2451C22.6451 345.2 22.2451 344.8 22.2451 344.2C22.2451 343.6 22.6451 343.2 23.2451 343.2H36.8451C37.4451 343.2 37.8451 343.6 37.8451 344.2C37.7451 344.8 37.3451 345.2 36.7451 345.2Z" fill="#F5ECDC"/>
<path d="M44.3455 325.7H18.1455C17.5455 325.7 17.1455 325.3 17.1455 324.7C17.1455 324.1 17.5455 323.7 18.1455 323.7H44.3455C44.9455 323.7 45.3455 324.1 45.3455 324.7C45.3455 325.3 44.8455 325.7 44.3455 325.7Z" fill="#F5ECDC"/>
<path d="M36.7451 385.5H23.2451C22.6451 385.5 22.2451 385.1 22.2451 384.5C22.2451 383.9 22.6451 383.5 23.2451 383.5H36.8451C37.4451 383.5 37.8451 383.9 37.8451 384.5C37.7451 385.1 37.3451 385.5 36.7451 385.5Z" fill="#F5ECDC"/>
<path d="M36.7451 424.9H23.2451C22.6451 424.9 22.2451 424.5 22.2451 423.9C22.2451 423.3 22.6451 422.9 23.2451 422.9H36.8451C37.4451 422.9 37.8451 423.3 37.8451 423.9C37.8451 424.5 37.3451 424.9 36.7451 424.9Z" fill="#F5ECDC"/>
<path d="M44.3455 405.3H18.1455C17.5455 405.3 17.1455 404.9 17.1455 404.3C17.1455 403.7 17.5455 403.3 18.1455 403.3H44.3455C44.9455 403.3 45.3455 403.7 45.3455 404.3C45.3455 404.9 44.8455 405.3 44.3455 405.3Z" fill="#F5ECDC"/>
<path d="M36.7451 491.6H23.2451C22.6451 491.6 22.2451 491.2 22.2451 490.6C22.2451 490 22.6451 489.6 23.2451 489.6H36.8451C37.4451 489.6 37.8451 490 37.8451 490.6C37.7451 491.2 37.3451 491.6 36.7451 491.6Z" fill="#F5ECDC"/>
<path d="M36.7451 531H23.2451C22.6451 531 22.2451 530.6 22.2451 530C22.2451 529.4 22.6451 529 23.2451 529H36.8451C37.4451 529 37.8451 529.4 37.8451 530C37.8451 530.6 37.3451 531 36.7451 531Z" fill="#F5ECDC"/>
<path d="M44.3455 511.4H18.1455C17.5455 511.4 17.1455 511 17.1455 510.4C17.1455 509.8 17.5455 509.4 18.1455 509.4H44.3455C44.9455 509.4 45.3455 509.8 45.3455 510.4C45.3455 510.9 44.8455 511.4 44.3455 511.4Z" fill="#F5ECDC"/>
<path d="M36.7451 593.9H23.2451C22.6451 593.9 22.2451 593.5 22.2451 592.9C22.2451 592.3 22.6451 591.9 23.2451 591.9H36.8451C37.4451 591.9 37.8451 592.3 37.8451 592.9C37.7451 593.4 37.3451 593.9 36.7451 593.9Z" fill="#F5ECDC"/>
<path d="M36.7451 633.2H23.2451C22.6451 633.2 22.2451 632.8 22.2451 632.2C22.2451 631.6 22.6451 631.2 23.2451 631.2H36.8451C37.4451 631.2 37.8451 631.6 37.8451 632.2C37.7451 632.8 37.3451 633.2 36.7451 633.2Z" fill="#F5ECDC"/>
<path d="M44.3455 613.7H18.1455C17.5455 613.7 17.1455 613.3 17.1455 612.7C17.1455 612.1 17.5455 611.7 18.1455 611.7H44.3455C44.9455 611.7 45.3455 612.1 45.3455 612.7C45.3455 613.2 44.8455 613.7 44.3455 613.7Z" fill="#F5ECDC"/>
<path d="M36.7451 698.8H23.2451C22.6451 698.8 22.2451 698.4 22.2451 697.8C22.2451 697.2 22.6451 696.8 23.2451 696.8H36.8451C37.4451 696.8 37.8451 697.2 37.8451 697.8C37.8451 698.4 37.3451 698.8 36.7451 698.8Z" fill="#F5ECDC"/>
<path d="M36.7451 738.2H23.2451C22.6451 738.2 22.2451 737.8 22.2451 737.2C22.2451 736.6 22.6451 736.2 23.2451 736.2H36.8451C37.4451 736.2 37.8451 736.6 37.8451 737.2C37.8451 737.8 37.3451 738.2 36.7451 738.2Z" fill="#F5ECDC"/>
<path d="M44.3455 718.6H18.1455C17.5455 718.6 17.1455 718.2 17.1455 717.6C17.1455 717 17.5455 716.6 18.1455 716.6H44.3455C44.9455 716.6 45.3455 717 45.3455 717.6C45.3455 718.2 44.8455 718.6 44.3455 718.6Z" fill="#F5ECDC"/>
<path d="M36.7451 803.8H23.2451C22.6451 803.8 22.2451 803.4 22.2451 802.8C22.2451 802.2 22.6451 801.8 23.2451 801.8H36.8451C37.4451 801.8 37.8451 802.2 37.8451 802.8C37.8451 803.4 37.3451 803.8 36.7451 803.8Z" fill="#F5ECDC"/>
<path d="M36.7451 843.2H23.2451C22.6451 843.2 22.2451 842.8 22.2451 842.2C22.2451 841.6 22.6451 841.2 23.2451 841.2H36.8451C37.4451 841.2 37.8451 841.6 37.8451 842.2C37.8451 842.8 37.3451 843.2 36.7451 843.2Z" fill="#F5ECDC"/>
<path d="M44.3455 823.6H18.1455C17.5455 823.6 17.1455 823.2 17.1455 822.6C17.1455 822 17.5455 821.6 18.1455 821.6H44.3455C44.9455 821.6 45.3455 822 45.3455 822.6C45.3455 823.2 44.8455 823.6 44.3455 823.6Z" fill="#F5ECDC"/>
<path d="M36.7451 908.8H23.2451C22.6451 908.8 22.2451 908.4 22.2451 907.8C22.2451 907.2 22.6451 906.8 23.2451 906.8H36.8451C37.4451 906.8 37.8451 907.2 37.8451 907.8C37.8451 908.4 37.3451 908.8 36.7451 908.8Z" fill="#F5ECDC"/>
<path d="M36.7451 948.1H23.2451C22.6451 948.1 22.2451 947.7 22.2451 947.1C22.2451 946.5 22.6451 946.1 23.2451 946.1H36.8451C37.4451 946.1 37.8451 946.5 37.8451 947.1C37.8451 947.7 37.3451 948.1 36.7451 948.1Z" fill="#F5ECDC"/>
<path d="M44.3455 928.6H18.1455C17.5455 928.6 17.1455 928.2 17.1455 927.6C17.1455 927 17.5455 926.6 18.1455 926.6H44.3455C44.9455 926.6 45.3455 927 45.3455 927.6C45.3455 928.2 44.8455 928.6 44.3455 928.6Z" fill="#F5ECDC"/>
<path d="M36.7451 1008H23.2451C22.6451 1008 22.2451 1007.6 22.2451 1007C22.2451 1006.4 22.6451 1006 23.2451 1006H36.8451C37.4451 1006 37.8451 1006.4 37.8451 1007C37.8451 1007.6 37.3451 1008 36.7451 1008Z" fill="#F5ECDC"/>
<path d="M36.7451 1047.4H23.2451C22.6451 1047.4 22.2451 1047 22.2451 1046.4C22.2451 1045.8 22.6451 1045.4 23.2451 1045.4H36.8451C37.4451 1045.4 37.8451 1045.8 37.8451 1046.4C37.8451 1047 37.3451 1047.4 36.7451 1047.4Z" fill="#F5ECDC"/>
<path d="M44.3455 1027.8H18.1455C17.5455 1027.8 17.1455 1027.4 17.1455 1026.8C17.1455 1026.2 17.5455 1025.8 18.1455 1025.8H44.3455C44.9455 1025.8 45.3455 1026.2 45.3455 1026.8C45.3455 1027.4 44.8455 1027.8 44.3455 1027.8Z" fill="#F5ECDC"/>
<path d="M36.7451 1110.7H23.2451C22.6451 1110.7 22.2451 1110.3 22.2451 1109.7C22.2451 1109.1 22.6451 1108.7 23.2451 1108.7H36.8451C37.4451 1108.7 37.8451 1109.1 37.8451 1109.7C37.8451 1110.3 37.3451 1110.7 36.7451 1110.7Z" fill="#F5ECDC"/>
<path d="M36.7451 1150H23.2451C22.6451 1150 22.2451 1149.6 22.2451 1149C22.2451 1148.4 22.6451 1148 23.2451 1148H36.8451C37.4451 1148 37.8451 1148.4 37.8451 1149C37.8451 1149.6 37.3451 1150 36.7451 1150Z" fill="#F5ECDC"/>
<path d="M44.3455 1130.4H18.1455C17.5455 1130.4 17.1455 1130 17.1455 1129.4C17.1455 1128.8 17.5455 1128.4 18.1455 1128.4H44.3455C44.9455 1128.4 45.3455 1128.8 45.3455 1129.4C45.3455 1130 44.8455 1130.4 44.3455 1130.4Z" fill="#F5ECDC"/>
<path d="M36.7451 1212.4H23.2451C22.6451 1212.4 22.2451 1212 22.2451 1211.4C22.2451 1210.8 22.6451 1210.4 23.2451 1210.4H36.8451C37.4451 1210.4 37.8451 1210.8 37.8451 1211.4C37.8451 1212 37.3451 1212.4 36.7451 1212.4Z" fill="#F5ECDC"/>
<path d="M36.7451 1251.8H23.2451C22.6451 1251.8 22.2451 1251.4 22.2451 1250.8C22.2451 1250.2 22.6451 1249.8 23.2451 1249.8H36.8451C37.4451 1249.8 37.8451 1250.2 37.8451 1250.8C37.8451 1251.4 37.3451 1251.8 36.7451 1251.8Z" fill="#F5ECDC"/>
<path d="M44.3455 1232.2H18.1455C17.5455 1232.2 17.1455 1231.8 17.1455 1231.2C17.1455 1230.6 17.5455 1230.2 18.1455 1230.2H44.3455C44.9455 1230.2 45.3455 1230.6 45.3455 1231.2C45.3455 1231.8 44.8455 1232.2 44.3455 1232.2Z" fill="#F5ECDC"/>
<path d="M36.5996 1317H23.0996C22.4996 1317 22.0996 1316.6 22.0996 1316C22.0996 1315.4 22.4996 1315 23.0996 1315H36.6996C37.2996 1315 37.6996 1315.4 37.6996 1316C37.6996 1316.6 37.1996 1317 36.5996 1317Z" fill="#F5ECDC"/>
<path d="M36.5996 1356.4H23.0996C22.4996 1356.4 22.0996 1356 22.0996 1355.4C22.0996 1354.8 22.4996 1354.4 23.0996 1354.4H36.6996C37.2996 1354.4 37.6996 1354.8 37.6996 1355.4C37.6996 1356 37.1996 1356.4 36.5996 1356.4Z" fill="#F5ECDC"/>
<path d="M44.2 1336.8H18C17.4 1336.8 17 1336.4 17 1335.8C17 1335.2 17.4 1334.8 18 1334.8H44.2C44.8 1334.8 45.2 1335.2 45.2 1335.8C45.2 1336.4 44.7 1336.8 44.2 1336.8Z" fill="#F5ECDC"/>
<path d="M39.6 1280.7C39.6 1291.9 35.3 1297.5 26.6 1297.5C25.1 1297.5 23.9 1297.4 23 1297.1V1294.3C24 1294.6 25.2 1294.8 26.6 1294.8C29.7 1294.8 32.1001 1293.8 33.7001 1291.9C35.3001 1290 36.2 1287 36.3 1283H36.1C35.4 1284.1 34.4001 1284.9 33.2001 1285.5C32.0001 1286.1 30.7001 1286.4 29.2001 1286.4C26.7001 1286.4 24.6001 1285.6 23.2001 1284.1C21.7001 1282.6 21 1280.5 21 1277.7C21 1274.7 21.8 1272.4 23.5 1270.6C25.2 1268.9 27.4 1268 30.1 1268C32.1 1268 33.8001 1268.5 35.2001 1269.5C36.7001 1270.5 37.8 1272 38.6 1273.9C39.2 1275.8 39.6 1278.1 39.6 1280.7ZM29.9 1270.8C28 1270.8 26.6 1271.4 25.6 1272.6C24.6 1273.8 24.1 1275.5 24.1 1277.6C24.1 1279.5 24.6 1281 25.5 1282C26.4 1283.1 27.9 1283.6 29.8 1283.6C31 1283.6 32.1 1283.4 33.1 1282.9C34.1 1282.4 34.9 1281.8 35.5 1280.9C36.1 1280.1 36.4 1279.2 36.4 1278.3C36.4 1276.9 36.1 1275.7 35.6 1274.5C35.1 1273.3 34.3 1272.4 33.4 1271.8C32.3 1271.1 31.2 1270.8 29.9 1270.8Z" fill="#F5ECDC"/>
<path d="M36.5996 1422.6H23.0996C22.4996 1422.6 22.0996 1422.2 22.0996 1421.6C22.0996 1421 22.4996 1420.6 23.0996 1420.6H36.6996C37.2996 1420.6 37.6996 1421 37.6996 1421.6C37.6996 1422.2 37.1996 1422.6 36.5996 1422.6Z" fill="#F5ECDC"/>
<path d="M36.5996 1462H23.0996C22.4996 1462 22.0996 1461.6 22.0996 1461C22.0996 1460.4 22.4996 1460 23.0996 1460H36.6996C37.2996 1460 37.6996 1460.4 37.6996 1461C37.6996 1461.6 37.1996 1462 36.5996 1462Z" fill="#F5ECDC"/>
<path d="M44.2 1442.4H18C17.4 1442.4 17 1442 17 1441.4C17 1440.8 17.4 1440.4 18 1440.4H44.2C44.8 1440.4 45.2 1440.8 45.2 1441.4C45.2 1442 44.7 1442.4 44.2 1442.4Z" fill="#F5ECDC"/>
<path d="M22.3 1404.1H19.1V1383.6C19.1 1381.9 19.2 1380.3 19.3 1378.8C19 1379.1 18.7 1379.4 18.4 1379.7C18.1 1380 16.5 1381.3 13.7 1383.5L12 1381.3L19.6 1375.4H22.3V1404.1Z" fill="#F5ECDC"/>
<path d="M49.1997 1389.7C49.1997 1394.7 48.3998 1398.4 46.8998 1400.8C45.2998 1403.2 42.8997 1404.5 39.6997 1404.5C36.5997 1404.5 34.2997 1403.2 32.6997 1400.7C31.0997 1398.2 30.2998 1394.5 30.2998 1389.7C30.2998 1384.7 31.0997 1381 32.5997 1378.6C34.1997 1376.2 36.4997 1375 39.6997 1375C42.7997 1375 45.1998 1376.3 46.7998 1378.8C48.3998 1381.3 49.1997 1384.9 49.1997 1389.7ZM33.4998 1389.7C33.4998 1393.9 33.9998 1396.9 34.9998 1398.8C35.9998 1400.7 37.4997 1401.7 39.6997 1401.7C41.8997 1401.7 43.3998 1400.7 44.3998 1398.8C45.3998 1396.9 45.8998 1393.8 45.8998 1389.7C45.8998 1385.6 45.3998 1382.6 44.3998 1380.6C43.3998 1378.6 41.8997 1377.7 39.6997 1377.7C37.5997 1377.7 35.9998 1378.6 34.9998 1380.5C33.9998 1382.5 33.4998 1385.6 33.4998 1389.7Z" fill="#F5ECDC"/>
<path d="M36.5996 1528.6H23.0996C22.4996 1528.6 22.0996 1528.2 22.0996 1527.6C22.0996 1527 22.4996 1526.6 23.0996 1526.6H36.6996C37.2996 1526.6 37.6996 1527 37.6996 1527.6C37.6996 1528.2 37.1996 1528.6 36.5996 1528.6Z" fill="#F5ECDC"/>
<path d="M36.5996 1568H23.0996C22.4996 1568 22.0996 1567.6 22.0996 1567C22.0996 1566.4 22.4996 1566 23.0996 1566H36.6996C37.2996 1566 37.6996 1566.4 37.6996 1567C37.6996 1567.6 37.1996 1568 36.5996 1568Z" fill="#F5ECDC"/>
<path d="M44.2 1548.4H18C17.4 1548.4 17 1548 17 1547.4C17 1546.8 17.4 1546.4 18 1546.4H44.2C44.8 1546.4 45.2 1546.8 45.2 1547.4C45.2 1548 44.7 1548.4 44.2 1548.4Z" fill="#F5ECDC"/>
<path d="M26.3 1509.8H23.1V1489.3C23.1 1487.6 23.2 1486 23.3 1484.5C23 1484.8 22.7 1485.1 22.4 1485.4C22.1 1485.7 20.5 1487 17.7 1489.2L16 1487L23.6 1481.1H26.3V1509.8Z" fill="#F5ECDC"/>
<path d="M45.3 1509.8H42.1V1489.3C42.1 1487.6 42.2 1486 42.3 1484.5C42 1484.8 41.7 1485.1 41.4 1485.4C41.1 1485.7 39.5 1487 36.7 1489.2L35 1487L42.6 1481.1H45.3V1509.8Z" fill="#F5ECDC"/>
<path d="M36.5996 1635H23.0996C22.4996 1635 22.0996 1634.6 22.0996 1634C22.0996 1633.4 22.4996 1633 23.0996 1633H36.6996C37.2996 1633 37.6996 1633.4 37.6996 1634C37.6996 1634.6 37.1996 1635 36.5996 1635Z" fill="#F5ECDC"/>
<path d="M36.5996 1674.4H23.0996C22.4996 1674.4 22.0996 1674 22.0996 1673.4C22.0996 1672.8 22.4996 1672.4 23.0996 1672.4H36.6996C37.2996 1672.4 37.6996 1672.8 37.6996 1673.4C37.6996 1674 37.1996 1674.4 36.5996 1674.4Z" fill="#F5ECDC"/>
<path d="M44.2 1654.8H18C17.4 1654.8 17 1654.4 17 1653.8C17 1653.2 17.4 1652.8 18 1652.8H44.2C44.8 1652.8 45.2 1653.2 45.2 1653.8C45.2 1654.4 44.7 1654.8 44.2 1654.8Z" fill="#F5ECDC"/>
<path d="M22.3 1616.2H19.1V1595.7C19.1 1594 19.2 1592.4 19.3 1590.9C19 1591.2 18.7 1591.5 18.4 1591.8C18.1 1592.1 16.5 1593.4 13.7 1595.6L12 1593.4L19.6 1587.5H22.3V1616.2Z" fill="#F5ECDC"/>
<path d="M48.4 1616.8H29.5V1614L37.1 1606.4C39.4 1604.1 40.9 1602.4 41.7 1601.4C42.4 1600.4 43 1599.4 43.3 1598.5C43.7 1597.6 43.8 1596.5 43.8 1595.5C43.8 1594 43.3 1592.8 42.4 1591.9C41.5 1591 40.2 1590.6 38.5 1590.6C37.3 1590.6 36.2 1590.8 35.1 1591.2C34 1591.6 32.8 1592.3 31.5 1593.3L29.8 1591.1C32.4 1588.9 35.3 1587.8 38.4 1587.8C41.1 1587.8 43.2 1588.5 44.7 1589.9C46.2 1591.3 47 1593.1 47 1595.5C47 1597.3 46.5 1599.1 45.5 1600.9C44.5 1602.7 42.6 1604.9 39.8 1607.7L33.5 1613.8V1614H48.3V1616.8H48.4Z" fill="#F5ECDC"/>
<path d="M36.5996 1741.4H23.0996C22.4996 1741.4 22.0996 1741 22.0996 1740.4C22.0996 1739.8 22.4996 1739.4 23.0996 1739.4H36.6996C37.2996 1739.4 37.6996 1739.8 37.6996 1740.4C37.6996 1741 37.1996 1741.4 36.5996 1741.4Z" fill="#F5ECDC"/>
<path d="M36.5996 1780.8H23.0996C22.4996 1780.8 22.0996 1780.4 22.0996 1779.8C22.0996 1779.2 22.4996 1778.8 23.0996 1778.8H36.6996C37.2996 1778.8 37.6996 1779.2 37.6996 1779.8C37.6996 1780.4 37.1996 1780.8 36.5996 1780.8Z" fill="#F5ECDC"/>
<path d="M44.2 1761.2H18C17.4 1761.2 17 1760.8 17 1760.2C17 1759.6 17.4 1759.2 18 1759.2H44.2C44.8 1759.2 45.2 1759.6 45.2 1760.2C45.2 1760.8 44.7 1761.2 44.2 1761.2Z" fill="#F5ECDC"/>
<path d="M22.3 1722.6H19.1V1702.1C19.1 1700.4 19.2 1698.8 19.3 1697.3C19 1697.6 18.7 1697.9 18.4 1698.2C18.1 1698.5 16.5 1699.8 13.7 1702L12 1699.8L19.6 1693.9H22.3V1722.6Z" fill="#F5ECDC"/>
<path d="M46.9001 1701.1C46.9001 1702.9 46.4001 1704.4 45.4001 1705.6C44.4001 1706.8 42.9 1707.5 41 1707.9V1708.1C43.3 1708.4 45.0001 1709.1 46.1001 1710.3C47.2001 1711.5 47.8 1713 47.8 1714.9C47.8 1717.6 46.9 1719.7 45 1721.2C43.1 1722.7 40.4001 1723.4 36.9001 1723.4C35.4001 1723.4 34.0002 1723.3 32.7002 1723.1C31.4002 1722.9 30.2 1722.5 29 1721.9V1718.8C30.2 1719.4 31.6 1719.9 33 1720.2C34.4 1720.5 35.7 1720.7 37 1720.7C42 1720.7 44.4001 1718.8 44.4001 1714.9C44.4001 1711.4 41.7002 1709.7 36.2002 1709.7H33.4001V1706.9H36.3C38.5 1706.9 40.3001 1706.4 41.6001 1705.4C42.9001 1704.4 43.6001 1703 43.6001 1701.3C43.6001 1699.9 43.1002 1698.8 42.2002 1698C41.2002 1697.2 39.9 1696.8 38.3 1696.8C37 1696.8 35.9002 1697 34.7002 1697.3C33.6002 1697.6 32.3001 1698.3 30.9001 1699.2L29.3 1697C30.5 1696.1 31.8001 1695.3 33.4001 1694.8C34.9001 1694.3 36.6 1694 38.3 1694C41.1 1694 43.3 1694.6 44.8 1695.9C46.2 1697.1 46.9001 1698.9 46.9001 1701.1Z" fill="#F5ECDC"/>
<path d="M29.4804 210.5L0 189V232L29.4804 210.5Z" fill="#1D8DC0"/>
<path d="M31.5195 210.5L60.9999 232V189L31.5195 210.5Z" fill="#1D8DC0"/>
<path d="M36.5996 1847.4H23.0996C22.4996 1847.4 22.0996 1847 22.0996 1846.4C22.0996 1845.8 22.4996 1845.4 23.0996 1845.4H36.6996C37.2996 1845.4 37.6996 1845.8 37.6996 1846.4C37.6996 1847 37.1996 1847.4 36.5996 1847.4Z" fill="#F5ECDC"/>
<path d="M36.5996 1886.8H23.0996C22.4996 1886.8 22.0996 1886.4 22.0996 1885.8C22.0996 1885.2 22.4996 1884.8 23.0996 1884.8H36.6996C37.2996 1884.8 37.6996 1885.2 37.6996 1885.8C37.6996 1886.4 37.1996 1886.8 36.5996 1886.8Z" fill="#F5ECDC"/>
<path d="M44.2 1867.2H18C17.4 1867.2 17 1866.8 17 1866.2C17 1865.6 17.4 1865.2 18 1865.2H44.2C44.8 1865.2 45.2 1865.6 45.2 1866.2C45.2 1866.8 44.7 1867.2 44.2 1867.2Z" fill="#F5ECDC"/>
<path d="M22.3 1828.6H19.1V1808.1C19.1 1806.4 19.2 1804.8 19.3 1803.3C19 1803.6 18.7 1803.9 18.4 1804.2C18.1 1804.5 16.5 1805.8 13.7 1808L12 1805.8L19.6 1799.9H22.3V1828.6Z" fill="#F5ECDC"/>
<path d="M48.4001 1822.2H44.1001V1828.8H41V1822.2H27V1819.4L40.6001 1800H44.1001V1819.3H48.4001V1822.2ZM41 1819.3V1809.8C41 1807.9 41.1 1805.8 41.2 1803.5H41C40.4 1804.8 39.8 1805.8 39.2 1806.6L30.2 1819.4H41V1819.3Z" fill="#F5ECDC"/>
<path d="M36.5996 1953H23.0996C22.4996 1953 22.0996 1952.6 22.0996 1952C22.0996 1951.4 22.4996 1951 23.0996 1951H36.6996C37.2996 1951 37.6996 1951.4 37.6996 1952C37.6996 1952.6 37.1996 1953 36.5996 1953Z" fill="#F5ECDC"/>
<path d="M36.5996 1992.4H23.0996C22.4996 1992.4 22.0996 1992 22.0996 1991.4C22.0996 1990.8 22.4996 1990.4 23.0996 1990.4H36.6996C37.2996 1990.4 37.6996 1990.8 37.6996 1991.4C37.6996 1992 37.1996 1992.4 36.5996 1992.4Z" fill="#F5ECDC"/>
<path d="M44.2 1972.8H18C17.4 1972.8 17 1972.4 17 1971.8C17 1971.2 17.4 1970.8 18 1970.8H44.2C44.8 1970.8 45.2 1971.2 45.2 1971.8C45.2 1972.4 44.7 1972.8 44.2 1972.8Z" fill="#F5ECDC"/>
<path d="M22.3 1934.2H19.1V1913.7C19.1 1912 19.2 1910.4 19.3 1908.9C19 1909.2 18.7 1909.5 18.4 1909.8C18.1 1910.1 16.5 1911.4 13.7 1913.6L12 1911.4L19.6 1905.5H22.3V1934.2Z" fill="#F5ECDC"/>
<path d="M39.2999 1916.1C42.2999 1916.1 44.6999 1916.8 46.3999 1918.3C48.0999 1919.8 49 1921.8 49 1924.5C49 1927.5 48.1 1929.8 46.2 1931.5C44.3 1933.2 41.6999 1934 38.3999 1934C35.1999 1934 32.7 1933.5 31 1932.4V1929.3C31.9 1929.9 33.0999 1930.4 34.3999 1930.7C35.7999 1931 37.0999 1931.2 38.3999 1931.2C40.6999 1931.2 42.4999 1930.7 43.7999 1929.6C45.0999 1928.5 45.7 1926.9 45.7 1924.9C45.7 1920.9 43.1999 1918.9 38.2999 1918.9C37.0999 1918.9 35.3999 1919.1 33.2999 1919.5L31.6 1918.4L32.7 1905H47V1908H35.5L34.7999 1916.6C36.2999 1916.2 37.7999 1916.1 39.2999 1916.1Z" fill="#F5ECDC"/>
<path d="M36.5996 1847.4H23.0996C22.4996 1847.4 22.0996 1847 22.0996 1846.4C22.0996 1845.8 22.4996 1845.4 23.0996 1845.4H36.6996C37.2996 1845.4 37.6996 1845.8 37.6996 1846.4C37.6996 1847 37.1996 1847.4 36.5996 1847.4Z" fill="#F5ECDC"/>
<path d="M36.5996 1886.8H23.0996C22.4996 1886.8 22.0996 1886.4 22.0996 1885.8C22.0996 1885.2 22.4996 1884.8 23.0996 1884.8H36.6996C37.2996 1884.8 37.6996 1885.2 37.6996 1885.8C37.6996 1886.4 37.1996 1886.8 36.5996 1886.8Z" fill="#F5ECDC"/>
<path d="M44.2 1867.2H18C17.4 1867.2 17 1866.8 17 1866.2C17 1865.6 17.4 1865.2 18 1865.2H44.2C44.8 1865.2 45.2 1865.6 45.2 1866.2C45.2 1866.8 44.7 1867.2 44.2 1867.2Z" fill="#F5ECDC"/>
<path d="M36.5996 1953H23.0996C22.4996 1953 22.0996 1952.6 22.0996 1952C22.0996 1951.4 22.4996 1951 23.0996 1951H36.6996C37.2996 1951 37.6996 1951.4 37.6996 1952C37.6996 1952.6 37.1996 1953 36.5996 1953Z" fill="#F5ECDC"/>
<path d="M36.5996 1992.4H23.0996C22.4996 1992.4 22.0996 1992 22.0996 1991.4C22.0996 1990.8 22.4996 1990.4 23.0996 1990.4H36.6996C37.2996 1990.4 37.6996 1990.8 37.6996 1991.4C37.6996 1992 37.1996 1992.4 36.5996 1992.4Z" fill="#F5ECDC"/>
<path d="M44.2 1972.8H18C17.4 1972.8 17 1972.4 17 1971.8C17 1971.2 17.4 1970.8 18 1970.8H44.2C44.8 1970.8 45.2 1971.2 45.2 1971.8C45.2 1972.4 44.7 1972.8 44.2 1972.8Z" fill="#F5ECDC"/>
<path d="M36.5996 1847.4H23.0996C22.4996 1847.4 22.0996 1847 22.0996 1846.4C22.0996 1845.8 22.4996 1845.4 23.0996 1845.4H36.6996C37.2996 1845.4 37.6996 1845.8 37.6996 1846.4C37.6996 1847 37.1996 1847.4 36.5996 1847.4Z" fill="#F5ECDC"/>
<path d="M36.5996 1886.8H23.0996C22.4996 1886.8 22.0996 1886.4 22.0996 1885.8C22.0996 1885.2 22.4996 1884.8 23.0996 1884.8H36.6996C37.2996 1884.8 37.6996 1885.2 37.6996 1885.8C37.6996 1886.4 37.1996 1886.8 36.5996 1886.8Z" fill="#F5ECDC"/>
<path d="M44.2 1867.2H18C17.4 1867.2 17 1866.8 17 1866.2C17 1865.6 17.4 1865.2 18 1865.2H44.2C44.8 1865.2 45.2 1865.6 45.2 1866.2C45.2 1866.8 44.7 1867.2 44.2 1867.2Z" fill="#F5ECDC"/>
<path d="M22.3 2039.8H19.1V2019.3C19.1 2017.6 19.2 2016 19.3 2014.5C19 2014.8 18.7 2015.1 18.4 2015.4C18.1 2015.7 16.5 2017 13.7 2019.2L12 2017L19.6 2011.1H22.3V2039.8Z" fill="#F5ECDC"/>
<path d="M29 2027.9C29 2022.3 30.0998 2018 32.2998 2015.2C34.4998 2012.4 37.7 2011 42 2011C43.5 2011 44.6 2011.1 45.5 2011.4V2014.2C44.5 2013.9 43.3 2013.7 42 2013.7C38.9 2013.7 36.6 2014.7 35 2016.6C33.4 2018.5 32.4998 2021.5 32.2998 2025.6H32.5C33.9 2023.3 36.1998 2022.2 39.2998 2022.2C41.8998 2022.2 43.8999 2023 45.3999 2024.5C46.8999 2026.1 47.5999 2028.2 47.5999 2030.8C47.5999 2033.8 46.8 2036.1 45.2 2037.8C43.6 2039.5 41.3999 2040.4 38.5999 2040.4C35.5999 2040.4 33.3 2039.3 31.5 2037.1C29.7 2034.9 29 2031.8 29 2027.9ZM38.5999 2037.7C40.4999 2037.7 41.8999 2037.1 42.8999 2035.9C43.8999 2034.7 44.3999 2033 44.3999 2030.8C44.3999 2028.9 43.9 2027.4 43 2026.3C42 2025.2 40.6 2024.7 38.7 2024.7C37.5 2024.7 36.4 2024.9 35.5 2025.4C34.5 2025.9 33.7 2026.6 33.2 2027.4C32.6 2028.3 32.2998 2029.1 32.2998 2030C32.2998 2031.3 32.5999 2032.6 33.0999 2033.8C33.5999 2035 34.3998 2035.9 35.2998 2036.6C36.2998 2037.4 37.3999 2037.7 38.5999 2037.7Z" fill="#F5ECDC"/>
</svg>
