<svg width="2267" height="62" viewBox="0 0 2267 62" fill="none" xmlns="http://www.w3.org/2000/svg">
<mask id="mask0_189_3451" style="mask-type:luminance" maskUnits="userSpaceOnUse" x="0" y="1" width="2267" height="61">
<path d="M2236.8 61.5H30C13.7 61.5 0.5 48.3 0.5 32V30.5C0.5 14.2 13.7 1 30 1H2236.9C2253.2 1 2266.4 14.2 2266.4 30.5V32C2266.3 48.3 2253.1 61.5 2236.8 61.5Z" fill="white"/>
</mask>
<g mask="url(#mask0_189_3451)">
<path d="M2266.3 1H0.5V61.5H2266.3V1Z" fill="#9F8170"/>
</g>
<mask id="mask1_189_3451" style="mask-type:luminance" maskUnits="userSpaceOnUse" x="0" y="1" width="2267" height="61">
<path d="M2236.8 61.5H30C13.7 61.5 0.5 48.3 0.5 32V30.5C0.5 14.2 13.7 1 30 1H2236.9C2253.2 1 2266.4 14.2 2266.4 30.5V32C2266.3 48.3 2253.1 61.5 2236.8 61.5Z" fill="white"/>
</mask>
<g mask="url(#mask1_189_3451)">
<path d="M265 1H1V62H265V1Z" fill="#431E0B"/>
</g>
<mask id="mask2_189_3451" style="mask-type:luminance" maskUnits="userSpaceOnUse" x="0" y="1" width="2267" height="61">
<path d="M2236.8 61.5H30C13.7 61.5 0.5 48.3 0.5 32V30.5C0.5 14.2 13.7 1 30 1H2236.9C2253.2 1 2266.4 14.2 2266.4 30.5V32C2266.3 48.3 2253.1 61.5 2236.8 61.5Z" fill="white"/>
</mask>
<g mask="url(#mask2_189_3451)">
<path d="M2266 1H2008V62H2266V1Z" fill="#431E0B"/>
</g>
<path d="M41.9996 24.8999C41.9996 26.6999 41.4996 28.1999 40.4996 29.3999C39.4996 30.5999 37.9996 31.3 36.0996 31.7V31.8999C38.3996 32.1999 40.0996 32.8999 41.1996 34.0999C42.2996 35.2999 42.8996 36.8 42.8996 38.7C42.8996 41.4 41.9996 43.4999 40.0996 44.9999C38.1996 46.4999 35.4996 47.2 31.9996 47.2C30.4996 47.2 29.0996 47.0999 27.7996 46.8999C26.4996 46.6999 25.2996 46.3 24.0996 45.7V42.5999C25.2996 43.1999 26.6996 43.6999 28.0996 43.9999C29.4996 44.2999 30.7996 44.4999 32.0996 44.4999C37.0996 44.4999 39.4996 42.6 39.4996 38.7C39.4996 35.2 36.7996 33.4999 31.2996 33.4999H28.4996V30.7H31.3996C33.5996 30.7 35.3996 30.2 36.6996 29.2C37.9996 28.2 38.6996 26.7999 38.6996 25.0999C38.6996 23.6999 38.1996 22.5999 37.2996 21.7999C36.2996 20.9999 34.9996 20.5999 33.3996 20.5999C32.0996 20.5999 30.9996 20.7999 29.7996 21.0999C28.6996 21.3999 27.3996 22.0999 25.9996 22.9999L24.3996 20.7999C25.5996 19.8999 26.8996 19.0999 28.4996 18.5999C29.9996 18.0999 31.6996 17.7999 33.3996 17.7999C36.1996 17.7999 38.3996 18.4 39.8996 19.7C41.1996 20.9 41.9996 22.6999 41.9996 24.8999Z" fill="white"/>
<path d="M156.7 46.7999H137.8V43.9999L145.4 36.3999C147.7 34.0999 149.2 32.3999 150 31.3999C150.7 30.3999 151.3 29.3999 151.6 28.4999C152 27.5999 152.1 26.4999 152.1 25.4999C152.1 23.9999 151.6 22.7999 150.7 21.8999C149.8 20.9999 148.5 20.5999 146.8 20.5999C145.6 20.5999 144.5 20.8 143.4 21.2C142.3 21.6 141.1 22.2999 139.8 23.2999L138.1 21.0999C140.7 18.8999 143.6 17.7999 146.7 17.7999C149.4 17.7999 151.5 18.4999 153 19.8999C154.5 21.2999 155.3 23.0999 155.3 25.4999C155.3 27.2999 154.8 29.0999 153.8 30.8999C152.8 32.6999 150.9 34.9 148.1 37.7L141.8 43.7999V43.9999H156.6V46.7999H156.7Z" fill="white"/>
<path d="M265.199 46.8H261.999V26.3C261.999 24.6 262.099 23 262.199 21.5C261.899 21.8 261.599 22.1 261.299 22.4C260.999 22.7 259.399 24 256.599 26.2L254.899 24L262.499 18.1H265.199V46.8Z" fill="white"/>
<path d="M450.999 46.8H447.799V26.3C447.799 24.6 447.899 23 447.999 21.5C447.699 21.8 447.399 22.1 447.099 22.4C446.799 22.7 445.199 24 442.399 26.2L440.699 24L448.299 18.1H450.999V46.8Z" fill="white"/>
<path d="M564.799 46.7999H545.899V43.9999L553.499 36.3999C555.799 34.0999 557.299 32.3999 558.099 31.3999C558.799 30.3999 559.399 29.3999 559.699 28.4999C560.099 27.5999 560.199 26.4999 560.199 25.4999C560.199 23.9999 559.699 22.7999 558.799 21.8999C557.899 20.9999 556.599 20.5999 554.899 20.5999C553.699 20.5999 552.599 20.8 551.499 21.2C550.399 21.6 549.199 22.2999 547.899 23.2999L546.199 21.0999C548.799 18.8999 551.699 17.7999 554.799 17.7999C557.499 17.7999 559.599 18.4999 561.099 19.8999C562.599 21.2999 563.399 23.0999 563.399 25.4999C563.399 27.2999 562.899 29.0999 561.899 30.8999C560.899 32.6999 558.999 34.9 556.199 37.7L549.899 43.7999V43.9999H564.699V46.7999H564.799Z" fill="white"/>
<path d="M666.599 24.8999C666.599 26.6999 666.099 28.1999 665.099 29.3999C664.099 30.5999 662.599 31.3 660.699 31.7V31.8999C662.999 32.1999 664.699 32.8999 665.799 34.0999C666.899 35.2999 667.499 36.8 667.499 38.7C667.499 41.4 666.599 43.4999 664.699 44.9999C662.799 46.4999 660.099 47.2 656.599 47.2C655.099 47.2 653.699 47.0999 652.399 46.8999C651.099 46.6999 649.899 46.3 648.699 45.7V42.5999C649.899 43.1999 651.299 43.6999 652.699 43.9999C654.099 44.2999 655.399 44.4999 656.699 44.4999C661.699 44.4999 664.099 42.6 664.099 38.7C664.099 35.2 661.399 33.4999 655.899 33.4999H653.099V30.7H655.999C658.199 30.7 659.999 30.2 661.299 29.2C662.599 28.2 663.299 26.7999 663.299 25.0999C663.299 23.6999 662.799 22.5999 661.899 21.7999C660.899 20.9999 659.599 20.5999 657.999 20.5999C656.699 20.5999 655.599 20.7999 654.399 21.0999C653.299 21.3999 651.999 22.0999 650.599 22.9999L648.999 20.7999C650.199 19.8999 651.499 19.0999 653.099 18.5999C654.599 18.0999 656.299 17.7999 657.999 17.7999C660.799 17.7999 662.999 18.4 664.499 19.7C665.799 20.9 666.599 22.6999 666.599 24.8999Z" fill="white"/>
<path d="M772 40.2H767.7V46.8H764.6V40.2H750.6V37.4L764.2 18H767.7V37.3H772V40.2ZM764.6 37.3V27.8C764.6 25.9 764.7 23.8 764.8 21.5H764.6C764 22.8 763.4 23.8 762.8 24.6L753.8 37.4H764.6V37.3Z" fill="white"/>
<path d="M863.6 29.2999C866.6 29.2999 869 29.9999 870.7 31.4999C872.4 32.9999 873.3 35 873.3 37.7C873.3 40.7 872.4 43 870.5 44.7C868.6 46.4 866 47.2 862.7 47.2C859.5 47.2 857 46.6999 855.3 45.5999V42.4999C856.2 43.0999 857.4 43.5999 858.7 43.8999C860.1 44.1999 861.4 44.3999 862.7 44.3999C865 44.3999 866.8 43.8999 868.1 42.7999C869.4 41.6999 870 40.0999 870 38.0999C870 34.0999 867.5 32.0999 862.6 32.0999C861.4 32.0999 859.7 32.3 857.6 32.7L855.9 31.5999L857 18.2H871.3V21.2H859.8L859.1 29.7999C860.6 29.3999 862.1 29.2999 863.6 29.2999Z" fill="white"/>
<path d="M957.899 34.5999C957.899 28.9999 958.999 24.6999 961.199 21.8999C963.399 19.0999 966.599 17.7 970.899 17.7C972.399 17.7 973.499 17.7999 974.399 18.0999V20.8999C973.399 20.5999 972.199 20.3999 970.899 20.3999C967.799 20.3999 965.499 21.3999 963.899 23.2999C962.299 25.1999 961.399 28.1999 961.199 32.2999H961.399C962.799 29.9999 965.099 28.8999 968.199 28.8999C970.799 28.8999 972.799 29.7 974.299 31.2C975.799 32.8 976.499 34.8999 976.499 37.4999C976.499 40.4999 975.699 42.7999 974.099 44.4999C972.499 46.1999 970.299 47.0999 967.499 47.0999C964.499 47.0999 962.199 45.9999 960.399 43.7999C958.599 41.5999 957.899 38.4999 957.899 34.5999ZM967.499 44.3999C969.399 44.3999 970.799 43.7999 971.799 42.5999C972.799 41.3999 973.299 39.6999 973.299 37.4999C973.299 35.5999 972.799 34.0999 971.899 32.9999C970.899 31.8999 969.499 31.3999 967.599 31.3999C966.399 31.3999 965.299 31.5999 964.399 32.0999C963.399 32.5999 962.599 33.2999 962.099 34.0999C961.499 34.9999 961.199 35.8 961.199 36.7C961.199 38 961.499 39.2999 961.999 40.4999C962.499 41.6999 963.299 42.5999 964.199 43.2999C965.199 44.0999 966.299 44.3999 967.499 44.3999Z" fill="white"/>
<path d="M1064.1 46.8L1076 21.1H1060.4V18.1H1079.5V20.7L1067.8 46.8H1064.1Z" fill="white"/>
<path d="M1172.9 17.7C1175.5 17.7 1177.6 18.2999 1179.1 19.4999C1180.6 20.6999 1181.4 22.3999 1181.4 24.4999C1181.4 25.8999 1181 27.1999 1180.1 28.3999C1179.2 29.5999 1177.8 30.5999 1175.9 31.5999C1178.2 32.6999 1179.9 33.8999 1180.9 35.0999C1181.9 36.2999 1182.4 37.6999 1182.4 39.2999C1182.4 41.6999 1181.6 43.5999 1179.9 44.9999C1178.2 46.3999 1176 47.0999 1173.1 47.0999C1170 47.0999 1167.7 46.3999 1166 45.0999C1164.4 43.7999 1163.5 41.8999 1163.5 39.3999C1163.5 36.0999 1165.5 33.6 1169.5 31.7C1167.7 30.7 1166.4 29.5999 1165.6 28.3999C1164.8 27.1999 1164.4 25.8999 1164.4 24.3999C1164.4 22.2999 1165.2 20.6999 1166.7 19.3999C1168.3 18.2999 1170.3 17.7 1172.9 17.7ZM1166.7 39.5999C1166.7 41.1999 1167.2 42.3999 1168.3 43.2999C1169.4 44.1999 1170.9 44.5999 1172.9 44.5999C1174.9 44.5999 1176.4 44.1 1177.5 43.2C1178.6 42.3 1179.1 40.9999 1179.1 39.3999C1179.1 38.0999 1178.6 36.9999 1177.6 35.9999C1176.6 34.9999 1174.8 34.0999 1172.3 33.0999C1170.4 33.8999 1168.9 34.8999 1168.1 35.8999C1167.1 36.9999 1166.7 38.1999 1166.7 39.5999ZM1172.9 20.3999C1171.3 20.3999 1170 20.7999 1169.1 21.5999C1168.2 22.3999 1167.7 23.4 1167.7 24.7C1167.7 25.9 1168.1 26.8999 1168.9 27.7999C1169.7 28.6999 1171.1 29.4999 1173.2 30.3999C1175.1 29.5999 1176.4 28.7999 1177.2 27.8999C1178 26.9999 1178.4 25.9 1178.4 24.7C1178.4 23.4 1177.9 22.2999 1177 21.4999C1175.8 20.6999 1174.5 20.3999 1172.9 20.3999Z" fill="white"/>
<path d="M1285.2 30.3999C1285.2 41.5999 1280.9 47.2 1272.2 47.2C1270.7 47.2 1269.5 47.0999 1268.6 46.7999V43.9999C1269.6 44.2999 1270.8 44.4999 1272.2 44.4999C1275.3 44.4999 1277.7 43.4999 1279.3 41.5999C1280.9 39.6999 1281.8 36.7 1281.9 32.7H1281.7C1281 33.8 1280 34.6 1278.8 35.2C1277.6 35.8 1276.3 36.0999 1274.8 36.0999C1272.3 36.0999 1270.2 35.2999 1268.8 33.7999C1267.3 32.2999 1266.6 30.1999 1266.6 27.3999C1266.6 24.3999 1267.4 22.0999 1269.1 20.2999C1270.8 18.5999 1273 17.7 1275.7 17.7C1277.7 17.7 1279.4 18.2 1280.8 19.2C1282.3 20.2 1283.4 21.6999 1284.2 23.5999C1284.8 25.4999 1285.2 27.7999 1285.2 30.3999ZM1275.5 20.4999C1273.6 20.4999 1272.2 21.0999 1271.2 22.2999C1270.2 23.4999 1269.7 25.1999 1269.7 27.2999C1269.7 29.1999 1270.2 30.7 1271.1 31.7C1272 32.8 1273.5 33.2999 1275.4 33.2999C1276.6 33.2999 1277.7 33.0999 1278.7 32.5999C1279.7 32.0999 1280.5 31.4999 1281.1 30.5999C1281.7 29.7999 1282 28.8999 1282 27.9999C1282 26.5999 1281.7 25.4 1281.2 24.2C1280.7 23 1279.9 22.0999 1279 21.4999C1277.9 20.7999 1276.8 20.4999 1275.5 20.4999Z" fill="white"/>
<path d="M1381.3 46.8H1378.1V26.3C1378.1 24.6 1378.2 23 1378.3 21.5C1378 21.8 1377.7 22.1 1377.4 22.4C1377.1 22.7 1375.5 24 1372.7 26.2L1371 24L1378.6 18.1H1381.3V46.8Z" fill="white"/>
<path d="M1411.2 32.3999C1411.2 37.3999 1410.4 41.0999 1408.9 43.4999C1407.3 45.8999 1404.9 47.2 1401.7 47.2C1398.6 47.2 1396.3 45.8999 1394.7 43.3999C1393.1 40.8999 1392.3 37.1999 1392.3 32.3999C1392.3 27.3999 1393.1 23.6999 1394.6 21.2999C1396.2 18.8999 1398.5 17.7 1401.7 17.7C1404.8 17.7 1407.2 18.9999 1408.8 21.4999C1410.4 23.9999 1411.2 27.5999 1411.2 32.3999ZM1395.5 32.3999C1395.5 36.5999 1396 39.5999 1397 41.4999C1398 43.3999 1399.5 44.3999 1401.7 44.3999C1403.9 44.3999 1405.4 43.3999 1406.4 41.4999C1407.4 39.5999 1407.9 36.4999 1407.9 32.3999C1407.9 28.2999 1407.4 25.2999 1406.4 23.2999C1405.4 21.2999 1403.9 20.3999 1401.7 20.3999C1399.6 20.3999 1398 21.3 1397 23.2C1396 25.2 1395.5 28.2999 1395.5 32.3999Z" fill="white"/>
<path d="M1493.8 46.8H1490.6V26.3C1490.6 24.6 1490.7 23 1490.8 21.5C1490.5 21.8 1490.2 22.1 1489.9 22.4C1489.6 22.7 1488 24 1485.2 26.2L1483.5 24L1491.1 18.1H1493.8V46.8Z" fill="white"/>
<path d="M1516.8 46.8H1513.6V26.3C1513.6 24.6 1513.7 23 1513.8 21.5C1513.5 21.8 1513.2 22.1 1512.9 22.4C1512.6 22.7 1511 24 1508.2 26.2L1506.5 24L1514.1 18.1H1516.8V46.8Z" fill="white"/>
<path d="M1597.6 46.8H1594.4V26.3C1594.4 24.6 1594.5 23 1594.6 21.5C1594.3 21.8 1594 22.1 1593.7 22.4C1593.4 22.7 1591.8 24 1589 26.2L1587.3 24L1594.9 18.1H1597.6V46.8Z" fill="white"/>
<path d="M1627.4 46.7999H1608.5V43.9999L1616.1 36.3999C1618.4 34.0999 1619.9 32.3999 1620.7 31.3999C1621.4 30.3999 1622 29.3999 1622.3 28.4999C1622.7 27.5999 1622.8 26.4999 1622.8 25.4999C1622.8 23.9999 1622.3 22.7999 1621.4 21.8999C1620.5 20.9999 1619.2 20.5999 1617.5 20.5999C1616.3 20.5999 1615.2 20.8 1614.1 21.2C1613 21.6 1611.8 22.2999 1610.5 23.2999L1608.8 21.0999C1611.4 18.8999 1614.3 17.7999 1617.4 17.7999C1620.1 17.7999 1622.2 18.4999 1623.7 19.8999C1625.2 21.2999 1626 23.0999 1626 25.4999C1626 27.2999 1625.5 29.0999 1624.5 30.8999C1623.5 32.6999 1621.6 34.9 1618.8 37.7L1612.5 43.7999V43.9999H1627.3V46.7999H1627.4Z" fill="white"/>
<path d="M1700.6 46.8H1697.4V26.3C1697.4 24.6 1697.5 23 1697.6 21.5C1697.3 21.8 1697 22.1 1696.7 22.4C1696.4 22.7 1694.8 24 1692 26.2L1690.3 24L1697.9 18.1H1700.6V46.8Z" fill="white"/>
<path d="M1729.3 24.8999C1729.3 26.6999 1728.8 28.1999 1727.8 29.3999C1726.8 30.5999 1725.3 31.3 1723.4 31.7V31.8999C1725.7 32.1999 1727.4 32.8999 1728.5 34.0999C1729.6 35.2999 1730.2 36.8 1730.2 38.7C1730.2 41.4 1729.3 43.4999 1727.4 44.9999C1725.5 46.4999 1722.8 47.2 1719.3 47.2C1717.8 47.2 1716.4 47.0999 1715.1 46.8999C1713.8 46.6999 1712.6 46.3 1711.4 45.7V42.5999C1712.6 43.1999 1714 43.6999 1715.4 43.9999C1716.8 44.2999 1718.1 44.4999 1719.4 44.4999C1724.4 44.4999 1726.8 42.6 1726.8 38.7C1726.8 35.2 1724.1 33.4999 1718.6 33.4999H1715.8V30.7H1718.7C1720.9 30.7 1722.7 30.2 1724 29.2C1725.3 28.2 1726 26.7999 1726 25.0999C1726 23.6999 1725.5 22.5999 1724.6 21.7999C1723.6 20.9999 1722.3 20.5999 1720.7 20.5999C1719.4 20.5999 1718.3 20.7999 1717.1 21.0999C1716 21.3999 1714.7 22.0999 1713.3 22.9999L1711.7 20.7999C1712.9 19.8999 1714.2 19.0999 1715.8 18.5999C1717.3 18.0999 1719 17.7999 1720.7 17.7999C1723.5 17.7999 1725.7 18.4 1727.2 19.7C1728.6 20.9 1729.3 22.6999 1729.3 24.8999Z" fill="white"/>
<path d="M1803.5 47.1999H1800.3V26.6999C1800.3 24.9999 1800.4 23.3999 1800.5 21.8999C1800.2 22.1999 1799.9 22.4999 1799.6 22.7999C1799.3 23.0999 1797.7 24.3999 1794.9 26.5999L1793.2 24.3999L1800.8 18.4999H1803.5V47.1999Z" fill="white"/>
<path d="M1834.6 40.5999H1830.3V47.1999H1827.2V40.5999H1813.2V37.7999L1826.8 18.3999H1830.3V37.6999H1834.6V40.5999ZM1827.2 37.6999V28.1999C1827.2 26.2999 1827.3 24.1999 1827.4 21.8999H1827.2C1826.6 23.1999 1826 24.1999 1825.4 24.9999L1816.4 37.7999H1827.2V37.6999Z" fill="white"/>
<path d="M1907.3 46.8H1904.1V26.3C1904.1 24.6 1904.2 23 1904.3 21.5C1904 21.8 1903.7 22.1 1903.4 22.4C1903.1 22.7 1901.5 24 1898.7 26.2L1897 24L1904.6 18.1H1907.3V46.8Z" fill="white"/>
<path d="M1926.6 29.2999C1929.6 29.2999 1932 29.9999 1933.7 31.4999C1935.4 32.9999 1936.3 35 1936.3 37.7C1936.3 40.7 1935.4 43 1933.5 44.7C1931.6 46.4 1929 47.2 1925.7 47.2C1922.5 47.2 1920 46.6999 1918.3 45.5999V42.4999C1919.2 43.0999 1920.4 43.5999 1921.7 43.8999C1923.1 44.1999 1924.4 44.3999 1925.7 44.3999C1928 44.3999 1929.8 43.8999 1931.1 42.7999C1932.4 41.6999 1933 40.0999 1933 38.0999C1933 34.0999 1930.5 32.0999 1925.6 32.0999C1924.4 32.0999 1922.7 32.3 1920.6 32.7L1918.9 31.5999L1920 18.2H1934.3V21.2H1922.8L1922.1 29.7999C1923.6 29.3999 1925.1 29.2999 1926.6 29.2999Z" fill="white"/>
<path d="M2007.9 46.8H2004.7V26.3C2004.7 24.6 2004.8 23 2004.9 21.5C2004.6 21.8 2004.3 22.1 2004 22.4C2003.7 22.7 2002.1 24 1999.3 26.2L1997.6 24L2005.2 18.1H2007.9V46.8Z" fill="white"/>
<path d="M2019.1 34.5999C2019.1 28.9999 2020.2 24.6999 2022.4 21.8999C2024.6 19.0999 2027.8 17.7 2032.1 17.7C2033.6 17.7 2034.7 17.7999 2035.6 18.0999V20.8999C2034.6 20.5999 2033.4 20.3999 2032.1 20.3999C2029 20.3999 2026.7 21.3999 2025.1 23.2999C2023.5 25.1999 2022.6 28.1999 2022.4 32.2999H2022.6C2024 29.9999 2026.3 28.8999 2029.4 28.8999C2032 28.8999 2034 29.7 2035.5 31.2C2037 32.8 2037.7 34.8999 2037.7 37.4999C2037.7 40.4999 2036.9 42.7999 2035.3 44.4999C2033.7 46.1999 2031.5 47.0999 2028.7 47.0999C2025.7 47.0999 2023.4 45.9999 2021.6 43.7999C2019.8 41.5999 2019.1 38.4999 2019.1 34.5999ZM2028.7 44.3999C2030.6 44.3999 2032 43.7999 2033 42.5999C2034 41.3999 2034.5 39.6999 2034.5 37.4999C2034.5 35.5999 2034 34.0999 2033.1 32.9999C2032.1 31.8999 2030.7 31.3999 2028.8 31.3999C2027.6 31.3999 2026.5 31.5999 2025.6 32.0999C2024.6 32.5999 2023.8 33.2999 2023.3 34.0999C2022.7 34.9999 2022.4 35.8 2022.4 36.7C2022.4 38 2022.7 39.2999 2023.2 40.4999C2023.7 41.6999 2024.5 42.5999 2025.4 43.2999C2026.4 44.0999 2027.5 44.3999 2028.7 44.3999Z" fill="white"/>
<path d="M2116.3 46.8H2113.1V26.3C2113.1 24.6 2113.2 23 2113.3 21.5C2113 21.8 2112.7 22.1 2112.4 22.4C2112.1 22.7 2110.5 24 2107.7 26.2L2106 24L2113.6 18.1H2116.3V46.8Z" fill="white"/>
<path d="M2130.9 46.8L2142.8 21.1H2127.2V18.1H2146.3V20.7L2134.6 46.8H2130.9Z" fill="white"/>
<path d="M2214.7 47.2H2211.5V26.7C2211.5 25 2211.6 23.4 2211.7 21.9C2211.4 22.2 2211.1 22.5 2210.8 22.8C2210.5 23.1 2208.9 24.4 2206.1 26.6L2204.4 24.4L2212 18.5H2214.7V47.2Z" fill="white"/>
<path d="M2235.1 18.1C2237.7 18.1 2239.8 18.7 2241.3 19.9C2242.8 21.1 2243.6 22.8 2243.6 24.9C2243.6 26.3 2243.2 27.6 2242.3 28.8C2241.4 30 2240 31 2238.1 32C2240.4 33.1 2242.1 34.3 2243.1 35.5C2244.1 36.7 2244.6 38.1 2244.6 39.7C2244.6 42.1 2243.8 44 2242.1 45.4C2240.4 46.8 2238.2 47.5 2235.3 47.5C2232.2 47.5 2229.9 46.8 2228.2 45.5C2226.6 44.2 2225.7 42.3 2225.7 39.8C2225.7 36.5 2227.7 34 2231.7 32.1C2229.9 31.1 2228.6 30 2227.8 28.8C2227 27.6 2226.6 26.3 2226.6 24.8C2226.6 22.7 2227.4 21.1 2228.9 19.8C2230.5 18.7 2232.6 18.1 2235.1 18.1ZM2228.9 40C2228.9 41.6 2229.4 42.8 2230.5 43.7C2231.6 44.6 2233.1 45 2235.1 45C2237.1 45 2238.6 44.5 2239.7 43.6C2240.8 42.7 2241.3 41.4 2241.3 39.8C2241.3 38.5 2240.8 37.4 2239.8 36.4C2238.8 35.4 2237 34.5 2234.5 33.5C2232.6 34.3 2231.1 35.3 2230.3 36.3C2229.4 37.4 2228.9 38.6 2228.9 40ZM2235.1 20.8C2233.5 20.8 2232.2 21.2 2231.3 22C2230.4 22.8 2229.9 23.8 2229.9 25.1C2229.9 26.3 2230.3 27.3 2231.1 28.2C2231.9 29.1 2233.3 29.9 2235.4 30.8C2237.3 30 2238.6 29.2 2239.4 28.3C2240.2 27.4 2240.6 26.3 2240.6 25.1C2240.6 23.8 2240.1 22.7 2239.2 21.9C2238.1 21.2 2236.8 20.8 2235.1 20.8Z" fill="white"/>
<path d="M2005.1 33L1983.6 61.5H2026.6L2005.1 33Z" fill="#239BE5"/>
<path d="M2005.1 29.5L2026.6 1H1983.6L2005.1 29.5Z" fill="#239BE5"/>
<path d="M264.5 32.6L243 61.7H286L264.5 32.6Z" fill="#239BE5"/>
<path d="M264.5 29.1L286 0H243L264.5 29.1Z" fill="#239BE5"/>
<path d="M67.7002 42.7C67.1002 42.7 66.7002 42.3 66.7002 41.7V28.2C66.7002 27.6 67.1002 27.2 67.7002 27.2C68.3002 27.2 68.7002 27.6 68.7002 28.2V41.7C68.7002 42.3 68.2002 42.7 67.7002 42.7Z" fill="white"/>
<path d="M107 42.7C106.4 42.7 106 42.3 106 41.7V28.2C106 27.6 106.4 27.2 107 27.2C107.6 27.2 108 27.6 108 28.2V41.7C108 42.3 107.6 42.7 107 42.7Z" fill="white"/>
<path d="M87.5 47.8C86.9 47.8 86.5 47.4 86.5 46.8V20.6C86.5 20 86.9 19.6 87.5 19.6C88.1 19.6 88.5 20 88.5 20.6V46.8C88.5 47.4 88 47.8 87.5 47.8Z" fill="white"/>
<path d="M182.7 42.7C182.1 42.7 181.7 42.3 181.7 41.7V28.2C181.7 27.6 182.1 27.2 182.7 27.2C183.3 27.2 183.7 27.6 183.7 28.2V41.7C183.7 42.3 183.2 42.7 182.7 42.7Z" fill="white"/>
<path d="M222 42.7C221.4 42.7 221 42.3 221 41.7V28.2C221 27.6 221.4 27.2 222 27.2C222.6 27.2 223 27.6 223 28.2V41.7C223 42.3 222.6 42.7 222 42.7Z" fill="white"/>
<path d="M202.4 47.8C201.8 47.8 201.4 47.4 201.4 46.8V20.6C201.4 20 201.8 19.6 202.4 19.6C203 19.6 203.4 20 203.4 20.6V46.8C203.4 47.4 203 47.8 202.4 47.8Z" fill="white"/>
<path d="M297.601 42.7C297.001 42.7 296.601 42.3 296.601 41.7V28.2C296.601 27.6 297.001 27.2 297.601 27.2C298.201 27.2 298.601 27.6 298.601 28.2V41.7C298.601 42.3 298.201 42.7 297.601 42.7Z" fill="white"/>
<path d="M337 42.7C336.4 42.7 336 42.3 336 41.7V28.2C336 27.6 336.4 27.2 337 27.2C337.6 27.2 338 27.6 338 28.2V41.7C338 42.3 337.5 42.7 337 42.7Z" fill="white"/>
<path d="M317.4 47.8C316.8 47.8 316.4 47.4 316.4 46.8V20.6C316.4 20 316.8 19.6 317.4 19.6C318 19.6 318.4 20 318.4 20.6V46.8C318.4 47.4 318 47.8 317.4 47.8Z" fill="white"/>
<path d="M377.3 42.7C376.7 42.7 376.3 42.3 376.3 41.7V28.2C376.3 27.6 376.7 27.2 377.3 27.2C377.9 27.2 378.3 27.6 378.3 28.2V41.7C378.3 42.3 377.8 42.7 377.3 42.7Z" fill="white"/>
<path d="M416.601 42.7C416.001 42.7 415.601 42.3 415.601 41.7V28.2C415.601 27.6 416.001 27.2 416.601 27.2C417.201 27.2 417.601 27.6 417.601 28.2V41.7C417.601 42.3 417.201 42.7 416.601 42.7Z" fill="white"/>
<path d="M397 47.8C396.4 47.8 396 47.4 396 46.8V20.6C396 20 396.4 19.6 397 19.6C397.6 19.6 398 20 398 20.6V46.8C398 47.4 397.6 47.8 397 47.8Z" fill="white"/>
<path d="M483.3 42.7C482.7 42.7 482.3 42.3 482.3 41.7V28.2C482.3 27.6 482.7 27.2 483.3 27.2C483.9 27.2 484.3 27.6 484.3 28.2V41.7C484.3 42.3 483.9 42.7 483.3 42.7Z" fill="white"/>
<path d="M522.7 42.7C522.1 42.7 521.7 42.3 521.7 41.7V28.2C521.7 27.6 522.1 27.2 522.7 27.2C523.3 27.2 523.7 27.6 523.7 28.2V41.7C523.7 42.3 523.3 42.7 522.7 42.7Z" fill="white"/>
<path d="M503.1 47.8C502.5 47.8 502.1 47.4 502.1 46.8V20.6C502.1 20 502.5 19.6 503.1 19.6C503.7 19.6 504.1 20 504.1 20.6V46.8C504.1 47.4 503.7 47.8 503.1 47.8Z" fill="white"/>
<path d="M585.601 42.7C585.001 42.7 584.601 42.3 584.601 41.7V28.2C584.601 27.6 585.001 27.2 585.601 27.2C586.201 27.2 586.601 27.6 586.601 28.2V41.7C586.601 42.3 586.201 42.7 585.601 42.7Z" fill="white"/>
<path d="M625.001 42.7C624.401 42.7 624.001 42.3 624.001 41.7V28.2C624.001 27.6 624.401 27.2 625.001 27.2C625.601 27.2 626.001 27.6 626.001 28.2V41.7C626.001 42.3 625.501 42.7 625.001 42.7Z" fill="white"/>
<path d="M605.4 47.8C604.8 47.8 604.4 47.4 604.4 46.8V20.6C604.4 20 604.8 19.6 605.4 19.6C606 19.6 606.4 20 606.4 20.6V46.8C606.4 47.4 606 47.8 605.4 47.8Z" fill="white"/>
<path d="M690.601 42.7C690.001 42.7 689.601 42.3 689.601 41.7V28.2C689.601 27.6 690.001 27.2 690.601 27.2C691.201 27.2 691.601 27.6 691.601 28.2V41.7C691.601 42.3 691.101 42.7 690.601 42.7Z" fill="white"/>
<path d="M729.9 42.7C729.3 42.7 728.9 42.3 728.9 41.7V28.2C728.9 27.6 729.3 27.2 729.9 27.2C730.5 27.2 730.9 27.6 730.9 28.2V41.7C730.9 42.3 730.5 42.7 729.9 42.7Z" fill="white"/>
<path d="M710.4 47.8C709.8 47.8 709.4 47.4 709.4 46.8V20.6C709.4 20 709.8 19.6 710.4 19.6C711 19.6 711.4 20 711.4 20.6V46.8C711.4 47.4 710.9 47.8 710.4 47.8Z" fill="white"/>
<path d="M795.5 42.7C794.9 42.7 794.5 42.3 794.5 41.7V28.2C794.5 27.6 794.9 27.2 795.5 27.2C796.1 27.2 796.5 27.6 796.5 28.2V41.7C796.5 42.3 796.1 42.7 795.5 42.7Z" fill="white"/>
<path d="M834.9 42.7C834.3 42.7 833.9 42.3 833.9 41.7V28.2C833.9 27.6 834.3 27.2 834.9 27.2C835.5 27.2 835.9 27.6 835.9 28.2V41.7C835.9 42.3 835.5 42.7 834.9 42.7Z" fill="white"/>
<path d="M815.3 47.8C814.7 47.8 814.3 47.4 814.3 46.8V20.6C814.3 20 814.7 19.6 815.3 19.6C815.9 19.6 816.3 20 816.3 20.6V46.8C816.3 47.4 815.9 47.8 815.3 47.8Z" fill="white"/>
<path d="M900.5 42.7C899.9 42.7 899.5 42.3 899.5 41.7V28.2C899.5 27.6 899.9 27.2 900.5 27.2C901.1 27.2 901.5 27.6 901.5 28.2V41.7C901.5 42.3 901.1 42.7 900.5 42.7Z" fill="white"/>
<path d="M939.9 42.7C939.3 42.7 938.9 42.3 938.9 41.7V28.2C938.9 27.6 939.3 27.2 939.9 27.2C940.5 27.2 940.9 27.6 940.9 28.2V41.7C940.9 42.3 940.4 42.7 939.9 42.7Z" fill="white"/>
<path d="M920.3 47.8C919.7 47.8 919.3 47.4 919.3 46.8V20.6C919.3 20 919.7 19.6 920.3 19.6C920.9 19.6 921.3 20 921.3 20.6V46.8C921.3 47.4 920.8 47.8 920.3 47.8Z" fill="white"/>
<path d="M999.7 42.7C999.1 42.7 998.7 42.3 998.7 41.7V28.2C998.7 27.6 999.1 27.2 999.7 27.2C1000.3 27.2 1000.7 27.6 1000.7 28.2V41.7C1000.7 42.3 1000.3 42.7 999.7 42.7Z" fill="white"/>
<path d="M1039.1 42.7C1038.5 42.7 1038.1 42.3 1038.1 41.7V28.2C1038.1 27.6 1038.5 27.2 1039.1 27.2C1039.7 27.2 1040.1 27.6 1040.1 28.2V41.7C1040.1 42.3 1039.6 42.7 1039.1 42.7Z" fill="white"/>
<path d="M1019.5 47.8C1018.9 47.8 1018.5 47.4 1018.5 46.8V20.6C1018.5 20 1018.9 19.6 1019.5 19.6C1020.1 19.6 1020.5 20 1020.5 20.6V46.8C1020.5 47.4 1020.1 47.8 1019.5 47.8Z" fill="white"/>
<path d="M1102.4 42.7C1101.8 42.7 1101.4 42.3 1101.4 41.7V28.2C1101.4 27.6 1101.8 27.2 1102.4 27.2C1103 27.2 1103.4 27.6 1103.4 28.2V41.7C1103.4 42.3 1102.9 42.7 1102.4 42.7Z" fill="white"/>
<path d="M1141.8 42.7C1141.2 42.7 1140.8 42.3 1140.8 41.7V28.2C1140.8 27.6 1141.2 27.2 1141.8 27.2C1142.4 27.2 1142.8 27.6 1142.8 28.2V41.7C1142.8 42.3 1142.3 42.7 1141.8 42.7Z" fill="white"/>
<path d="M1122.2 47.8C1121.6 47.8 1121.2 47.4 1121.2 46.8V20.6C1121.2 20 1121.6 19.6 1122.2 19.6C1122.8 19.6 1123.2 20 1123.2 20.6V46.8C1123.2 47.4 1122.7 47.8 1122.2 47.8Z" fill="white"/>
<path d="M1204.2 42.7C1203.6 42.7 1203.2 42.3 1203.2 41.7V28.2C1203.2 27.6 1203.6 27.2 1204.2 27.2C1204.8 27.2 1205.2 27.6 1205.2 28.2V41.7C1205.2 42.3 1204.7 42.7 1204.2 42.7Z" fill="white"/>
<path d="M1243.5 42.7C1242.9 42.7 1242.5 42.3 1242.5 41.7V28.2C1242.5 27.6 1242.9 27.2 1243.5 27.2C1244.1 27.2 1244.5 27.6 1244.5 28.2V41.7C1244.5 42.3 1244.1 42.7 1243.5 42.7Z" fill="white"/>
<path d="M1224 47.8C1223.4 47.8 1223 47.4 1223 46.8V20.6C1223 20 1223.4 19.6 1224 19.6C1224.6 19.6 1225 20 1225 20.6V46.8C1225 47.4 1224.5 47.8 1224 47.8Z" fill="white"/>
<path d="M1306 42.7C1305.4 42.7 1305 42.3 1305 41.7V28.2C1305 27.6 1305.4 27.2 1306 27.2C1306.6 27.2 1307 27.6 1307 28.2V41.7C1307 42.3 1306.5 42.7 1306 42.7Z" fill="white"/>
<path d="M1345.3 42.7C1344.7 42.7 1344.3 42.3 1344.3 41.7V28.2C1344.3 27.6 1344.7 27.2 1345.3 27.2C1345.9 27.2 1346.3 27.6 1346.3 28.2V41.7C1346.3 42.3 1345.9 42.7 1345.3 42.7Z" fill="white"/>
<path d="M1325.8 47.8C1325.2 47.8 1324.8 47.4 1324.8 46.8V20.6C1324.8 20 1325.2 19.6 1325.8 19.6C1326.4 19.6 1326.8 20 1326.8 20.6V46.8C1326.8 47.4 1326.3 47.8 1325.8 47.8Z" fill="white"/>
<path d="M1421.6 42.7C1421 42.7 1420.6 42.3 1420.6 41.7V28.2C1420.6 27.6 1421 27.2 1421.6 27.2C1422.2 27.2 1422.6 27.6 1422.6 28.2V41.7C1422.6 42.3 1422.1 42.7 1421.6 42.7Z" fill="white"/>
<path d="M1460.9 42.7C1460.3 42.7 1459.9 42.3 1459.9 41.7V28.2C1459.9 27.6 1460.3 27.2 1460.9 27.2C1461.5 27.2 1461.9 27.6 1461.9 28.2V41.7C1461.9 42.3 1461.5 42.7 1460.9 42.7Z" fill="white"/>
<path d="M1441.3 47.8C1440.7 47.8 1440.3 47.4 1440.3 46.8V20.6C1440.3 20 1440.7 19.6 1441.3 19.6C1441.9 19.6 1442.3 20 1442.3 20.6V46.8C1442.3 47.4 1441.9 47.8 1441.3 47.8Z" fill="white"/>
<path d="M1537.1 42.7C1536.5 42.7 1536.1 42.3 1536.1 41.7V28.2C1536.1 27.6 1536.5 27.2 1537.1 27.2C1537.7 27.2 1538.1 27.6 1538.1 28.2V41.7C1538.1 42.3 1537.7 42.7 1537.1 42.7Z" fill="white"/>
<path d="M1576.5 42.7C1575.9 42.7 1575.5 42.3 1575.5 41.7V28.2C1575.5 27.6 1575.9 27.2 1576.5 27.2C1577.1 27.2 1577.5 27.6 1577.5 28.2V41.7C1577.5 42.3 1577 42.7 1576.5 42.7Z" fill="white"/>
<path d="M1556.9 47.8C1556.3 47.8 1555.9 47.4 1555.9 46.8V20.6C1555.9 20 1556.3 19.6 1556.9 19.6C1557.5 19.6 1557.9 20 1557.9 20.6V46.8C1557.9 47.4 1557.5 47.8 1556.9 47.8Z" fill="white"/>
<path d="M1640.3 42.7C1639.7 42.7 1639.3 42.3 1639.3 41.7V28.2C1639.3 27.6 1639.7 27.2 1640.3 27.2C1640.9 27.2 1641.3 27.6 1641.3 28.2V41.7C1641.3 42.3 1640.9 42.7 1640.3 42.7Z" fill="white"/>
<path d="M1679.7 42.7C1679.1 42.7 1678.7 42.3 1678.7 41.7V28.2C1678.7 27.6 1679.1 27.2 1679.7 27.2C1680.3 27.2 1680.7 27.6 1680.7 28.2V41.7C1680.7 42.3 1680.2 42.7 1679.7 42.7Z" fill="white"/>
<path d="M1660.1 47.8C1659.5 47.8 1659.1 47.4 1659.1 46.8V20.6C1659.1 20 1659.5 19.6 1660.1 19.6C1660.7 19.6 1661.1 20 1661.1 20.6V46.8C1661.1 47.4 1660.7 47.8 1660.1 47.8Z" fill="white"/>
<path d="M1744.3 42.7C1743.7 42.7 1743.3 42.3 1743.3 41.7V28.2C1743.3 27.6 1743.7 27.2 1744.3 27.2C1744.9 27.2 1745.3 27.6 1745.3 28.2V41.7C1745.3 42.3 1744.8 42.7 1744.3 42.7Z" fill="white"/>
<path d="M1783.6 42.7C1783 42.7 1782.6 42.3 1782.6 41.7V28.2C1782.6 27.6 1783 27.2 1783.6 27.2C1784.2 27.2 1784.6 27.6 1784.6 28.2V41.7C1784.6 42.3 1784.2 42.7 1783.6 42.7Z" fill="white"/>
<path d="M1764 47.8C1763.4 47.8 1763 47.4 1763 46.8V20.6C1763 20 1763.4 19.6 1764 19.6C1764.6 19.6 1765 20 1765 20.6V46.8C1765 47.4 1764.6 47.8 1764 47.8Z" fill="white"/>
<path d="M1849.4 42.7C1848.8 42.7 1848.4 42.3 1848.4 41.7V28.2C1848.4 27.6 1848.8 27.2 1849.4 27.2C1850 27.2 1850.4 27.6 1850.4 28.2V41.7C1850.4 42.3 1850 42.7 1849.4 42.7Z" fill="white"/>
<path d="M1888.8 42.7C1888.2 42.7 1887.8 42.3 1887.8 41.7V28.2C1887.8 27.6 1888.2 27.2 1888.8 27.2C1889.4 27.2 1889.8 27.6 1889.8 28.2V41.7C1889.8 42.3 1889.3 42.7 1888.8 42.7Z" fill="white"/>
<path d="M1869.2 47.8C1868.6 47.8 1868.2 47.4 1868.2 46.8V20.6C1868.2 20 1868.6 19.6 1869.2 19.6C1869.8 19.6 1870.2 20 1870.2 20.6V46.8C1870.2 47.4 1869.8 47.8 1869.2 47.8Z" fill="white"/>
<path d="M1946.4 42.7C1945.8 42.7 1945.4 42.3 1945.4 41.7V28.2C1945.4 27.6 1945.8 27.2 1946.4 27.2C1947 27.2 1947.4 27.6 1947.4 28.2V41.7C1947.4 42.3 1947 42.7 1946.4 42.7Z" fill="white"/>
<path d="M1985.8 42.7C1985.2 42.7 1984.8 42.3 1984.8 41.7V28.2C1984.8 27.6 1985.2 27.2 1985.8 27.2C1986.4 27.2 1986.8 27.6 1986.8 28.2V41.7C1986.8 42.3 1986.3 42.7 1985.8 42.7Z" fill="white"/>
<path d="M1966.2 47.8C1965.6 47.8 1965.2 47.4 1965.2 46.8V20.6C1965.2 20 1965.6 19.6 1966.2 19.6C1966.8 19.6 1967.2 20 1967.2 20.6V46.8C1967.2 47.4 1966.8 47.8 1966.2 47.8Z" fill="white"/>
<path d="M2052 42.7C2051.4 42.7 2051 42.3 2051 41.7V28.2C2051 27.6 2051.4 27.2 2052 27.2C2052.6 27.2 2053 27.6 2053 28.2V41.7C2053 42.3 2052.5 42.7 2052 42.7Z" fill="white"/>
<path d="M2091.3 42.7C2090.7 42.7 2090.3 42.3 2090.3 41.7V28.2C2090.3 27.6 2090.7 27.2 2091.3 27.2C2091.9 27.2 2092.3 27.6 2092.3 28.2V41.7C2092.3 42.3 2091.9 42.7 2091.3 42.7Z" fill="white"/>
<path d="M2071.8 47.8C2071.2 47.8 2070.8 47.4 2070.8 46.8V20.6C2070.8 20 2071.2 19.6 2071.8 19.6C2072.4 19.6 2072.8 20 2072.8 20.6V46.8C2072.8 47.4 2072.3 47.8 2071.8 47.8Z" fill="white"/>
<path d="M2153.5 42.7C2152.9 42.7 2152.5 42.3 2152.5 41.7V28.2C2152.5 27.6 2152.9 27.2 2153.5 27.2C2154.1 27.2 2154.5 27.6 2154.5 28.2V41.7C2154.5 42.3 2154 42.7 2153.5 42.7Z" fill="white"/>
<path d="M2192.8 42.7C2192.2 42.7 2191.8 42.3 2191.8 41.7V28.2C2191.8 27.6 2192.2 27.2 2192.8 27.2C2193.4 27.2 2193.8 27.6 2193.8 28.2V41.7C2193.8 42.3 2193.4 42.7 2192.8 42.7Z" fill="white"/>
<path d="M2173.2 47.8C2172.6 47.8 2172.2 47.4 2172.2 46.8V20.6C2172.2 20 2172.6 19.6 2173.2 19.6C2173.8 19.6 2174.2 20 2174.2 20.6V46.8C2174.2 47.4 2173.8 47.8 2173.2 47.8Z" fill="white"/>
</svg>
