<svg width="2267" height="61" viewBox="0 0 2267 61" fill="none" xmlns="http://www.w3.org/2000/svg">
<mask id="mask0_189_3451" style="mask-type:luminance" maskUnits="userSpaceOnUse" x="0" y="0" width="2267" height="61">
<path d="M2236.8 60.5H30C13.7 60.5 0.5 47.3 0.5 31V29.5C0.5 13.2 13.7 0 30 0H2236.9C2253.2 0 2266.4 13.2 2266.4 29.5V31C2266.3 47.3 2253.1 60.5 2236.8 60.5Z" fill="white"/>
</mask>
<g mask="url(#mask0_189_3451)">
<path d="M2266.3 0H0.5V60.5H2266.3V0Z" fill="#9F8170"/>
</g>
<mask id="mask1_189_3451" style="mask-type:luminance" maskUnits="userSpaceOnUse" x="0" y="0" width="2267" height="61">
<path d="M2236.8 60.5H30C13.7 60.5 0.5 47.3 0.5 31V29.5C0.5 13.2 13.7 0 30 0H2236.9C2253.2 0 2266.4 13.2 2266.4 29.5V31C2266.3 47.3 2253.1 60.5 2236.8 60.5Z" fill="white"/>
</mask>
<g mask="url(#mask1_189_3451)">
<path d="M203 0H1V61H203V0Z" fill="#431E0B"/>
</g>
<mask id="mask2_189_3451" style="mask-type:luminance" maskUnits="userSpaceOnUse" x="0" y="0" width="2267" height="61">
<path d="M2236.8 60.5H30C13.7 60.5 0.5 47.3 0.5 31V29.5C0.5 13.2 13.7 0 30 0H2236.9C2253.2 0 2266.4 13.2 2266.4 29.5V31C2266.3 47.3 2253.1 60.5 2236.8 60.5Z" fill="white"/>
</mask>
<g mask="url(#mask2_189_3451)">
<path d="M2266 0H2073V61H2266V0Z" fill="#431E0B"/>
</g>
<path d="M41.9996 23.8999C41.9996 25.6999 41.4996 27.1999 40.4996 28.3999C39.4996 29.5999 37.9996 30.3 36.0996 30.7V30.8999C38.3996 31.1999 40.0996 31.8999 41.1996 33.0999C42.2996 34.2999 42.8996 35.8 42.8996 37.7C42.8996 40.4 41.9996 42.4999 40.0996 43.9999C38.1996 45.4999 35.4996 46.2 31.9996 46.2C30.4996 46.2 29.0996 46.0999 27.7996 45.8999C26.4996 45.6999 25.2996 45.3 24.0996 44.7V41.5999C25.2996 42.1999 26.6996 42.6999 28.0996 42.9999C29.4996 43.2999 30.7996 43.4999 32.0996 43.4999C37.0996 43.4999 39.4996 41.6 39.4996 37.7C39.4996 34.2 36.7996 32.4999 31.2996 32.4999H28.4996V29.7H31.3996C33.5996 29.7 35.3996 29.2 36.6996 28.2C37.9996 27.2 38.6996 25.7999 38.6996 24.0999C38.6996 22.6999 38.1996 21.5999 37.2996 20.7999C36.2996 19.9999 34.9996 19.5999 33.3996 19.5999C32.0996 19.5999 30.9996 19.7999 29.7996 20.0999C28.6996 20.3999 27.3996 21.0999 25.9996 21.9999L24.3996 19.7999C25.5996 18.8999 26.8996 18.0999 28.4996 17.5999C29.9996 17.0999 31.6996 16.7999 33.3996 16.7999C36.1996 16.7999 38.3996 17.4 39.8996 18.7C41.1996 19.9 41.9996 21.6999 41.9996 23.8999Z" fill="#F5ECDC"/>
<path d="M156.7 45.7999H137.8V42.9999L145.4 35.3999C147.7 33.0999 149.2 31.3999 150 30.3999C150.7 29.3999 151.3 28.3999 151.6 27.4999C152 26.5999 152.1 25.4999 152.1 24.4999C152.1 22.9999 151.6 21.7999 150.7 20.8999C149.8 19.9999 148.5 19.5999 146.8 19.5999C145.6 19.5999 144.5 19.8 143.4 20.2C142.3 20.6 141.1 21.2999 139.8 22.2999L138.1 20.0999C140.7 17.8999 143.6 16.7999 146.7 16.7999C149.4 16.7999 151.5 17.4999 153 18.8999C154.5 20.2999 155.3 22.0999 155.3 24.4999C155.3 26.2999 154.8 28.0999 153.8 29.8999C152.8 31.6999 150.9 33.9 148.1 36.7L141.8 42.7999V42.9999H156.6V45.7999H156.7Z" fill="#F5ECDC"/>
<path d="M265.199 45.8H261.999V25.3C261.999 23.6 262.099 22 262.199 20.5C261.899 20.8 261.599 21.1 261.299 21.4C260.999 21.7 259.399 23 256.599 25.2L254.899 23L262.499 17.1H265.199V45.8Z" fill="#F5ECDC"/>
<path d="M450.999 45.8H447.799V25.3C447.799 23.6 447.899 22 447.999 20.5C447.699 20.8 447.399 21.1 447.099 21.4C446.799 21.7 445.199 23 442.399 25.2L440.699 23L448.299 17.1H450.999V45.8Z" fill="#F5ECDC"/>
<path d="M564.799 45.7999H545.899V42.9999L553.499 35.3999C555.799 33.0999 557.299 31.3999 558.099 30.3999C558.799 29.3999 559.399 28.3999 559.699 27.4999C560.099 26.5999 560.199 25.4999 560.199 24.4999C560.199 22.9999 559.699 21.7999 558.799 20.8999C557.899 19.9999 556.599 19.5999 554.899 19.5999C553.699 19.5999 552.599 19.8 551.499 20.2C550.399 20.6 549.199 21.2999 547.899 22.2999L546.199 20.0999C548.799 17.8999 551.699 16.7999 554.799 16.7999C557.499 16.7999 559.599 17.4999 561.099 18.8999C562.599 20.2999 563.399 22.0999 563.399 24.4999C563.399 26.2999 562.899 28.0999 561.899 29.8999C560.899 31.6999 558.999 33.9 556.199 36.7L549.899 42.7999V42.9999H564.699V45.7999H564.799Z" fill="#F5ECDC"/>
<path d="M666.599 23.8999C666.599 25.6999 666.099 27.1999 665.099 28.3999C664.099 29.5999 662.599 30.3 660.699 30.7V30.8999C662.999 31.1999 664.699 31.8999 665.799 33.0999C666.899 34.2999 667.499 35.8 667.499 37.7C667.499 40.4 666.599 42.4999 664.699 43.9999C662.799 45.4999 660.099 46.2 656.599 46.2C655.099 46.2 653.699 46.0999 652.399 45.8999C651.099 45.6999 649.899 45.3 648.699 44.7V41.5999C649.899 42.1999 651.299 42.6999 652.699 42.9999C654.099 43.2999 655.399 43.4999 656.699 43.4999C661.699 43.4999 664.099 41.6 664.099 37.7C664.099 34.2 661.399 32.4999 655.899 32.4999H653.099V29.7H655.999C658.199 29.7 659.999 29.2 661.299 28.2C662.599 27.2 663.299 25.7999 663.299 24.0999C663.299 22.6999 662.799 21.5999 661.899 20.7999C660.899 19.9999 659.599 19.5999 657.999 19.5999C656.699 19.5999 655.599 19.7999 654.399 20.0999C653.299 20.3999 651.999 21.0999 650.599 21.9999L648.999 19.7999C650.199 18.8999 651.499 18.0999 653.099 17.5999C654.599 17.0999 656.299 16.7999 657.999 16.7999C660.799 16.7999 662.999 17.4 664.499 18.7C665.799 19.9 666.599 21.6999 666.599 23.8999Z" fill="#F5ECDC"/>
<path d="M772 39.2H767.7V45.8H764.6V39.2H750.6V36.4L764.2 17H767.7V36.3H772V39.2ZM764.6 36.3V26.8C764.6 24.9 764.7 22.8 764.8 20.5H764.6C764 21.8 763.4 22.8 762.8 23.6L753.8 36.4H764.6V36.3Z" fill="#F5ECDC"/>
<path d="M863.6 28.2999C866.6 28.2999 869 28.9999 870.7 30.4999C872.4 31.9999 873.3 34 873.3 36.7C873.3 39.7 872.4 42 870.5 43.7C868.6 45.4 866 46.2 862.7 46.2C859.5 46.2 857 45.6999 855.3 44.5999V41.4999C856.2 42.0999 857.4 42.5999 858.7 42.8999C860.1 43.1999 861.4 43.3999 862.7 43.3999C865 43.3999 866.8 42.8999 868.1 41.7999C869.4 40.6999 870 39.0999 870 37.0999C870 33.0999 867.5 31.0999 862.6 31.0999C861.4 31.0999 859.7 31.3 857.6 31.7L855.9 30.5999L857 17.2H871.3V20.2H859.8L859.1 28.7999C860.6 28.3999 862.1 28.2999 863.6 28.2999Z" fill="#F5ECDC"/>
<path d="M957.899 33.5999C957.899 27.9999 958.999 23.6999 961.199 20.8999C963.399 18.0999 966.599 16.7 970.899 16.7C972.399 16.7 973.499 16.7999 974.399 17.0999V19.8999C973.399 19.5999 972.199 19.3999 970.899 19.3999C967.799 19.3999 965.499 20.3999 963.899 22.2999C962.299 24.1999 961.399 27.1999 961.199 31.2999H961.399C962.799 28.9999 965.099 27.8999 968.199 27.8999C970.799 27.8999 972.799 28.7 974.299 30.2C975.799 31.8 976.499 33.8999 976.499 36.4999C976.499 39.4999 975.699 41.7999 974.099 43.4999C972.499 45.1999 970.299 46.0999 967.499 46.0999C964.499 46.0999 962.199 44.9999 960.399 42.7999C958.599 40.5999 957.899 37.4999 957.899 33.5999ZM967.499 43.3999C969.399 43.3999 970.799 42.7999 971.799 41.5999C972.799 40.3999 973.299 38.6999 973.299 36.4999C973.299 34.5999 972.799 33.0999 971.899 31.9999C970.899 30.8999 969.499 30.3999 967.599 30.3999C966.399 30.3999 965.299 30.5999 964.399 31.0999C963.399 31.5999 962.599 32.2999 962.099 33.0999C961.499 33.9999 961.199 34.8 961.199 35.7C961.199 37 961.499 38.2999 961.999 39.4999C962.499 40.6999 963.299 41.5999 964.199 42.2999C965.199 43.0999 966.299 43.3999 967.499 43.3999Z" fill="#F5ECDC"/>
<path d="M1064.1 45.8L1076 20.1H1060.4V17.1H1079.5V19.7L1067.8 45.8H1064.1Z" fill="#F5ECDC"/>
<path d="M1172.9 16.7C1175.5 16.7 1177.6 17.2999 1179.1 18.4999C1180.6 19.6999 1181.4 21.3999 1181.4 23.4999C1181.4 24.8999 1181 26.1999 1180.1 27.3999C1179.2 28.5999 1177.8 29.5999 1175.9 30.5999C1178.2 31.6999 1179.9 32.8999 1180.9 34.0999C1181.9 35.2999 1182.4 36.6999 1182.4 38.2999C1182.4 40.6999 1181.6 42.5999 1179.9 43.9999C1178.2 45.3999 1176 46.0999 1173.1 46.0999C1170 46.0999 1167.7 45.3999 1166 44.0999C1164.4 42.7999 1163.5 40.8999 1163.5 38.3999C1163.5 35.0999 1165.5 32.6 1169.5 30.7C1167.7 29.7 1166.4 28.5999 1165.6 27.3999C1164.8 26.1999 1164.4 24.8999 1164.4 23.3999C1164.4 21.2999 1165.2 19.6999 1166.7 18.3999C1168.3 17.2999 1170.3 16.7 1172.9 16.7ZM1166.7 38.5999C1166.7 40.1999 1167.2 41.3999 1168.3 42.2999C1169.4 43.1999 1170.9 43.5999 1172.9 43.5999C1174.9 43.5999 1176.4 43.1 1177.5 42.2C1178.6 41.3 1179.1 39.9999 1179.1 38.3999C1179.1 37.0999 1178.6 35.9999 1177.6 34.9999C1176.6 33.9999 1174.8 33.0999 1172.3 32.0999C1170.4 32.8999 1168.9 33.8999 1168.1 34.8999C1167.1 35.9999 1166.7 37.1999 1166.7 38.5999ZM1172.9 19.3999C1171.3 19.3999 1170 19.7999 1169.1 20.5999C1168.2 21.3999 1167.7 22.4 1167.7 23.7C1167.7 24.9 1168.1 25.8999 1168.9 26.7999C1169.7 27.6999 1171.1 28.4999 1173.2 29.3999C1175.1 28.5999 1176.4 27.7999 1177.2 26.8999C1178 25.9999 1178.4 24.9 1178.4 23.7C1178.4 22.4 1177.9 21.2999 1177 20.4999C1175.8 19.6999 1174.5 19.3999 1172.9 19.3999Z" fill="#F5ECDC"/>
<path d="M1285.2 29.3999C1285.2 40.5999 1280.9 46.2 1272.2 46.2C1270.7 46.2 1269.5 46.0999 1268.6 45.7999V42.9999C1269.6 43.2999 1270.8 43.4999 1272.2 43.4999C1275.3 43.4999 1277.7 42.4999 1279.3 40.5999C1280.9 38.6999 1281.8 35.7 1281.9 31.7H1281.7C1281 32.8 1280 33.6 1278.8 34.2C1277.6 34.8 1276.3 35.0999 1274.8 35.0999C1272.3 35.0999 1270.2 34.2999 1268.8 32.7999C1267.3 31.2999 1266.6 29.1999 1266.6 26.3999C1266.6 23.3999 1267.4 21.0999 1269.1 19.2999C1270.8 17.5999 1273 16.7 1275.7 16.7C1277.7 16.7 1279.4 17.2 1280.8 18.2C1282.3 19.2 1283.4 20.6999 1284.2 22.5999C1284.8 24.4999 1285.2 26.7999 1285.2 29.3999ZM1275.5 19.4999C1273.6 19.4999 1272.2 20.0999 1271.2 21.2999C1270.2 22.4999 1269.7 24.1999 1269.7 26.2999C1269.7 28.1999 1270.2 29.7 1271.1 30.7C1272 31.8 1273.5 32.2999 1275.4 32.2999C1276.6 32.2999 1277.7 32.0999 1278.7 31.5999C1279.7 31.0999 1280.5 30.4999 1281.1 29.5999C1281.7 28.7999 1282 27.8999 1282 26.9999C1282 25.5999 1281.7 24.4 1281.2 23.2C1280.7 22 1279.9 21.0999 1279 20.4999C1277.9 19.7999 1276.8 19.4999 1275.5 19.4999Z" fill="#F5ECDC"/>
<path d="M1375.3 45.8H1372.1V25.3C1372.1 23.6 1372.2 22 1372.3 20.5C1372 20.8 1371.7 21.1 1371.4 21.4C1371.1 21.7 1369.5 23 1366.7 25.2L1365 23L1372.6 17.1H1375.3V45.8Z" fill="#F5ECDC"/>
<path d="M1405.2 31.3999C1405.2 36.3999 1404.4 40.0999 1402.9 42.4999C1401.3 44.8999 1398.9 46.2 1395.7 46.2C1392.6 46.2 1390.3 44.8999 1388.7 42.3999C1387.1 39.8999 1386.3 36.1999 1386.3 31.3999C1386.3 26.3999 1387.1 22.6999 1388.6 20.2999C1390.2 17.8999 1392.5 16.7 1395.7 16.7C1398.8 16.7 1401.2 17.9999 1402.8 20.4999C1404.4 22.9999 1405.2 26.5999 1405.2 31.3999ZM1389.5 31.3999C1389.5 35.5999 1390 38.5999 1391 40.4999C1392 42.3999 1393.5 43.3999 1395.7 43.3999C1397.9 43.3999 1399.4 42.3999 1400.4 40.4999C1401.4 38.5999 1401.9 35.4999 1401.9 31.3999C1401.9 27.2999 1401.4 24.2999 1400.4 22.2999C1399.4 20.2999 1397.9 19.3999 1395.7 19.3999C1393.6 19.3999 1392 20.3 1391 22.2C1390 24.2 1389.5 27.2999 1389.5 31.3999Z" fill="#F5ECDC"/>
<path d="M1493.8 45.8H1490.6V25.3C1490.6 23.6 1490.7 22 1490.8 20.5C1490.5 20.8 1490.2 21.1 1489.9 21.4C1489.6 21.7 1488 23 1485.2 25.2L1483.5 23L1491.1 17.1H1493.8V45.8Z" fill="#F5ECDC"/>
<path d="M1516.8 45.8H1513.6V25.3C1513.6 23.6 1513.7 22 1513.8 20.5C1513.5 20.8 1513.2 21.1 1512.9 21.4C1512.6 21.7 1511 23 1508.2 25.2L1506.5 23L1514.1 17.1H1516.8V45.8Z" fill="#F5ECDC"/>
<path d="M1597.6 45.8H1594.4V25.3C1594.4 23.6 1594.5 22 1594.6 20.5C1594.3 20.8 1594 21.1 1593.7 21.4C1593.4 21.7 1591.8 23 1589 25.2L1587.3 23L1594.9 17.1H1597.6V45.8Z" fill="#F5ECDC"/>
<path d="M1627.4 45.7999H1608.5V42.9999L1616.1 35.3999C1618.4 33.0999 1619.9 31.3999 1620.7 30.3999C1621.4 29.3999 1622 28.3999 1622.3 27.4999C1622.7 26.5999 1622.8 25.4999 1622.8 24.4999C1622.8 22.9999 1622.3 21.7999 1621.4 20.8999C1620.5 19.9999 1619.2 19.5999 1617.5 19.5999C1616.3 19.5999 1615.2 19.8 1614.1 20.2C1613 20.6 1611.8 21.2999 1610.5 22.2999L1608.8 20.0999C1611.4 17.8999 1614.3 16.7999 1617.4 16.7999C1620.1 16.7999 1622.2 17.4999 1623.7 18.8999C1625.2 20.2999 1626 22.0999 1626 24.4999C1626 26.2999 1625.5 28.0999 1624.5 29.8999C1623.5 31.6999 1621.6 33.9 1618.8 36.7L1612.5 42.7999V42.9999H1627.3V45.7999H1627.4Z" fill="#F5ECDC"/>
<path d="M1700.6 45.8H1697.4V25.3C1697.4 23.6 1697.5 22 1697.6 20.5C1697.3 20.8 1697 21.1 1696.7 21.4C1696.4 21.7 1694.8 23 1692 25.2L1690.3 23L1697.9 17.1H1700.6V45.8Z" fill="#F5ECDC"/>
<path d="M1729.3 23.8999C1729.3 25.6999 1728.8 27.1999 1727.8 28.3999C1726.8 29.5999 1725.3 30.3 1723.4 30.7V30.8999C1725.7 31.1999 1727.4 31.8999 1728.5 33.0999C1729.6 34.2999 1730.2 35.8 1730.2 37.7C1730.2 40.4 1729.3 42.4999 1727.4 43.9999C1725.5 45.4999 1722.8 46.2 1719.3 46.2C1717.8 46.2 1716.4 46.0999 1715.1 45.8999C1713.8 45.6999 1712.6 45.3 1711.4 44.7V41.5999C1712.6 42.1999 1714 42.6999 1715.4 42.9999C1716.8 43.2999 1718.1 43.4999 1719.4 43.4999C1724.4 43.4999 1726.8 41.6 1726.8 37.7C1726.8 34.2 1724.1 32.4999 1718.6 32.4999H1715.8V29.7H1718.7C1720.9 29.7 1722.7 29.2 1724 28.2C1725.3 27.2 1726 25.7999 1726 24.0999C1726 22.6999 1725.5 21.5999 1724.6 20.7999C1723.6 19.9999 1722.3 19.5999 1720.7 19.5999C1719.4 19.5999 1718.3 19.7999 1717.1 20.0999C1716 20.3999 1714.7 21.0999 1713.3 21.9999L1711.7 19.7999C1712.9 18.8999 1714.2 18.0999 1715.8 17.5999C1717.3 17.0999 1719 16.7999 1720.7 16.7999C1723.5 16.7999 1725.7 17.4 1727.2 18.7C1728.6 19.9 1729.3 21.6999 1729.3 23.8999Z" fill="#F5ECDC"/>
<path d="M1803.5 46.1999H1800.3V25.6999C1800.3 23.9999 1800.4 22.3999 1800.5 20.8999C1800.2 21.1999 1799.9 21.4999 1799.6 21.7999C1799.3 22.0999 1797.7 23.3999 1794.9 25.5999L1793.2 23.3999L1800.8 17.4999H1803.5V46.1999Z" fill="#F5ECDC"/>
<path d="M1834.6 39.5999H1830.3V46.1999H1827.2V39.5999H1813.2V36.7999L1826.8 17.3999H1830.3V36.6999H1834.6V39.5999ZM1827.2 36.6999V27.1999C1827.2 25.2999 1827.3 23.1999 1827.4 20.8999H1827.2C1826.6 22.1999 1826 23.1999 1825.4 23.9999L1816.4 36.7999H1827.2V36.6999Z" fill="#F5ECDC"/>
<path d="M1907.3 45.8H1904.1V25.3C1904.1 23.6 1904.2 22 1904.3 20.5C1904 20.8 1903.7 21.1 1903.4 21.4C1903.1 21.7 1901.5 23 1898.7 25.2L1897 23L1904.6 17.1H1907.3V45.8Z" fill="#F5ECDC"/>
<path d="M1926.6 28.2999C1929.6 28.2999 1932 28.9999 1933.7 30.4999C1935.4 31.9999 1936.3 34 1936.3 36.7C1936.3 39.7 1935.4 42 1933.5 43.7C1931.6 45.4 1929 46.2 1925.7 46.2C1922.5 46.2 1920 45.6999 1918.3 44.5999V41.4999C1919.2 42.0999 1920.4 42.5999 1921.7 42.8999C1923.1 43.1999 1924.4 43.3999 1925.7 43.3999C1928 43.3999 1929.8 42.8999 1931.1 41.7999C1932.4 40.6999 1933 39.0999 1933 37.0999C1933 33.0999 1930.5 31.0999 1925.6 31.0999C1924.4 31.0999 1922.7 31.3 1920.6 31.7L1918.9 30.5999L1920 17.2H1934.3V20.2H1922.8L1922.1 28.7999C1923.6 28.3999 1925.1 28.2999 1926.6 28.2999Z" fill="#F5ECDC"/>
<path d="M2007.9 45.8H2004.7V25.3C2004.7 23.6 2004.8 22 2004.9 20.5C2004.6 20.8 2004.3 21.1 2004 21.4C2003.7 21.7 2002.1 23 1999.3 25.2L1997.6 23L2005.2 17.1H2007.9V45.8Z" fill="#F5ECDC"/>
<path d="M2019.1 33.5999C2019.1 27.9999 2020.2 23.6999 2022.4 20.8999C2024.6 18.0999 2027.8 16.7 2032.1 16.7C2033.6 16.7 2034.7 16.7999 2035.6 17.0999V19.8999C2034.6 19.5999 2033.4 19.3999 2032.1 19.3999C2029 19.3999 2026.7 20.3999 2025.1 22.2999C2023.5 24.1999 2022.6 27.1999 2022.4 31.2999H2022.6C2024 28.9999 2026.3 27.8999 2029.4 27.8999C2032 27.8999 2034 28.7 2035.5 30.2C2037 31.8 2037.7 33.8999 2037.7 36.4999C2037.7 39.4999 2036.9 41.7999 2035.3 43.4999C2033.7 45.1999 2031.5 46.0999 2028.7 46.0999C2025.7 46.0999 2023.4 44.9999 2021.6 42.7999C2019.8 40.5999 2019.1 37.4999 2019.1 33.5999ZM2028.7 43.3999C2030.6 43.3999 2032 42.7999 2033 41.5999C2034 40.3999 2034.5 38.6999 2034.5 36.4999C2034.5 34.5999 2034 33.0999 2033.1 31.9999C2032.1 30.8999 2030.7 30.3999 2028.8 30.3999C2027.6 30.3999 2026.5 30.5999 2025.6 31.0999C2024.6 31.5999 2023.8 32.2999 2023.3 33.0999C2022.7 33.9999 2022.4 34.8 2022.4 35.7C2022.4 37 2022.7 38.2999 2023.2 39.4999C2023.7 40.6999 2024.5 41.5999 2025.4 42.2999C2026.4 43.0999 2027.5 43.3999 2028.7 43.3999Z" fill="#F5ECDC"/>
<path d="M2116.3 45.8H2113.1V25.3C2113.1 23.6 2113.2 22 2113.3 20.5C2113 20.8 2112.7 21.1 2112.4 21.4C2112.1 21.7 2110.5 23 2107.7 25.2L2106 23L2113.6 17.1H2116.3V45.8Z" fill="#F5ECDC"/>
<path d="M2130.9 45.8L2142.8 20.1H2127.2V17.1H2146.3V19.7L2134.6 45.8H2130.9Z" fill="#F5ECDC"/>
<path d="M2214.7 46.2H2211.5V25.7C2211.5 24 2211.6 22.4 2211.7 20.9C2211.4 21.2 2211.1 21.5 2210.8 21.8C2210.5 22.1 2208.9 23.4 2206.1 25.6L2204.4 23.4L2212 17.5H2214.7V46.2Z" fill="#F5ECDC"/>
<path d="M2235.1 17.1C2237.7 17.1 2239.8 17.7 2241.3 18.9C2242.8 20.1 2243.6 21.8 2243.6 23.9C2243.6 25.3 2243.2 26.6 2242.3 27.8C2241.4 29 2240 30 2238.1 31C2240.4 32.1 2242.1 33.3 2243.1 34.5C2244.1 35.7 2244.6 37.1 2244.6 38.7C2244.6 41.1 2243.8 43 2242.1 44.4C2240.4 45.8 2238.2 46.5 2235.3 46.5C2232.2 46.5 2229.9 45.8 2228.2 44.5C2226.6 43.2 2225.7 41.3 2225.7 38.8C2225.7 35.5 2227.7 33 2231.7 31.1C2229.9 30.1 2228.6 29 2227.8 27.8C2227 26.6 2226.6 25.3 2226.6 23.8C2226.6 21.7 2227.4 20.1 2228.9 18.8C2230.5 17.7 2232.6 17.1 2235.1 17.1ZM2228.9 39C2228.9 40.6 2229.4 41.8 2230.5 42.7C2231.6 43.6 2233.1 44 2235.1 44C2237.1 44 2238.6 43.5 2239.7 42.6C2240.8 41.7 2241.3 40.4 2241.3 38.8C2241.3 37.5 2240.8 36.4 2239.8 35.4C2238.8 34.4 2237 33.5 2234.5 32.5C2232.6 33.3 2231.1 34.3 2230.3 35.3C2229.4 36.4 2228.9 37.6 2228.9 39ZM2235.1 19.8C2233.5 19.8 2232.2 20.2 2231.3 21C2230.4 21.8 2229.9 22.8 2229.9 24.1C2229.9 25.3 2230.3 26.3 2231.1 27.2C2231.9 28.1 2233.3 28.9 2235.4 29.8C2237.3 29 2238.6 28.2 2239.4 27.3C2240.2 26.4 2240.6 25.3 2240.6 24.1C2240.6 22.8 2240.1 21.7 2239.2 20.9C2238.1 20.2 2236.8 19.8 2235.1 19.8Z" fill="#F5ECDC"/>
<path d="M67.7002 41.7C67.1002 41.7 66.7002 41.3 66.7002 40.7V27.2C66.7002 26.6 67.1002 26.2 67.7002 26.2C68.3002 26.2 68.7002 26.6 68.7002 27.2V40.7C68.7002 41.3 68.2002 41.7 67.7002 41.7Z" fill="#F5ECDC"/>
<path d="M107 41.7C106.4 41.7 106 41.3 106 40.7V27.2C106 26.6 106.4 26.2 107 26.2C107.6 26.2 108 26.6 108 27.2V40.7C108 41.3 107.6 41.7 107 41.7Z" fill="#F5ECDC"/>
<path d="M87.5 46.8C86.9 46.8 86.5 46.4 86.5 45.8V19.6C86.5 19 86.9 18.6 87.5 18.6C88.1 18.6 88.5 19 88.5 19.6V45.8C88.5 46.4 88 46.8 87.5 46.8Z" fill="#F5ECDC"/>
<path d="M182.7 41.7C182.1 41.7 181.7 41.3 181.7 40.7V27.2C181.7 26.6 182.1 26.2 182.7 26.2C183.3 26.2 183.7 26.6 183.7 27.2V40.7C183.7 41.3 183.2 41.7 182.7 41.7Z" fill="#F5ECDC"/>
<path d="M222 41.7C221.4 41.7 221 41.3 221 40.7V27.2C221 26.6 221.4 26.2 222 26.2C222.6 26.2 223 26.6 223 27.2V40.7C223 41.3 222.6 41.7 222 41.7Z" fill="#F5ECDC"/>
<path d="M202.4 46.8C201.8 46.8 201.4 46.4 201.4 45.8V19.6C201.4 19 201.8 18.6 202.4 18.6C203 18.6 203.4 19 203.4 19.6V45.8C203.4 46.4 203 46.8 202.4 46.8Z" fill="#F5ECDC"/>
<path d="M297.601 41.7C297.001 41.7 296.601 41.3 296.601 40.7V27.2C296.601 26.6 297.001 26.2 297.601 26.2C298.201 26.2 298.601 26.6 298.601 27.2V40.7C298.601 41.3 298.201 41.7 297.601 41.7Z" fill="#F5ECDC"/>
<path d="M337 41.7C336.4 41.7 336 41.3 336 40.7V27.2C336 26.6 336.4 26.2 337 26.2C337.6 26.2 338 26.6 338 27.2V40.7C338 41.3 337.5 41.7 337 41.7Z" fill="#F5ECDC"/>
<path d="M317.4 46.8C316.8 46.8 316.4 46.4 316.4 45.8V19.6C316.4 19 316.8 18.6 317.4 18.6C318 18.6 318.4 19 318.4 19.6V45.8C318.4 46.4 318 46.8 317.4 46.8Z" fill="#F5ECDC"/>
<path d="M377.3 41.7C376.7 41.7 376.3 41.3 376.3 40.7V27.2C376.3 26.6 376.7 26.2 377.3 26.2C377.9 26.2 378.3 26.6 378.3 27.2V40.7C378.3 41.3 377.8 41.7 377.3 41.7Z" fill="#F5ECDC"/>
<path d="M416.601 41.7C416.001 41.7 415.601 41.3 415.601 40.7V27.2C415.601 26.6 416.001 26.2 416.601 26.2C417.201 26.2 417.601 26.6 417.601 27.2V40.7C417.601 41.3 417.201 41.7 416.601 41.7Z" fill="#F5ECDC"/>
<path d="M397 46.8C396.4 46.8 396 46.4 396 45.8V19.6C396 19 396.4 18.6 397 18.6C397.6 18.6 398 19 398 19.6V45.8C398 46.4 397.6 46.8 397 46.8Z" fill="#F5ECDC"/>
<path d="M483.3 41.7C482.7 41.7 482.3 41.3 482.3 40.7V27.2C482.3 26.6 482.7 26.2 483.3 26.2C483.9 26.2 484.3 26.6 484.3 27.2V40.7C484.3 41.3 483.9 41.7 483.3 41.7Z" fill="#F5ECDC"/>
<path d="M522.7 41.7C522.1 41.7 521.7 41.3 521.7 40.7V27.2C521.7 26.6 522.1 26.2 522.7 26.2C523.3 26.2 523.7 26.6 523.7 27.2V40.7C523.7 41.3 523.3 41.7 522.7 41.7Z" fill="#F5ECDC"/>
<path d="M503.1 46.8C502.5 46.8 502.1 46.4 502.1 45.8V19.6C502.1 19 502.5 18.6 503.1 18.6C503.7 18.6 504.1 19 504.1 19.6V45.8C504.1 46.4 503.7 46.8 503.1 46.8Z" fill="#F5ECDC"/>
<path d="M585.601 41.7C585.001 41.7 584.601 41.3 584.601 40.7V27.2C584.601 26.6 585.001 26.2 585.601 26.2C586.201 26.2 586.601 26.6 586.601 27.2V40.7C586.601 41.3 586.201 41.7 585.601 41.7Z" fill="#F5ECDC"/>
<path d="M625.001 41.7C624.401 41.7 624.001 41.3 624.001 40.7V27.2C624.001 26.6 624.401 26.2 625.001 26.2C625.601 26.2 626.001 26.6 626.001 27.2V40.7C626.001 41.3 625.501 41.7 625.001 41.7Z" fill="#F5ECDC"/>
<path d="M605.4 46.8C604.8 46.8 604.4 46.4 604.4 45.8V19.6C604.4 19 604.8 18.6 605.4 18.6C606 18.6 606.4 19 606.4 19.6V45.8C606.4 46.4 606 46.8 605.4 46.8Z" fill="#F5ECDC"/>
<path d="M690.601 41.7C690.001 41.7 689.601 41.3 689.601 40.7V27.2C689.601 26.6 690.001 26.2 690.601 26.2C691.201 26.2 691.601 26.6 691.601 27.2V40.7C691.601 41.3 691.101 41.7 690.601 41.7Z" fill="#F5ECDC"/>
<path d="M729.9 41.7C729.3 41.7 728.9 41.3 728.9 40.7V27.2C728.9 26.6 729.3 26.2 729.9 26.2C730.5 26.2 730.9 26.6 730.9 27.2V40.7C730.9 41.3 730.5 41.7 729.9 41.7Z" fill="#F5ECDC"/>
<path d="M710.4 46.8C709.8 46.8 709.4 46.4 709.4 45.8V19.6C709.4 19 709.8 18.6 710.4 18.6C711 18.6 711.4 19 711.4 19.6V45.8C711.4 46.4 710.9 46.8 710.4 46.8Z" fill="#F5ECDC"/>
<path d="M795.5 41.7C794.9 41.7 794.5 41.3 794.5 40.7V27.2C794.5 26.6 794.9 26.2 795.5 26.2C796.1 26.2 796.5 26.6 796.5 27.2V40.7C796.5 41.3 796.1 41.7 795.5 41.7Z" fill="#F5ECDC"/>
<path d="M834.9 41.7C834.3 41.7 833.9 41.3 833.9 40.7V27.2C833.9 26.6 834.3 26.2 834.9 26.2C835.5 26.2 835.9 26.6 835.9 27.2V40.7C835.9 41.3 835.5 41.7 834.9 41.7Z" fill="#F5ECDC"/>
<path d="M815.3 46.8C814.7 46.8 814.3 46.4 814.3 45.8V19.6C814.3 19 814.7 18.6 815.3 18.6C815.9 18.6 816.3 19 816.3 19.6V45.8C816.3 46.4 815.9 46.8 815.3 46.8Z" fill="#F5ECDC"/>
<path d="M900.5 41.7C899.9 41.7 899.5 41.3 899.5 40.7V27.2C899.5 26.6 899.9 26.2 900.5 26.2C901.1 26.2 901.5 26.6 901.5 27.2V40.7C901.5 41.3 901.1 41.7 900.5 41.7Z" fill="#F5ECDC"/>
<path d="M939.9 41.7C939.3 41.7 938.9 41.3 938.9 40.7V27.2C938.9 26.6 939.3 26.2 939.9 26.2C940.5 26.2 940.9 26.6 940.9 27.2V40.7C940.9 41.3 940.4 41.7 939.9 41.7Z" fill="#F5ECDC"/>
<path d="M920.3 46.8C919.7 46.8 919.3 46.4 919.3 45.8V19.6C919.3 19 919.7 18.6 920.3 18.6C920.9 18.6 921.3 19 921.3 19.6V45.8C921.3 46.4 920.8 46.8 920.3 46.8Z" fill="#F5ECDC"/>
<path d="M999.7 41.7C999.1 41.7 998.7 41.3 998.7 40.7V27.2C998.7 26.6 999.1 26.2 999.7 26.2C1000.3 26.2 1000.7 26.6 1000.7 27.2V40.7C1000.7 41.3 1000.3 41.7 999.7 41.7Z" fill="#F5ECDC"/>
<path d="M1039.1 41.7C1038.5 41.7 1038.1 41.3 1038.1 40.7V27.2C1038.1 26.6 1038.5 26.2 1039.1 26.2C1039.7 26.2 1040.1 26.6 1040.1 27.2V40.7C1040.1 41.3 1039.6 41.7 1039.1 41.7Z" fill="#F5ECDC"/>
<path d="M1019.5 46.8C1018.9 46.8 1018.5 46.4 1018.5 45.8V19.6C1018.5 19 1018.9 18.6 1019.5 18.6C1020.1 18.6 1020.5 19 1020.5 19.6V45.8C1020.5 46.4 1020.1 46.8 1019.5 46.8Z" fill="#F5ECDC"/>
<path d="M1102.4 41.7C1101.8 41.7 1101.4 41.3 1101.4 40.7V27.2C1101.4 26.6 1101.8 26.2 1102.4 26.2C1103 26.2 1103.4 26.6 1103.4 27.2V40.7C1103.4 41.3 1102.9 41.7 1102.4 41.7Z" fill="#F5ECDC"/>
<path d="M1141.8 41.7C1141.2 41.7 1140.8 41.3 1140.8 40.7V27.2C1140.8 26.6 1141.2 26.2 1141.8 26.2C1142.4 26.2 1142.8 26.6 1142.8 27.2V40.7C1142.8 41.3 1142.3 41.7 1141.8 41.7Z" fill="#F5ECDC"/>
<path d="M1122.2 46.8C1121.6 46.8 1121.2 46.4 1121.2 45.8V19.6C1121.2 19 1121.6 18.6 1122.2 18.6C1122.8 18.6 1123.2 19 1123.2 19.6V45.8C1123.2 46.4 1122.7 46.8 1122.2 46.8Z" fill="#F5ECDC"/>
<path d="M1204.2 41.7C1203.6 41.7 1203.2 41.3 1203.2 40.7V27.2C1203.2 26.6 1203.6 26.2 1204.2 26.2C1204.8 26.2 1205.2 26.6 1205.2 27.2V40.7C1205.2 41.3 1204.7 41.7 1204.2 41.7Z" fill="#F5ECDC"/>
<path d="M1243.5 41.7C1242.9 41.7 1242.5 41.3 1242.5 40.7V27.2C1242.5 26.6 1242.9 26.2 1243.5 26.2C1244.1 26.2 1244.5 26.6 1244.5 27.2V40.7C1244.5 41.3 1244.1 41.7 1243.5 41.7Z" fill="#F5ECDC"/>
<path d="M1224 46.8C1223.4 46.8 1223 46.4 1223 45.8V19.6C1223 19 1223.4 18.6 1224 18.6C1224.6 18.6 1225 19 1225 19.6V45.8C1225 46.4 1224.5 46.8 1224 46.8Z" fill="#F5ECDC"/>
<path d="M1306 41.7C1305.4 41.7 1305 41.3 1305 40.7V27.2C1305 26.6 1305.4 26.2 1306 26.2C1306.6 26.2 1307 26.6 1307 27.2V40.7C1307 41.3 1306.5 41.7 1306 41.7Z" fill="#F5ECDC"/>
<path d="M1345.3 41.7C1344.7 41.7 1344.3 41.3 1344.3 40.7V27.2C1344.3 26.6 1344.7 26.2 1345.3 26.2C1345.9 26.2 1346.3 26.6 1346.3 27.2V40.7C1346.3 41.3 1345.9 41.7 1345.3 41.7Z" fill="#F5ECDC"/>
<path d="M1325.8 46.8C1325.2 46.8 1324.8 46.4 1324.8 45.8V19.6C1324.8 19 1325.2 18.6 1325.8 18.6C1326.4 18.6 1326.8 19 1326.8 19.6V45.8C1326.8 46.4 1326.3 46.8 1325.8 46.8Z" fill="#F5ECDC"/>
<path d="M1421.6 41.7C1421 41.7 1420.6 41.3 1420.6 40.7V27.2C1420.6 26.6 1421 26.2 1421.6 26.2C1422.2 26.2 1422.6 26.6 1422.6 27.2V40.7C1422.6 41.3 1422.1 41.7 1421.6 41.7Z" fill="#F5ECDC"/>
<path d="M1460.9 41.7C1460.3 41.7 1459.9 41.3 1459.9 40.7V27.2C1459.9 26.6 1460.3 26.2 1460.9 26.2C1461.5 26.2 1461.9 26.6 1461.9 27.2V40.7C1461.9 41.3 1461.5 41.7 1460.9 41.7Z" fill="#F5ECDC"/>
<path d="M1441.3 46.8C1440.7 46.8 1440.3 46.4 1440.3 45.8V19.6C1440.3 19 1440.7 18.6 1441.3 18.6C1441.9 18.6 1442.3 19 1442.3 19.6V45.8C1442.3 46.4 1441.9 46.8 1441.3 46.8Z" fill="#F5ECDC"/>
<path d="M1537.1 41.7C1536.5 41.7 1536.1 41.3 1536.1 40.7V27.2C1536.1 26.6 1536.5 26.2 1537.1 26.2C1537.7 26.2 1538.1 26.6 1538.1 27.2V40.7C1538.1 41.3 1537.7 41.7 1537.1 41.7Z" fill="#F5ECDC"/>
<path d="M1576.5 41.7C1575.9 41.7 1575.5 41.3 1575.5 40.7V27.2C1575.5 26.6 1575.9 26.2 1576.5 26.2C1577.1 26.2 1577.5 26.6 1577.5 27.2V40.7C1577.5 41.3 1577 41.7 1576.5 41.7Z" fill="#F5ECDC"/>
<path d="M1556.9 46.8C1556.3 46.8 1555.9 46.4 1555.9 45.8V19.6C1555.9 19 1556.3 18.6 1556.9 18.6C1557.5 18.6 1557.9 19 1557.9 19.6V45.8C1557.9 46.4 1557.5 46.8 1556.9 46.8Z" fill="#F5ECDC"/>
<path d="M1640.3 41.7C1639.7 41.7 1639.3 41.3 1639.3 40.7V27.2C1639.3 26.6 1639.7 26.2 1640.3 26.2C1640.9 26.2 1641.3 26.6 1641.3 27.2V40.7C1641.3 41.3 1640.9 41.7 1640.3 41.7Z" fill="#F5ECDC"/>
<path d="M1679.7 41.7C1679.1 41.7 1678.7 41.3 1678.7 40.7V27.2C1678.7 26.6 1679.1 26.2 1679.7 26.2C1680.3 26.2 1680.7 26.6 1680.7 27.2V40.7C1680.7 41.3 1680.2 41.7 1679.7 41.7Z" fill="#F5ECDC"/>
<path d="M1660.1 46.8C1659.5 46.8 1659.1 46.4 1659.1 45.8V19.6C1659.1 19 1659.5 18.6 1660.1 18.6C1660.7 18.6 1661.1 19 1661.1 19.6V45.8C1661.1 46.4 1660.7 46.8 1660.1 46.8Z" fill="#F5ECDC"/>
<path d="M1744.3 41.7C1743.7 41.7 1743.3 41.3 1743.3 40.7V27.2C1743.3 26.6 1743.7 26.2 1744.3 26.2C1744.9 26.2 1745.3 26.6 1745.3 27.2V40.7C1745.3 41.3 1744.8 41.7 1744.3 41.7Z" fill="#F5ECDC"/>
<path d="M1783.6 41.7C1783 41.7 1782.6 41.3 1782.6 40.7V27.2C1782.6 26.6 1783 26.2 1783.6 26.2C1784.2 26.2 1784.6 26.6 1784.6 27.2V40.7C1784.6 41.3 1784.2 41.7 1783.6 41.7Z" fill="#F5ECDC"/>
<path d="M1764 46.8C1763.4 46.8 1763 46.4 1763 45.8V19.6C1763 19 1763.4 18.6 1764 18.6C1764.6 18.6 1765 19 1765 19.6V45.8C1765 46.4 1764.6 46.8 1764 46.8Z" fill="#F5ECDC"/>
<path d="M1849.4 41.7C1848.8 41.7 1848.4 41.3 1848.4 40.7V27.2C1848.4 26.6 1848.8 26.2 1849.4 26.2C1850 26.2 1850.4 26.6 1850.4 27.2V40.7C1850.4 41.3 1850 41.7 1849.4 41.7Z" fill="#F5ECDC"/>
<path d="M1888.8 41.7C1888.2 41.7 1887.8 41.3 1887.8 40.7V27.2C1887.8 26.6 1888.2 26.2 1888.8 26.2C1889.4 26.2 1889.8 26.6 1889.8 27.2V40.7C1889.8 41.3 1889.3 41.7 1888.8 41.7Z" fill="#F5ECDC"/>
<path d="M1869.2 46.8C1868.6 46.8 1868.2 46.4 1868.2 45.8V19.6C1868.2 19 1868.6 18.6 1869.2 18.6C1869.8 18.6 1870.2 19 1870.2 19.6V45.8C1870.2 46.4 1869.8 46.8 1869.2 46.8Z" fill="#F5ECDC"/>
<path d="M1946.4 41.7C1945.8 41.7 1945.4 41.3 1945.4 40.7V27.2C1945.4 26.6 1945.8 26.2 1946.4 26.2C1947 26.2 1947.4 26.6 1947.4 27.2V40.7C1947.4 41.3 1947 41.7 1946.4 41.7Z" fill="#F5ECDC"/>
<path d="M1985.8 41.7C1985.2 41.7 1984.8 41.3 1984.8 40.7V27.2C1984.8 26.6 1985.2 26.2 1985.8 26.2C1986.4 26.2 1986.8 26.6 1986.8 27.2V40.7C1986.8 41.3 1986.3 41.7 1985.8 41.7Z" fill="#F5ECDC"/>
<path d="M1966.2 46.8C1965.6 46.8 1965.2 46.4 1965.2 45.8V19.6C1965.2 19 1965.6 18.6 1966.2 18.6C1966.8 18.6 1967.2 19 1967.2 19.6V45.8C1967.2 46.4 1966.8 46.8 1966.2 46.8Z" fill="#F5ECDC"/>
<path d="M2052 41.7C2051.4 41.7 2051 41.3 2051 40.7V27.2C2051 26.6 2051.4 26.2 2052 26.2C2052.6 26.2 2053 26.6 2053 27.2V40.7C2053 41.3 2052.5 41.7 2052 41.7Z" fill="#F5ECDC"/>
<path d="M2091.3 41.7C2090.7 41.7 2090.3 41.3 2090.3 40.7V27.2C2090.3 26.6 2090.7 26.2 2091.3 26.2C2091.9 26.2 2092.3 26.6 2092.3 27.2V40.7C2092.3 41.3 2091.9 41.7 2091.3 41.7Z" fill="#F5ECDC"/>
<path d="M2071.8 46.8C2071.2 46.8 2070.8 46.4 2070.8 45.8V19.6C2070.8 19 2071.2 18.6 2071.8 18.6C2072.4 18.6 2072.8 19 2072.8 19.6V45.8C2072.8 46.4 2072.3 46.8 2071.8 46.8Z" fill="#F5ECDC"/>
<path d="M2153.5 41.7C2152.9 41.7 2152.5 41.3 2152.5 40.7V27.2C2152.5 26.6 2152.9 26.2 2153.5 26.2C2154.1 26.2 2154.5 26.6 2154.5 27.2V40.7C2154.5 41.3 2154 41.7 2153.5 41.7Z" fill="#F5ECDC"/>
<path d="M2192.8 41.7C2192.2 41.7 2191.8 41.3 2191.8 40.7V27.2C2191.8 26.6 2192.2 26.2 2192.8 26.2C2193.4 26.2 2193.8 26.6 2193.8 27.2V40.7C2193.8 41.3 2193.4 41.7 2192.8 41.7Z" fill="#F5ECDC"/>
<path d="M2173.2 46.8C2172.6 46.8 2172.2 46.4 2172.2 45.8V19.6C2172.2 19 2172.6 18.6 2173.2 18.6C2173.8 18.6 2174.2 19 2174.2 19.6V45.8C2174.2 46.4 2173.8 46.8 2173.2 46.8Z" fill="#F5ECDC"/>
<path d="M2072.1 32L2050.6 60.5H2093.6L2072.1 32Z" fill="#1D8DC0"/>
<path d="M2072.1 28.5L2093.6 0H2050.6L2072.1 28.5Z" fill="#1D8DC0"/>
<path d="M202.5 32.0717L181 60.7H224L202.5 32.0717Z" fill="#1D8DC0"/>
<path d="M202.5 28.6284L224 0H181L202.5 28.6284Z" fill="#1D8DC0"/>
</svg>
