<svg width="60" height="60" viewBox="0 0 60 60" fill="none" xmlns="http://www.w3.org/2000/svg">
<path d="M3.53001 13.06H56.09C56.945 13.06 57.62 12.385 57.62 11.53C57.62 10.675 56.945 10 56.09 10H3.53001C2.67501 10 2 10.675 2 11.53C2 12.385 2.67501 13.06 3.53001 13.06Z" fill="#5F3B28"/>
<path d="M56.135 34.7051H3.53001C2.67501 34.7051 2 35.3801 2 36.2351C2 37.0901 2.67501 37.7651 3.53001 37.7651H56.09C56.945 37.7651 57.62 37.0901 57.62 36.2351C57.665 35.4251 56.99 34.7051 56.135 34.7051Z" fill="#5F3B28"/>
<path d="M3.53001 25.435H40.655C41.51 25.435 42.185 24.76 42.185 23.905C42.185 23.05 41.51 22.375 40.655 22.375H3.53001C2.67501 22.375 2 23.05 2 23.905C2 24.76 2.67501 25.435 3.53001 25.435Z" fill="#5F3B28"/>
<path d="M40.655 47.0801H3.53001C2.67501 47.0801 2 47.7551 2 48.6101C2 49.4651 2.67501 50.1401 3.53001 50.1401H40.655C41.51 50.1401 42.185 49.4651 42.185 48.6101C42.185 47.8001 41.51 47.0801 40.655 47.0801Z" fill="#5F3B28"/>
</svg>
