<svg width="60" height="60" viewBox="0 0 60 60" fill="none" xmlns="http://www.w3.org/2000/svg">
<path d="M58.1438 48.8015H1.85623C0.818923 48.8015 0 49.6205 0 50.6578V56.281C0 57.3183 0.818923 58.1373 1.85623 58.1373H58.1438C59.1811 58.1373 60 57.3183 60 56.281V50.6578C60 49.675 59.1811 48.8015 58.1438 48.8015Z" fill="#5F3B28"/>
<path d="M12.2835 39.2475C13.2116 39.6843 14.3581 39.3567 14.7949 38.4286L19.9268 28.2193H40.127L45.2589 38.4286C45.5865 39.0837 46.2416 39.4659 46.9514 39.4659C47.2244 39.4659 47.4973 39.4113 47.7703 39.2475C48.6984 38.8108 49.0806 37.6643 48.5892 36.7362L31.7194 2.94177C31.0642 1.68608 28.9896 1.68608 28.3891 2.94177L11.5192 36.7362C10.9732 37.6643 11.3554 38.7562 12.2835 39.2475ZM30.0269 7.96449L38.2708 24.3976H21.8376L30.0269 7.96449Z" fill="#5F3B28"/>
</svg>
