<svg width="60" height="60" viewBox="0 0 60 60" fill="none" xmlns="http://www.w3.org/2000/svg">
<path d="M45.445 2H39.28H33.07H26.905C26.05 2 25.375 2.675 25.375 3.53C25.375 4.385 26.05 5.05999 26.905 5.05999H31.135L19.48 54.56H14.53C13.675 54.56 13 55.235 13 56.09C13 56.945 13.675 57.62 14.53 57.62H20.695H26.86H33.025C33.88 57.62 34.555 56.945 34.555 56.09C34.555 55.235 33.88 54.56 33.025 54.56H28.795L40.45 5.05999H45.4C46.255 5.05999 46.93 4.385 46.93 3.53C46.975 2.72 46.3 2 45.445 2Z" fill="#5F3B28"/>
</svg>
