<svg width="60" height="60" viewBox="0 0 60 60" fill="none" xmlns="http://www.w3.org/2000/svg">
<path d="M17.4353 13.165H56.0903C56.9453 13.165 57.6203 12.49 57.6203 11.635C57.6203 10.78 56.9453 10.105 56.0903 10.105H17.4353C16.5803 10.105 15.9053 10.78 15.9053 11.635C15.9053 12.49 16.5803 13.165 17.4353 13.165Z" fill="#5F3B28"/>
<path d="M56.1352 28.645H17.4802C16.6252 28.645 15.9502 29.32 15.9502 30.175C15.9502 31.03 16.6252 31.705 17.4802 31.705H56.1352C56.9902 31.705 57.6652 31.03 57.6652 30.175C57.6652 29.32 56.9902 28.645 56.1352 28.645Z" fill="#5F3B28"/>
<path d="M56.1352 47.1851H17.4802C16.6252 47.1851 15.9502 47.8601 15.9502 48.7151C15.9502 49.5701 16.6252 50.2451 17.4802 50.2451H56.1352C56.9902 50.2451 57.6652 49.5701 57.6652 48.7151C57.6652 47.8601 56.9902 47.1851 56.1352 47.1851Z" fill="#5F3B28"/>
<path d="M8.165 7H5.10501C3.39501 7 2 8.395 2 10.105V13.21C2 14.92 3.39501 16.315 5.10501 16.315H8.21002C9.92002 16.315 11.315 14.92 11.315 13.21V10.105C11.27 8.35 9.875 7 8.165 7Z" fill="#5F3B28"/>
<path d="M8.165 25.54H5.10501C3.39501 25.54 2 26.935 2 28.645V31.75C2 33.46 3.39501 34.855 5.10501 34.855H8.21002C9.92002 34.855 11.315 33.46 11.315 31.75V28.645C11.27 26.935 9.875 25.54 8.165 25.54Z" fill="#5F3B28"/>
<path d="M8.165 44.0801H5.10501C3.39501 44.0801 2 45.4751 2 47.1851V50.2901C2 52.0001 3.39501 53.3951 5.10501 53.3951H8.21002C9.92002 53.3951 11.315 52.0001 11.315 50.2901V47.1851C11.27 45.4751 9.875 44.0801 8.165 44.0801Z" fill="#5F3B28"/>
</svg>
