<svg width="60" height="60" viewBox="0 0 60 60" fill="none" xmlns="http://www.w3.org/2000/svg">
<path d="M3.53001 13.06H56.09C56.945 13.06 57.62 12.385 57.62 11.53C57.62 10.675 56.945 10 56.09 10H3.53001C2.67501 10 2 10.675 2 11.53C2 12.385 2.67501 13.06 3.53001 13.06Z" fill="#5F3B28"/>
<path d="M56.1359 34.7051H3.57585C2.72085 34.7051 2.0459 35.3801 2.0459 36.2351C2.0459 37.0901 2.72085 37.7651 3.57585 37.7651H56.1359C56.9909 37.7651 57.6659 37.0901 57.6659 36.2351C57.6659 35.4251 56.9909 34.7051 56.1359 34.7051Z" fill="#5F3B28"/>
<path d="M56.1355 22.375H19.0105C18.1555 22.375 17.4805 23.05 17.4805 23.905C17.4805 24.76 18.1555 25.435 19.0105 25.435H56.1355C56.9905 25.435 57.6655 24.76 57.6655 23.905C57.6655 23.05 56.9905 22.375 56.1355 22.375Z" fill="#5F3B28"/>
<path d="M56.1355 47.0801H19.0105C18.1555 47.0801 17.4805 47.7551 17.4805 48.6101C17.4805 49.4651 18.1555 50.1401 19.0105 50.1401H56.1355C56.9905 50.1401 57.6655 49.4651 57.6655 48.6101C57.6655 47.8001 56.9905 47.0801 56.1355 47.0801Z" fill="#5F3B28"/>
</svg>
