<svg width="60" height="60" viewBox="0 0 60 60" fill="none" xmlns="http://www.w3.org/2000/svg">
<path d="M31.9388 19.0611C36.7258 23.8482 42.6392 27.9782 46.4876 27.9782C47.5201 27.9782 48.3648 27.6966 49.0219 27.0395C52.1663 23.8951 47.0977 15.9636 41.0435 9.95638C37.8991 6.81195 34.5199 4.18378 31.6102 2.63503C28.0434 0.710829 25.4622 0.476159 23.9604 1.97798C22.4586 3.47979 22.6932 6.06103 24.6174 9.62785C26.1662 12.5376 28.7474 15.8698 31.9388 19.0611Z" fill="#5F3B28"/>
<path d="M57.5174 55.8086H2.70121C1.80951 55.8086 1.10547 56.5126 1.10547 57.4043C1.10547 58.296 1.80951 58.9999 2.70121 58.9999H57.5174C58.4091 58.9999 59.113 58.296 59.113 57.4043C59.113 56.5126 58.4091 55.8086 57.5174 55.8086Z" fill="#5F3B28"/>
<path d="M52.6836 50.9746C56.2504 50.9746 59.1132 48.0648 59.1132 44.5449C59.1132 41.4005 54.7486 36.3788 53.8569 35.3932C53.2468 34.6892 52.0735 34.6892 51.4634 35.3932C50.5716 36.3788 46.207 41.4005 46.207 44.5449C46.207 48.0648 49.1168 50.9746 52.6836 50.9746Z" fill="#5F3B28"/>
<path d="M17.1093 47.5488C18.6111 49.0506 20.6762 49.8954 22.7881 49.8954C24.9 49.8954 26.9649 49.0506 28.4667 47.5488L44.9398 31.0757C38.7917 30.0901 31.752 23.4728 29.5932 21.3139C26.2141 17.9348 23.3982 14.3211 21.7086 11.1297C20.6292 9.15857 20.066 7.46904 19.8314 6.01416L3.35831 22.4872C0.213895 25.6316 0.213895 30.7472 3.35831 33.8916L17.1093 47.5488Z" fill="#5F3B28"/>
</svg>
