<svg width="60" height="60" viewBox="0 0 60 60" fill="none" xmlns="http://www.w3.org/2000/svg">
<path d="M25.625 47.1982C25.94 47.5132 26.3 47.6482 26.705 47.6482C26.975 47.6482 27.245 47.5582 27.515 47.4232L32.96 44.1382C33.365 43.9132 33.635 43.4632 33.68 43.0132C33.725 42.5182 33.59 42.0682 33.23 41.7532L17.93 26.4532C17.615 26.1382 17.12 25.9582 16.67 26.0032C16.175 26.0482 15.77 26.3182 15.545 26.7232L12.26 32.1682C11.9 32.7982 11.99 33.5632 12.485 34.0582L25.625 47.1982Z" fill="#5F3B28"/>
<path d="M56.135 54.6233H3.53C2.675 54.6233 2 55.2983 2 56.1533C2 57.0083 2.675 57.6833 3.53 57.6833H56.09C56.945 57.6833 57.62 57.0083 57.62 56.1533C57.665 55.2983 56.99 54.6233 56.135 54.6233Z" fill="#5F3B28"/>
<path d="M7.40034 46.4333L16.1303 50.7983C16.3553 50.8883 16.5803 50.9783 16.8053 50.9783C17.1203 50.9783 17.4803 50.8883 17.7503 50.6633L21.6653 47.7383L11.8103 37.8833L6.86034 44.0933C6.59034 44.4533 6.45535 44.9483 6.54535 45.3983C6.68035 45.8033 6.99534 46.2083 7.40034 46.4333Z" fill="#5F3B28"/>
<path d="M35.4357 39.5483C35.7507 39.8633 36.0207 40.2683 36.2457 40.6733L56.4507 18.7133C58.1607 16.8683 58.0707 14.0783 56.3157 12.2783L47.4057 3.36824C45.6507 1.61324 42.8157 1.52325 40.9707 3.23325L19.0107 23.4383C19.4157 23.6633 19.8207 23.9333 20.1357 24.2483L35.4357 39.5483Z" fill="#5F3B28"/>
</svg>
