<svg width="60" height="60" viewBox="0 0 60 60" fill="none" xmlns="http://www.w3.org/2000/svg">
<path d="M36.2553 42.9315L27.139 52.0478C22.1204 57.0664 13.971 57.0664 8.95239 52.0478C6.51216 49.6076 5.17697 46.3846 5.17697 42.9775C5.17697 39.5243 6.51216 36.3014 8.95239 33.9072L18.0687 24.7909C18.6673 24.1924 18.6673 23.1794 18.0687 22.5348C17.4702 21.9363 16.4572 21.9363 15.8126 22.5348L6.69626 31.6512C3.65749 34.6899 2 38.6956 2 42.9775C2 47.2594 3.65749 51.2651 6.69626 54.3038C9.82712 57.4347 13.9249 59.0001 18.0226 59.0001C22.1204 59.0001 26.2182 57.4347 29.349 54.3038L38.4652 45.1875C39.0638 44.589 39.0638 43.576 38.4652 42.9315C37.8667 42.3329 36.8539 42.3329 36.2553 42.9315Z" fill="#5F3B28"/>
<path d="M54.3038 6.69629C48.0421 0.434572 37.9129 0.434572 31.6512 6.69629L22.5348 15.8126C21.9363 16.4111 21.9363 17.4241 22.5348 18.0687C23.1334 18.6672 24.1463 18.6672 24.7909 18.0687L33.9072 8.95234C38.9258 3.93376 47.0752 3.93376 52.0938 8.95234C54.534 11.3926 55.8692 14.6155 55.8692 18.0226C55.8692 21.4758 54.534 24.6987 52.0938 27.0929L42.9775 36.2092C42.3789 36.8077 42.3789 37.8207 42.9775 38.4653C43.2997 38.7876 43.7142 38.9257 44.0825 38.9257C44.4969 38.9257 44.9112 38.7876 45.1875 38.4653L54.3038 29.3489C57.3426 26.3102 59.0001 22.3045 59.0001 18.0226C59.0001 13.7407 57.3426 9.73506 54.3038 6.69629Z" fill="#5F3B28"/>
<path d="M39.4785 19.3117L19.3581 39.4321C18.7595 40.0306 18.7595 41.0435 19.3581 41.6881C19.6804 42.0104 20.0948 42.1485 20.4632 42.1485C20.8775 42.1485 21.2919 42.0104 21.5681 41.6881L41.6885 21.5678C42.287 20.9692 42.287 19.9563 41.6885 19.3117C41.0899 18.7132 40.0771 18.7132 39.4785 19.3117Z" fill="#5F3B28"/>
</svg>
