<svg width="60" height="60" viewBox="0 0 60 60" fill="none" xmlns="http://www.w3.org/2000/svg">
<path d="M53.03 2H6.63502C4.07002 2 2 4.07002 2 6.63502V11.27H57.665V6.63502C57.665 4.07002 55.595 2 53.03 2Z" fill="#5F3B28"/>
<path d="M57.6653 28.28H40.6553V40.655H57.6653V28.28Z" fill="#5F3B28"/>
<path d="M37.5952 28.2803H22.1152V40.6553H37.5952V28.2803Z" fill="#5F3B28"/>
<path d="M37.5952 43.7151H22.1152V57.6201H37.5952V43.7151Z" fill="#5F3B28"/>
<path d="M57.6653 14.375H40.6553V25.22H57.6653V14.375Z" fill="#5F3B28"/>
<path d="M2 53.03C2 55.595 4.07002 57.665 6.63502 57.665H19.01V43.76H2V53.03Z" fill="#5F3B28"/>
<path d="M19.01 14.375H2V25.22H19.01V14.375Z" fill="#5F3B28"/>
<path d="M19.01 28.28H2V40.655H19.01V28.28Z" fill="#5F3B28"/>
<path d="M40.6553 57.665H53.0303C55.5953 57.665 57.6653 55.595 57.6653 53.03V43.76H40.6553V57.665Z" fill="#5F3B28"/>
<path d="M37.5952 14.375H22.1152V25.22H37.5952V14.375Z" fill="#5F3B28"/>
</svg>
