<svg width="60" height="60" viewBox="0 0 60 60" fill="none" xmlns="http://www.w3.org/2000/svg">
<path d="M3.53201 13.06H56.092C56.947 13.06 57.622 12.385 57.622 11.53C57.622 10.675 56.947 10 56.092 10H3.53201C2.67701 10 2.002 10.675 2.002 11.53C1.957 12.34 2.67701 13.06 3.53201 13.06Z" fill="#5F3B28"/>
<path d="M56.0919 34.7051H3.53196C2.67696 34.7051 2.00195 35.3801 2.00195 36.2351C2.00195 37.0901 2.67696 37.7651 3.53196 37.7651H56.0919C56.9469 37.7651 57.622 37.0901 57.622 36.2351C57.667 35.3801 56.9469 34.7051 56.0919 34.7051Z" fill="#5F3B28"/>
<path d="M11.2712 22.3301C10.4162 22.3301 9.74121 23.0051 9.74121 23.8601C9.74121 24.7151 10.4162 25.3901 11.2712 25.3901H48.3962C49.2512 25.3901 49.9262 24.7151 49.9262 23.8601C49.9262 23.0051 49.2512 22.3301 48.3962 22.3301H11.2712Z" fill="#5F3B28"/>
<path d="M48.3522 47.0801H11.2272C10.3722 47.0801 9.69727 47.7551 9.69727 48.6101C9.69727 49.4651 10.3722 50.1401 11.2272 50.1401H48.3522C49.2072 50.1401 49.8822 49.4651 49.8822 48.6101C49.9272 47.7551 49.2072 47.0801 48.3522 47.0801Z" fill="#5F3B28"/>
</svg>
