<svg width="60" height="60" viewBox="0 0 60 60" fill="none" xmlns="http://www.w3.org/2000/svg">
<path d="M3.53001 13.06H56.09C56.945 13.06 57.62 12.385 57.62 11.53C57.62 10.675 56.945 10 56.09 10H3.53001C2.67501 10 2 10.675 2 11.53C2 12.34 2.67501 13.06 3.53001 13.06Z" fill="#5F3B28"/>
<path d="M56.09 34.7051H3.53001C2.67501 34.7051 2 35.3801 2 36.2351C2 37.0901 2.67501 37.7651 3.53001 37.7651H56.09C56.945 37.7651 57.62 37.0901 57.62 36.2351C57.665 35.3801 56.945 34.7051 56.09 34.7051Z" fill="#5F3B28"/>
<path d="M56.09 22.3301H3.53001C2.67501 22.3301 2 23.0051 2 23.8601C2 24.7151 2.67501 25.3901 3.53001 25.3901H56.09C56.945 25.3901 57.62 24.7151 57.62 23.8601C57.665 23.0051 56.945 22.3301 56.09 22.3301Z" fill="#5F3B28"/>
<path d="M56.09 47.0801H3.53001C2.67501 47.0801 2 47.7551 2 48.6101C2 49.4651 2.67501 50.1401 3.53001 50.1401H56.09C56.945 50.1401 57.62 49.4651 57.62 48.6101C57.665 47.7551 56.945 47.0801 56.09 47.0801Z" fill="#5F3B28"/>
</svg>
