<svg width="60" height="60" viewBox="0 0 60 60" fill="none" xmlns="http://www.w3.org/2000/svg">
<path d="M49.715 2H32.705H26.54H9.53001C8.67501 2 8 2.675 8 3.53V11.27C8 12.125 8.67501 12.8 9.53001 12.8C10.385 12.8 11.06 12.125 11.06 11.27V5.105H24.965V54.605H21.86C21.005 54.605 20.33 55.28 20.33 56.135C20.33 56.99 21.005 57.665 21.86 57.665H26.54H32.705H37.34C38.195 57.665 38.87 56.99 38.87 56.135C38.87 55.28 38.195 54.605 37.34 54.605H34.235V5.105H48.14V11.27C48.14 12.125 48.815 12.8 49.67 12.8C50.525 12.8 51.2 12.125 51.2 11.27V3.53C51.29 2.72 50.57 2 49.715 2Z" fill="#5F3B28"/>
</svg>
