<svg width="60" height="60" viewBox="0 0 60 60" fill="none" xmlns="http://www.w3.org/2000/svg">
<path d="M10.0603 5.05999H13.1652V32.915C13.1652 42.32 20.7703 49.925 30.1753 49.925C39.5803 49.925 47.1853 42.32 47.1853 32.915V5.05999H50.2902C51.1452 5.05999 51.8202 4.38498 51.8202 3.52998C51.8202 2.67498 51.1452 2 50.2902 2H37.9152C37.0602 2 36.3853 2.67498 36.3853 3.52998C36.3853 4.38498 37.0602 5.05999 37.9152 5.05999H41.0202V32.915C41.0202 38.9 36.1603 43.76 30.1753 43.76C24.1903 43.76 19.3303 38.9 19.3303 32.915V5.05999H22.4353C23.2903 5.05999 23.9652 4.38498 23.9652 3.52998C23.9652 2.67498 23.2903 2 22.4353 2H10.0603C9.20528 2 8.53027 2.67498 8.53027 3.52998C8.53027 4.33998 9.20528 5.05999 10.0603 5.05999Z" fill="#5F3B28"/>
<path d="M51.82 54.5149H8.53001C7.67501 54.5149 7 55.1899 7 56.0449C7 56.8999 7.67501 57.5749 8.53001 57.5749H51.82C52.675 57.5749 53.35 56.8999 53.35 56.0449C53.395 55.2349 52.675 54.5149 51.82 54.5149Z" fill="#5F3B28"/>
</svg>
