<svg width="60" height="60" viewBox="0 0 60 60" fill="none" xmlns="http://www.w3.org/2000/svg">
<path d="M40.115 26.12C42.815 23.69 44.5699 20.27 44.7049 16.445C45.0199 8.48 38.0449 2 29.855 2H14.375C12.53 2 11 3.48499 11 5.28499V54.425C11 56.225 12.53 57.71 14.375 57.71H29.81C39.485 57.71 47.8099 50.42 48.0799 41.06C48.3049 34.805 45.065 29.315 40.115 26.12ZM17.75 8.57H30.395C34.58 8.57 38 11.855 38 15.95C38 20.045 34.58 23.33 30.395 23.33H17.75V8.57ZM30.395 51.14H17.75V29.855H30.395C36.425 29.855 41.375 34.625 41.375 40.52C41.375 46.37 36.425 51.14 30.395 51.14Z" fill="#5F3B28"/>
</svg>
