<svg width="60" height="60" viewBox="0 0 60 60" fill="none" xmlns="http://www.w3.org/2000/svg">
<path d="M19.5949 32.4501C19.0999 32.0001 18.38 31.9101 17.75 32.2251L4.29493 39.92L2 41.3601V46.7601C2 51.0351 5.46498 54.5001 9.73998 54.5001H42.95L42.5 54.0501L19.5949 32.4501Z" fill="#5F3B28"/>
<path d="M41.5997 24.5298C41.0597 24.1698 40.3397 24.1698 39.7997 24.5748L26.3896 34.6548L44.5696 51.8447L47.2696 54.4998H49.8796C54.1546 54.4998 57.6196 51.0348 57.6196 46.7598V35.0148L55.2796 33.6648L41.5997 24.5298Z" fill="#5F3B28"/>
<path d="M49.925 5H9.73998C5.46498 5 2 8.46503 2 12.74V37.715L2.71993 37.265L16.265 29.525C18.065 28.49 20.2699 28.76 21.7549 30.2L24.185 32.495L38 22.1C39.575 20.93 41.7349 20.84 43.3549 21.92L56.99 31.01L57.665 31.415V12.695C57.665 8.46499 54.2 5 49.925 5ZM22.115 22.01C19.55 22.01 17.48 19.94 17.48 17.375C17.48 14.81 19.55 12.74 22.115 12.74C24.68 12.74 26.75 14.81 26.75 17.375C26.75 19.94 24.635 22.01 22.115 22.01Z" fill="#5F3B28"/>
</svg>
