<svg width="900" height="1500" viewBox="0 0 900 1500" fill="none" xmlns="http://www.w3.org/2000/svg">
<path d="M89.4959 873.2C88.6648 873.2 87.9722 872.508 87.9722 871.676V29.5238C87.9722 28.6926 88.6648 28 89.4959 28C90.327 28 91.0197 28.6926 91.0197 29.5238V871.676C91.0197 872.508 90.327 873.2 89.4959 873.2Z" fill="#E0CBBF"/>
<path d="M149.615 873.2C148.784 873.2 148.091 872.508 148.091 871.676V29.5238C148.091 28.6926 148.784 28 149.615 28C150.446 28 151.139 28.6926 151.139 29.5238V871.676C151.208 872.508 150.446 873.2 149.615 873.2Z" fill="#E0CBBF"/>
<path d="M209.804 873.2C208.972 873.2 208.28 872.508 208.28 871.676V29.5238C208.28 28.6926 208.972 28 209.804 28C210.635 28 211.327 28.6926 211.327 29.5238V871.676C211.327 872.508 210.635 873.2 209.804 873.2Z" fill="#E0CBBF"/>
<path d="M269.923 873.2C269.092 873.2 268.399 872.508 268.399 871.676V29.5238C268.399 28.6926 269.092 28 269.923 28C270.754 28 271.446 28.6926 271.446 29.5238V871.676C271.446 872.508 270.754 873.2 269.923 873.2Z" fill="#E0CBBF"/>
<path d="M330.042 873.2C329.211 873.2 328.518 872.508 328.518 871.676V29.5238C328.518 28.6926 329.211 28 330.042 28C330.873 28 331.566 28.6926 331.566 29.5238V871.676C331.635 872.508 330.942 873.2 330.042 873.2Z" fill="#E0CBBF"/>
<path d="M390.23 873.2C389.399 873.2 388.707 872.508 388.707 871.676V29.5238C388.707 28.6926 389.399 28 390.23 28C391.061 28 391.754 28.6926 391.754 29.5238V871.676C391.754 872.508 391.061 873.2 390.23 873.2Z" fill="#E0CBBF"/>
<path d="M450.349 873.2C449.518 873.2 448.826 872.508 448.826 871.676V29.5238C448.826 28.6926 449.518 28 450.349 28C451.181 28 451.873 28.6926 451.873 29.5238V871.676C451.942 872.508 451.25 873.2 450.349 873.2Z" fill="#E0CBBF"/>
<path d="M510.537 873.2C509.706 873.2 509.014 872.508 509.014 871.676V29.5238C509.014 28.6926 509.706 28 510.537 28C511.369 28 512.061 28.6926 512.061 29.5238V871.676C512.061 872.508 511.369 873.2 510.537 873.2Z" fill="#E0CBBF"/>
<path d="M570.657 873.2C569.826 873.2 569.133 872.508 569.133 871.676V29.5238C569.133 28.6926 569.826 28 570.657 28C571.488 28 572.181 28.6926 572.181 29.5238V871.676C572.25 872.508 571.557 873.2 570.657 873.2Z" fill="#E0CBBF"/>
<path d="M630.845 873.2C630.014 873.2 629.321 872.508 629.321 871.676V29.5238C629.321 28.6926 630.014 28 630.845 28C631.676 28 632.369 28.6926 632.369 29.5238V871.676C632.369 872.508 631.676 873.2 630.845 873.2Z" fill="#E0CBBF"/>
<path d="M690.964 873.2C690.133 873.2 689.44 872.508 689.44 871.676V29.5238C689.44 28.6926 690.133 28 690.964 28C691.795 28 692.488 28.6926 692.488 29.5238V871.676C692.557 872.508 691.865 873.2 690.964 873.2Z" fill="#E0CBBF"/>
<path d="M751.153 873.2C750.321 873.2 749.629 872.508 749.629 871.676V29.5238C749.629 28.6926 750.321 28 751.153 28C751.984 28 752.677 28.6926 752.677 29.5238V871.676C752.677 872.508 751.984 873.2 751.153 873.2Z" fill="#E0CBBF"/>
<path d="M811.272 873.2C810.441 873.2 809.748 872.508 809.748 871.676V29.5238C809.748 28.6926 810.441 28 811.272 28C812.103 28 812.795 28.6926 812.795 29.5238V871.676C812.865 872.508 812.172 873.2 811.272 873.2Z" fill="#E0CBBF"/>
<path d="M751.153 873.2C750.321 873.2 749.629 872.508 749.629 871.676V29.5238C749.629 28.6926 750.321 28 751.153 28C751.984 28 752.677 28.6926 752.677 29.5238V871.676C752.677 872.508 751.984 873.2 751.153 873.2Z" fill="#E0CBBF"/>
<path d="M811.272 873.2C810.441 873.2 809.748 872.508 809.748 871.676V29.5238C809.748 28.6926 810.441 28 811.272 28C812.103 28 812.795 28.6926 812.795 29.5238V871.676C812.865 872.508 812.172 873.2 811.272 873.2Z" fill="#E0CBBF"/>
<path d="M89.5237 1471.2C88.6926 1471.2 88 1470.51 88 1469.68V627.524C88 626.693 88.6926 626 89.5237 626C90.3549 626 91.0475 626.693 91.0475 627.524V1469.68C91.0475 1470.51 90.3549 1471.2 89.5237 1471.2Z" fill="#E0CBBF"/>
<path d="M149.643 1471.2C148.812 1471.2 148.119 1470.51 148.119 1469.68V627.524C148.119 626.693 148.812 626 149.643 626C150.474 626 151.167 626.693 151.167 627.524V1469.68C151.236 1470.51 150.474 1471.2 149.643 1471.2Z" fill="#E0CBBF"/>
<path d="M209.831 1471.2C209 1471.2 208.308 1470.51 208.308 1469.68V627.524C208.308 626.693 209 626 209.831 626C210.663 626 211.355 626.693 211.355 627.524V1469.68C211.355 1470.51 210.663 1471.2 209.831 1471.2Z" fill="#E0CBBF"/>
<path d="M269.95 1471.2C269.119 1471.2 268.427 1470.51 268.427 1469.68V627.524C268.427 626.693 269.119 626 269.95 626C270.782 626 271.474 626.693 271.474 627.524V1469.68C271.474 1470.51 270.782 1471.2 269.95 1471.2Z" fill="#E0CBBF"/>
<path d="M330.07 1471.2C329.239 1471.2 328.546 1470.51 328.546 1469.68V627.524C328.546 626.693 329.239 626 330.07 626C330.901 626 331.593 626.693 331.593 627.524V1469.68C331.663 1470.51 330.97 1471.2 330.07 1471.2Z" fill="#E0CBBF"/>
<path d="M390.258 1471.2C389.427 1471.2 388.734 1470.51 388.734 1469.68V627.524C388.734 626.693 389.427 626 390.258 626C391.089 626 391.782 626.693 391.782 627.524V1469.68C391.782 1470.51 391.089 1471.2 390.258 1471.2Z" fill="#E0CBBF"/>
<path d="M450.377 1471.2C449.546 1471.2 448.854 1470.51 448.854 1469.68V627.524C448.854 626.693 449.546 626 450.377 626C451.208 626 451.901 626.693 451.901 627.524V1469.68C451.97 1470.51 451.278 1471.2 450.377 1471.2Z" fill="#E0CBBF"/>
<path d="M510.565 1471.2C509.734 1471.2 509.042 1470.51 509.042 1469.68V627.524C509.042 626.693 509.734 626 510.565 626C511.396 626 512.089 626.693 512.089 627.524V1469.68C512.089 1470.51 511.396 1471.2 510.565 1471.2Z" fill="#E0CBBF"/>
<path d="M570.685 1471.2C569.854 1471.2 569.161 1470.51 569.161 1469.68V627.524C569.161 626.693 569.854 626 570.685 626C571.516 626 572.209 626.693 572.209 627.524V1469.68C572.278 1470.51 571.585 1471.2 570.685 1471.2Z" fill="#E0CBBF"/>
<path d="M630.873 1471.2C630.042 1471.2 629.349 1470.51 629.349 1469.68V627.524C629.349 626.693 630.042 626 630.873 626C631.704 626 632.397 626.693 632.397 627.524V1469.68C632.397 1470.51 631.704 1471.2 630.873 1471.2Z" fill="#E0CBBF"/>
<path d="M690.992 1471.2C690.161 1471.2 689.468 1470.51 689.468 1469.68V627.524C689.468 626.693 690.161 626 690.992 626C691.823 626 692.516 626.693 692.516 627.524V1469.68C692.585 1470.51 691.892 1471.2 690.992 1471.2Z" fill="#E0CBBF"/>
<path d="M751.18 1471.2C750.349 1471.2 749.657 1470.51 749.657 1469.68V627.524C749.657 626.693 750.349 626 751.18 626C752.012 626 752.704 626.693 752.704 627.524V1469.68C752.704 1470.51 752.012 1471.2 751.18 1471.2Z" fill="#E0CBBF"/>
<path d="M811.3 1471.2C810.468 1471.2 809.776 1470.51 809.776 1469.68V627.524C809.776 626.693 810.468 626 811.3 626C812.131 626 812.823 626.693 812.823 627.524V1469.68C812.893 1470.51 812.2 1471.2 811.3 1471.2Z" fill="#E0CBBF"/>
<path d="M751.18 1471.2C750.349 1471.2 749.657 1470.51 749.657 1469.68V627.524C749.657 626.693 750.349 626 751.18 626C752.012 626 752.704 626.693 752.704 627.524V1469.68C752.704 1470.51 752.012 1471.2 751.18 1471.2Z" fill="#E0CBBF"/>
<path d="M811.3 1471.2C810.468 1471.2 809.776 1470.51 809.776 1469.68V627.524C809.776 626.693 810.468 626 811.3 626C812.131 626 812.823 626.693 812.823 627.524V1469.68C812.893 1470.51 812.2 1471.2 811.3 1471.2Z" fill="#E0CBBF"/>
<path d="M869.175 91.236H31.5238C30.6927 91.236 30 90.5434 30 89.7122C30 88.8811 30.6927 88.1885 31.5238 88.1885H869.175C870.006 88.1885 870.698 88.8811 870.698 89.7122C870.768 90.5434 870.075 91.236 869.175 91.236Z" fill="#E0CBBF"/>
<path d="M869.175 151.424H31.5238C30.6927 151.424 30 150.731 30 149.9C30 149.069 30.6927 148.376 31.5238 148.376H869.175C870.006 148.376 870.698 149.069 870.698 149.9C870.768 150.731 870.075 151.424 869.175 151.424Z" fill="#E0CBBF"/>
<path d="M869.175 211.544H31.5238C30.6927 211.544 30 210.851 30 210.02C30 209.189 30.6927 208.496 31.5238 208.496H869.175C870.006 208.496 870.698 209.189 870.698 210.02C870.768 210.851 870.075 211.544 869.175 211.544Z" fill="#E0CBBF"/>
<path d="M869.175 271.732H31.5238C30.6927 271.732 30 271.039 30 270.208C30 269.377 30.6927 268.685 31.5238 268.685H869.175C870.006 268.685 870.698 269.377 870.698 270.208C870.768 271.039 870.075 271.732 869.175 271.732Z" fill="#E0CBBF"/>
<path d="M869.175 331.851H31.5238C30.6927 331.851 30 331.158 30 330.327C30 329.496 30.6927 328.803 31.5238 328.803H869.175C870.006 328.803 870.698 329.496 870.698 330.327C870.768 331.158 870.075 331.851 869.175 331.851Z" fill="#E0CBBF"/>
<path d="M869.175 392.04H31.5238C30.6927 392.04 30 391.347 30 390.516C30 389.685 30.6927 388.992 31.5238 388.992H869.175C870.006 388.992 870.698 389.685 870.698 390.516C870.768 391.278 870.075 392.04 869.175 392.04Z" fill="#E0CBBF"/>
<path d="M869.175 452.158H31.5238C30.6927 452.158 30 451.465 30 450.634C30 449.803 30.6927 449.11 31.5238 449.11H869.175C870.006 449.11 870.698 449.803 870.698 450.634C870.768 451.465 870.075 452.158 869.175 452.158Z" fill="#E0CBBF"/>
<path d="M869.175 512.277H31.5238C30.6927 512.277 30 511.584 30 510.753C30 509.922 30.6927 509.229 31.5238 509.229H869.175C870.006 509.229 870.698 509.922 870.698 510.753C870.768 511.584 870.075 512.277 869.175 512.277Z" fill="#E0CBBF"/>
<path d="M869.175 572.465H31.5238C30.6927 572.465 30 571.773 30 570.942C30 570.111 30.6927 569.418 31.5238 569.418H869.175C870.006 569.418 870.698 570.111 870.698 570.942C870.768 571.773 870.075 572.465 869.175 572.465Z" fill="#E0CBBF"/>
<path d="M869.175 632.585H31.5238C30.6927 632.585 30 631.892 30 631.061C30 630.23 30.6927 629.537 31.5238 629.537H869.175C870.006 629.537 870.698 630.23 870.698 631.061C870.768 631.892 870.075 632.585 869.175 632.585Z" fill="#E0CBBF"/>
<path d="M869.175 692.773H31.5238C30.6927 692.773 30 692.081 30 691.249C30 690.418 30.6927 689.726 31.5238 689.726H869.175C870.006 689.726 870.698 690.418 870.698 691.249C870.768 692.081 870.075 692.773 869.175 692.773Z" fill="#E0CBBF"/>
<path d="M869.175 752.892H31.5238C30.6927 752.892 30 752.2 30 751.368C30 750.537 30.6927 749.845 31.5238 749.845H869.175C870.006 749.845 870.698 750.537 870.698 751.368C870.768 752.2 870.075 752.892 869.175 752.892Z" fill="#E0CBBF"/>
<path d="M869.175 813.081H31.5238C30.6927 813.081 30 812.388 30 811.557C30 810.726 30.6927 810.033 31.5238 810.033H869.175C870.006 810.033 870.698 810.726 870.698 811.557C870.768 812.388 870.075 813.081 869.175 813.081Z" fill="#E0CBBF"/>
<path d="M869.175 813.236H31.5238C30.6927 813.236 30 812.543 30 811.712C30 810.881 30.6927 810.188 31.5238 810.188H869.175C870.006 810.188 870.698 810.881 870.698 811.712C870.768 812.543 870.075 813.236 869.175 813.236Z" fill="#E0CBBF"/>
<path d="M869.175 873.355H31.5238C30.6927 873.355 30 872.663 30 871.831C30 871 30.6927 870.308 31.5238 870.308H869.175C870.006 870.308 870.698 871 870.698 871.831C870.768 872.663 870.075 873.355 869.175 873.355Z" fill="#E0CBBF"/>
<path d="M869.175 933.544H31.5238C30.6927 933.544 30 932.851 30 932.02C30 931.189 30.6927 930.496 31.5238 930.496H869.175C870.006 930.496 870.698 931.189 870.698 932.02C870.768 932.851 870.075 933.544 869.175 933.544Z" fill="#E0CBBF"/>
<path d="M869.175 993.663H31.5238C30.6927 993.663 30 992.97 30 992.139C30 991.308 30.6927 990.615 31.5238 990.615H869.175C870.006 990.615 870.698 991.308 870.698 992.139C870.768 992.97 870.075 993.663 869.175 993.663Z" fill="#E0CBBF"/>
<path d="M869.175 1053.85H31.5238C30.6927 1053.85 30 1053.16 30 1052.33C30 1051.5 30.6927 1050.8 31.5238 1050.8H869.175C870.006 1050.8 870.698 1051.5 870.698 1052.33C870.768 1053.09 870.075 1053.85 869.175 1053.85Z" fill="#E0CBBF"/>
<path d="M869.175 1113.97H31.5238C30.6927 1113.97 30 1113.28 30 1112.45C30 1111.62 30.6927 1110.92 31.5238 1110.92H869.175C870.006 1110.92 870.698 1111.62 870.698 1112.45C870.768 1113.28 870.075 1113.97 869.175 1113.97Z" fill="#E0CBBF"/>
<path d="M869.175 1174.09H31.5238C30.6927 1174.09 30 1173.4 30 1172.56C30 1171.73 30.6927 1171.04 31.5238 1171.04H869.175C870.006 1171.04 870.698 1171.73 870.698 1172.56C870.768 1173.4 870.075 1174.09 869.175 1174.09Z" fill="#E0CBBF"/>
<path d="M869.175 1234.28H31.5238C30.6927 1234.28 30 1233.59 30 1232.75C30 1231.92 30.6927 1231.23 31.5238 1231.23H869.175C870.006 1231.23 870.698 1231.92 870.698 1232.75C870.768 1233.59 870.075 1234.28 869.175 1234.28Z" fill="#E0CBBF"/>
<path d="M869.175 1294.4H31.5238C30.6927 1294.4 30 1293.7 30 1292.87C30 1292.04 30.6927 1291.35 31.5238 1291.35H869.175C870.006 1291.35 870.698 1292.04 870.698 1292.87C870.768 1293.7 870.075 1294.4 869.175 1294.4Z" fill="#E0CBBF"/>
<path d="M869.175 1354.58H31.5238C30.6927 1354.58 30 1353.89 30 1353.06C30 1352.23 30.6927 1351.54 31.5238 1351.54H869.175C870.006 1351.54 870.698 1352.23 870.698 1353.06C870.768 1353.89 870.075 1354.58 869.175 1354.58Z" fill="#E0CBBF"/>
<path d="M869.175 1414.7H31.5238C30.6927 1414.7 30 1414.01 30 1413.18C30 1412.35 30.6927 1411.66 31.5238 1411.66H869.175C870.006 1411.66 870.698 1412.35 870.698 1413.18C870.768 1414.01 870.075 1414.7 869.175 1414.7Z" fill="#E0CBBF"/>
<path d="M171.5 1103.2H151V1123.7H171.5V1103.2Z" fill="#5F3B28"/>
<path d="M723 1103.2H702.5V1123.7H723V1103.2Z" fill="#5F3B28"/>
<path d="M171.5 1182.4H151V1202.9H171.5V1182.4Z" fill="#5F3B28"/>
<path d="M447.2 1182.4H426.7V1202.9H447.2V1182.4Z" fill="#5F3B28"/>
<path d="M723 1182.4H702.5V1202.9H723V1182.4Z" fill="#5F3B28"/>
<path d="M447.2 1024H426.7V1044.5H447.2V1024Z" fill="#5F3B28"/>
<path d="M723 1024H702.5V1044.5H723V1024Z" fill="#5F3B28"/>
<path d="M171.5 1024H151V1044.5H171.5V1024Z" fill="#5F3B28"/>
<path d="M712 1034.1H161.5V1192.4H712V1034.1Z" stroke="#5F3B28" stroke-width="4.9261" stroke-miterlimit="10"/>
<path d="M715.07 1189H710V1283H715.07V1189Z" fill="#5F3B28"/>
<path d="M719.899 1195.76H713.622V1200.83H719.899V1195.76Z" fill="#5F3B28"/>
<path d="M725.693 1200.83H720.14V1206.38H725.693V1200.83Z" fill="#5F3B28"/>
<path d="M731.246 1206.38H725.693V1211.94H731.246V1206.38Z" fill="#5F3B28"/>
<path d="M736.88 1212.02H731.327V1217.57H736.88V1212.02Z" fill="#5F3B28"/>
<path d="M742.192 1217.09H736.639V1222.64H742.192V1217.09Z" fill="#5F3B28"/>
<path d="M747.745 1222.64H742.192V1228.19H747.745V1222.64Z" fill="#5F3B28"/>
<path d="M753.298 1228.19H747.745V1233.75H753.298V1228.19Z" fill="#5F3B28"/>
<path d="M758.932 1233.83H753.378V1239.38H758.932V1233.83Z" fill="#5F3B28"/>
<path d="M764.484 1239.38H758.931V1244.93H764.484V1239.38Z" fill="#5F3B28"/>
<path d="M770.038 1244.93H764.485V1250.49H770.038V1244.93Z" fill="#5F3B28"/>
<path d="M775.188 1250H736.478V1255.56H775.188V1250Z" fill="#5F3B28"/>
<path d="M720.623 1271.81H715.07V1277.37H720.623V1271.81Z" fill="#5F3B28"/>
<path d="M725.693 1266.26H720.14V1271.81H725.693V1266.26Z" fill="#5F3B28"/>
<path d="M731.246 1260.71H725.693V1266.26H731.246V1260.71Z" fill="#5F3B28"/>
<path d="M736.88 1255.56H731.327V1260.95H736.88V1255.56Z" fill="#5F3B28"/>
<path d="M713.622 1271.81V1200.83H720.14V1206.38H725.693V1212.02H731.327V1217.57L736.639 1217.09V1222.64H742.192V1228.19H747.745V1233.83H753.378V1239.38H758.932V1244.93H764.485V1250.49L736.478 1250L736.88 1255.56H731.327V1260.95L725.693 1260.71V1266.26H720.14V1271.81H713.622Z" fill="#F5ECDC"/>
</svg>
