<svg width="400" height="400" viewBox="0 0 400 400" fill="none" xmlns="http://www.w3.org/2000/svg">
<path d="M333.214 267.555H66.5766C60.744 267.555 56.1611 262.972 56.1611 257.139V22.5817C56.1611 16.749 60.744 12.1662 66.5766 12.1662H333.214C339.047 12.1662 343.629 16.749 343.629 22.5817V257.139C343.629 262.972 339.047 267.555 333.214 267.555Z" fill="#F5ECDC" stroke="#5F3B28" stroke-width="8"/>
<path d="M322.382 271.721H77.4095C63.4527 271.721 51.9956 260.264 51.9956 246.307V33.4138C51.9956 19.4571 63.4527 8 77.4095 8H322.382C336.339 8 347.796 19.4571 347.796 33.4138V246.307C348.005 260.264 336.547 271.721 322.382 271.721ZM77.4095 16.5407C68.0355 16.5407 60.328 24.2482 60.328 33.6222V246.515C60.328 255.889 68.0355 263.597 77.4095 263.597H322.382C331.756 263.597 339.464 255.889 339.464 246.515V33.4138C339.464 24.0399 331.756 16.3324 322.382 16.3324H77.4095V16.5407Z" fill="#5F3B28" stroke="#5F3B28" stroke-width="8"/>
<path d="M310.3 45.4958H89.2827V234.433H310.3V45.4958Z" fill="#5F3B28" stroke="#5F3B28" stroke-width="8"/>
<path d="M310.508 238.599H89.2829C86.9915 238.599 85.1167 236.725 85.1167 234.433V45.4959C85.1167 43.2044 86.9915 41.3297 89.2829 41.3297H310.3C312.591 41.3297 314.466 43.2044 314.466 45.4959V234.433C314.675 236.725 312.8 238.599 310.508 238.599ZM93.6574 230.059H306.342V49.6621H93.6574V230.059Z" fill="#5F3B28" stroke="#5F3B28" stroke-width="8"/>
<path d="M373.418 388.583H26.5815C20.7488 388.583 16.166 384 16.166 378.167V277.97C16.166 272.137 20.7488 267.555 26.5815 267.555H373.418C379.251 267.555 383.834 272.137 383.834 277.97V378.167C383.834 384 379.042 388.583 373.418 388.583Z" fill="#F5ECDC" stroke="#5F3B28" stroke-width="8"/>
<path d="M362.586 392.749H37.4138C23.457 392.749 12 381.292 12 367.335V288.802C12 274.845 23.457 263.388 37.4138 263.388H362.586C376.543 263.388 388 274.845 388 288.802V367.335C388 381.5 376.543 392.749 362.586 392.749ZM37.4138 271.721C28.0399 271.721 20.3324 279.428 20.3324 288.802V367.335C20.3324 376.709 28.0399 384.417 37.4138 384.417H362.586C371.96 384.417 379.668 376.709 379.668 367.335V288.802C379.668 279.428 371.96 271.721 362.586 271.721H37.4138Z" fill="#5F3B28" stroke="#5F3B28" stroke-width="8"/>
<path d="M192.605 360.878H57.4118C49.496 360.878 42.8301 354.42 42.8301 346.296V345.463C42.8301 337.547 49.2877 330.881 57.4118 330.881H192.605C200.521 330.881 207.187 337.339 207.187 345.463V346.296C206.979 354.42 200.521 360.878 192.605 360.878ZM57.2035 339.422C53.8705 339.422 51.1625 342.13 51.1625 345.463V346.296C51.1625 349.629 53.8705 352.337 57.2035 352.337H192.397C195.73 352.337 198.438 349.629 198.438 346.296V345.463C198.438 342.13 195.73 339.422 192.397 339.422H57.2035Z" fill="#5F3B28" stroke="#5F3B28" stroke-width="4"/>
<path d="M341.522 358.892C348.453 358.892 354.072 353.12 354.072 346C354.072 338.88 348.453 333.108 341.522 333.108C334.591 333.108 328.972 338.88 328.972 346C328.972 353.12 334.591 358.892 341.522 358.892Z" fill="#5F3B28"/>
<path d="M341.522 364C331.814 364 324 355.973 324 346C324 336.027 331.814 328 341.522 328C351.231 328 359.045 336.027 359.045 346C359.045 355.973 351.231 364 341.522 364ZM341.522 337.973C337.26 337.973 333.708 341.622 333.708 346C333.708 350.378 337.26 354.027 341.522 354.027C345.784 354.027 349.336 350.378 349.336 346C349.336 341.622 345.784 337.973 341.522 337.973Z" fill="#5F3B28"/>
<path d="M305.97 346C305.97 353.054 300.307 358.892 293.463 358.892C286.62 358.892 280.956 353.054 280.956 346C280.956 338.946 286.62 333.108 293.463 333.108C300.307 333.108 305.97 338.946 305.97 346Z" fill="#5F3B28"/>
<path d="M293.463 364C283.788 364 276 355.973 276 346C276 336.027 283.788 328 293.463 328C303.138 328 310.926 336.027 310.926 346C310.926 355.973 303.138 364 293.463 364ZM293.463 337.973C289.215 337.973 285.675 341.622 285.675 346C285.675 350.378 289.215 354.027 293.463 354.027C297.711 354.027 301.25 350.378 301.25 346C301.25 341.622 297.711 337.973 293.463 337.973Z" fill="#5F3B28"/>
<path d="M99.188 304H44.812C42.1654 304 40 301.284 40 297.963C40 294.643 42.1654 291.927 44.812 291.927H99.188C101.835 291.927 104 294.643 104 297.963C104 301.284 101.835 304 99.188 304Z" fill="#5F3B28"/>
<path d="M168.732 144.652C168.732 161.796 182.751 175.815 199.895 175.815C217.012 175.815 231.075 162.025 230.642 144.624C230.627 141.241 227.863 138.485 224.476 138.485C221.08 138.485 218.31 141.256 218.31 144.652C218.31 155.004 210.04 163.274 199.687 163.274C189.335 163.274 181.064 155.004 181.064 144.652C181.064 141.256 178.294 138.485 174.898 138.485C171.502 138.485 168.732 141.256 168.732 144.652Z" fill="#F5ECDC" stroke="#F5ECDC" stroke-width="4"/>
<path d="M258.849 139.777C263.703 139.777 267.723 135.757 267.723 130.903C267.723 126.049 263.703 122.029 258.849 122.029C253.995 122.029 249.975 126.049 249.975 130.903C249.975 135.757 253.995 139.777 258.849 139.777Z" fill="#F5ECDC" stroke="#F5ECDC" stroke-width="4"/>
<path d="M272.095 130.97L272.097 130.936V130.903C272.097 123.549 266.202 117.654 258.848 117.654C251.494 117.654 245.599 123.549 245.599 130.903C245.599 138.257 251.494 144.152 258.848 144.152C266.029 144.152 271.853 138.235 272.095 130.97ZM258.14 130.903C258.14 130.549 258.494 130.195 258.848 130.195C258.963 130.195 259.081 130.232 259.219 130.378C259.349 130.515 259.476 130.736 259.544 131.018C259.479 131.329 259.163 131.611 258.848 131.611C258.494 131.611 258.14 131.257 258.14 130.903Z" fill="#F5ECDC" stroke="#F5ECDC" stroke-width="4"/>
<path d="M132.279 130.903C132.279 135.757 136.299 139.777 141.154 139.777C146.008 139.777 150.028 135.757 150.028 130.903C150.028 126.049 146.008 122.029 141.154 122.029C136.052 122.029 132.279 126.089 132.279 130.903Z" fill="#F5ECDC" stroke="#F5ECDC" stroke-width="4"/>
<path d="M154.4 130.97L154.401 130.936V130.903C154.401 123.549 148.506 117.654 141.153 117.654C133.799 117.654 127.904 123.549 127.904 130.903C127.904 138.257 133.799 144.152 141.153 144.152C148.333 144.152 154.158 138.235 154.4 130.97ZM140.444 130.903C140.444 130.549 140.799 130.195 141.153 130.195C141.268 130.195 141.386 130.232 141.523 130.378C141.654 130.515 141.781 130.736 141.848 131.018C141.784 131.329 141.468 131.611 141.153 131.611C140.799 131.611 140.444 131.257 140.444 130.903Z" fill="#F5ECDC" stroke="#F5ECDC" stroke-width="4"/>
</svg>
