<svg width="792" height="792" viewBox="0 0 792 792" fill="none" xmlns="http://www.w3.org/2000/svg">
<g clip-path="url(#clip0_22_950)">
<mask id="mask0_22_950" style="mask-type:luminance" maskUnits="userSpaceOnUse" x="0" y="0" width="792" height="792">
<path d="M792 0H0V792H792V0Z" fill="white"/>
</mask>
<g mask="url(#mask0_22_950)">
<path d="M800 756.5H0" stroke="#F5ECDC" stroke-width="1.5"/>
<path d="M800 720.5H0" stroke="#F5ECDC" stroke-width="1.5"/>
<path d="M800 684.5H0" stroke="#F5ECDC" stroke-width="1.5"/>
<path d="M800 648.5H0" stroke="#F5ECDC" stroke-width="1.5"/>
<path d="M800 612.5H0" stroke="#F5ECDC" stroke-width="1.5"/>
<path d="M800 576.5H0" stroke="#F5ECDC" stroke-width="1.5"/>
<path d="M800 540.5H0" stroke="#F5ECDC" stroke-width="1.5"/>
<path d="M800 504.5H0" stroke="#F5ECDC" stroke-width="1.5"/>
<path d="M800 468.5H0" stroke="#F5ECDC" stroke-width="1.5"/>
<path d="M800 432.5H0" stroke="#F5ECDC" stroke-width="1.5"/>
<path d="M800 396.5H0" stroke="#F5ECDC" stroke-width="1.5"/>
<path d="M800 360.5H0" stroke="#F5ECDC" stroke-width="1.5"/>
<path d="M800 324.5H0" stroke="#F5ECDC" stroke-width="1.5"/>
<path d="M800 288.5H0" stroke="#F5ECDC" stroke-width="1.5"/>
<path d="M800 252.5H0" stroke="#F5ECDC" stroke-width="1.5"/>
<path d="M800 216.5H0" stroke="#F5ECDC" stroke-width="1.5"/>
<path d="M800 180.5H0" stroke="#F5ECDC" stroke-width="1.5"/>
<path d="M800 144.5H0" stroke="#F5ECDC" stroke-width="1.5"/>
<path d="M800 108.5H0" stroke="#F5ECDC" stroke-width="1.5"/>
<path d="M800 72.5H0" stroke="#F5ECDC" stroke-width="1.5"/>
<path d="M800 36.5H0" stroke="#F5ECDC" stroke-width="1.5"/>
<path d="M800 0.5H0" stroke="#F5ECDC" stroke-width="1.5"/>
<path d="M0.5 800V0" stroke="#F5ECDC" stroke-width="1.5"/>
<path d="M36.5 800V0" stroke="#F5ECDC" stroke-width="1.5"/>
<path d="M72.5 800V0" stroke="#F5ECDC" stroke-width="1.5"/>
<path d="M108.5 800V0" stroke="#F5ECDC" stroke-width="1.5"/>
<path d="M144.5 800V0" stroke="#F5ECDC" stroke-width="1.5"/>
<path d="M180.5 800V0" stroke="#F5ECDC" stroke-width="1.5"/>
<path d="M216.5 800V0" stroke="#F5ECDC" stroke-width="1.5"/>
<path d="M252.5 800V0" stroke="#F5ECDC" stroke-width="1.5"/>
<path d="M288.5 800V0" stroke="#F5ECDC" stroke-width="1.5"/>
<path d="M324.5 800V0" stroke="#F5ECDC" stroke-width="1.5"/>
<path d="M360.5 800V0" stroke="#F5ECDC" stroke-width="1.5"/>
<path d="M396.5 800V0" stroke="#F5ECDC" stroke-width="1.5"/>
<path d="M432.5 800V0" stroke="#F5ECDC" stroke-width="1.5"/>
<path d="M468.5 800V0" stroke="#F5ECDC" stroke-width="1.5"/>
<path d="M504.5 800V0" stroke="#F5ECDC" stroke-width="1.5"/>
<path d="M540.5 800V0" stroke="#F5ECDC" stroke-width="1.5"/>
<path d="M576.5 800V0" stroke="#F5ECDC" stroke-width="1.5"/>
<path d="M612.5 800V0" stroke="#F5ECDC" stroke-width="1.5"/>
<path d="M648.5 800V0" stroke="#F5ECDC" stroke-width="1.5"/>
<path d="M684.5 800V0" stroke="#F5ECDC" stroke-width="1.5"/>
<path d="M720.5 800V0" stroke="#F5ECDC" stroke-width="1.5"/>
<path d="M756.5 800V0" stroke="#F5ECDC" stroke-width="1.5"/>
</g>
</g>
<defs>
<clipPath id="clip0_22_950">
<rect width="792" height="792" fill="white"/>
</clipPath>
</defs>
</svg>
